<svg xmlns="http://www.w3.org/2000/svg" width="120" height="120" viewBox="0 0 120 120">
  <g id="Group_9209" data-name="Group 9209" transform="translate(-544 -652)">
    <circle id="Ellipse_4" data-name="Ellipse 4" cx="60" cy="60" r="60" transform="translate(544 652)" fill="#f5f5f5"/>
    <g id="Group_9200" data-name="Group 9200" transform="translate(577.096 683.006)">
      <path id="Path_5134" data-name="Path 5134" d="M-5737.748-1135.7h5.735v-4.984s-.146-1.041,1.266-1.041,1.32,1.041,1.32,1.041v3.994s-2.5,2.361-4.675,2.906a5.343,5.343,0,0,0-3.646,4.219v6.485s.919,2.769,3.646,2.769h3.354s1.722-.463,1.952-1.184a4.783,4.783,0,0,0,0,.776h3.225v5.192l-15.63,12.064V-1149.3l15.65-12.677v17.412s-9.2-2.995-12.2,2.837C-5737.616-1141.7-5737.748-1135.7-5737.748-1135.7Z" transform="translate(5741.2 1161.972)"/>
      <path id="Path_5135" data-name="Path 5135" d="M-5737.748-1135.7h5.735v-4.984s-.146-1.041,1.266-1.041,1.32,1.041,1.32,1.041v3.994s-2.5,2.361-4.675,2.906a5.343,5.343,0,0,0-3.646,4.219v6.485s.919,2.769,3.646,2.769h3.354s1.722-.463,1.952-1.184a4.783,4.783,0,0,0,0,.776h3.225v5.192l-15.63,12.064V-1149.3l15.65-12.677v17.412s-9.2-2.995-12.2,2.837C-5737.616-1141.7-5737.748-1135.7-5737.748-1135.7Z" transform="translate(5779.224 1161.972)"/>
      <path id="Path_5136" data-name="Path 5136" d="M-5669.117-1150.864h-3.769v6.528s-5.648-3.423-8.092,1.675c-.079.094,0,19.792,0,19.792s2.613,5.29,9.2,1.38v1h2.658v5.209l-15.582,12.464v-46.239l15.584-12.649Z" transform="translate(5703.712 1161.794)"/>
      <rect id="Rectangle_4369" data-name="Rectangle 4369" width="2.355" height="17.161" rx="1.178" transform="translate(28.67 20.517)"/>
      <path id="Path_5137" data-name="Path 5137" d="M-5710.923-1071.92l-2.218,1.4v5.083a1.222,1.222,0,0,0,1.177,1.089,1.051,1.051,0,0,0,1.041-1.089Z" transform="translate(5722.583 1102.222)"/>
      <path id="Path_5138" data-name="Path 5138" d="M-5710.923-1071.92l-2.218,1.4v5.083a1.222,1.222,0,0,0,1.177,1.089,1.051,1.051,0,0,0,1.041-1.089Z" transform="translate(5760.607 1102.222)"/>
    </g>
  </g>
</svg>
