<?xml version="1.0" encoding="UTF-8"?>
<svg xmlns="http://www.w3.org/2000/svg" xmlns:xlink="http://www.w3.org/1999/xlink" viewBox="0 0 269.09 269.32">
  <defs>
    <style>
      .cls-1 {
        fill: url(#linear-gradient-3);
        mix-blend-mode: multiply;
      }

      .cls-2 {
        fill: url(#linear-gradient-2);
      }

      .cls-3 {
        fill: #fff;
      }

      .cls-4 {
        stroke: url(#linear-gradient-9);
      }

      .cls-4, .cls-5, .cls-6 {
        stroke-width: 3px;
      }

      .cls-4, .cls-5, .cls-6, .cls-7 {
        fill: none;
        stroke-miterlimit: 10;
      }

      .cls-8 {
        isolation: isolate;
      }

      .cls-9 {
        fill: url(#linear-gradient-11);
      }

      .cls-5 {
        stroke: url(#linear-gradient-7);
      }

      .cls-10 {
        fill: url(#linear-gradient-5);
      }

      .cls-6 {
        stroke: url(#linear-gradient-10);
      }

      .cls-7 {
        stroke: url(#linear-gradient-6);
        stroke-width: 4px;
      }

      .cls-11 {
        fill: #74e0c0;
      }

      .cls-12 {
        fill: url(#linear-gradient);
      }

      .cls-13 {
        fill: url(#linear-gradient-4);
      }

      .cls-14 {
        fill: url(#linear-gradient-8);
      }

      .cls-15 {
        fill: #0c9679;
      }

      .cls-16 {
        fill: url(#linear-gradient-12);
      }

      .cls-17 {
        fill: url(#linear-gradient-13);
      }
    </style>
    <linearGradient id="linear-gradient" x1="49.2" y1="37.73" x2="231.36" y2="219.88" gradientUnits="userSpaceOnUse">
      <stop offset="0" stop-color="#ebfff9"/>
      <stop offset="1" stop-color="#74e0c0"/>
    </linearGradient>
    <linearGradient id="linear-gradient-2" x1="9.76" y1="60.23" x2="252.55" y2="60.23" gradientUnits="userSpaceOnUse">
      <stop offset=".2" stop-color="#fff"/>
      <stop offset=".64" stop-color="#f6fffc"/>
      <stop offset="1" stop-color="#ebfff9"/>
    </linearGradient>
    <linearGradient id="linear-gradient-3" x1="140.28" y1="269.32" x2="140.28" y2="230.51" gradientUnits="userSpaceOnUse">
      <stop offset=".15" stop-color="#0c9679" stop-opacity="0"/>
      <stop offset=".33" stop-color="#0c9679" stop-opacity=".06"/>
      <stop offset=".62" stop-color="#0c9679" stop-opacity=".22"/>
      <stop offset=".98" stop-color="#0c9679" stop-opacity=".48"/>
      <stop offset="1" stop-color="#0c9679" stop-opacity=".5"/>
    </linearGradient>
    <linearGradient id="linear-gradient-4" x1="140.28" y1="231.73" x2="140.28" y2="194.29" gradientUnits="userSpaceOnUse">
      <stop offset="0" stop-color="#000"/>
      <stop offset=".85" stop-color="#000"/>
    </linearGradient>
    <linearGradient id="linear-gradient-5" x1="157.05" y1="196.67" x2="157.05" y2="229.92" gradientUnits="userSpaceOnUse">
      <stop offset=".2" stop-color="#74e0c0" stop-opacity=".5"/>
      <stop offset="1" stop-color="#74e0c0"/>
    </linearGradient>
    <linearGradient id="linear-gradient-6" x1="141.58" y1="195.87" x2="141.58" y2="74.17" gradientUnits="userSpaceOnUse">
      <stop offset="0" stop-color="#000"/>
      <stop offset=".85" stop-color="#74e0c0"/>
    </linearGradient>
    <linearGradient id="linear-gradient-7" x1="46.08" y1="159.9" x2="46.08" y2="63.75" xlink:href="#linear-gradient-4"/>
    <linearGradient id="linear-gradient-8" x1="67.32" y1="178.89" x2="67.32" y2="159.28" xlink:href="#linear-gradient-4"/>
    <linearGradient id="linear-gradient-9" x1="88.56" y1="159.9" x2="88.56" y2="63.75" xlink:href="#linear-gradient-4"/>
    <linearGradient id="linear-gradient-10" x1="213.25" y1="177.67" x2="213.25" y2="78.47" xlink:href="#linear-gradient-4"/>
    <linearGradient id="linear-gradient-11" x1="207.66" y1="122.96" x2="219.45" y2="122.96" gradientUnits="userSpaceOnUse">
      <stop offset=".2" stop-color="#ebfff9"/>
      <stop offset=".4" stop-color="#e8fef7"/>
      <stop offset=".52" stop-color="#e0fcf3"/>
      <stop offset=".62" stop-color="#d1f8ec"/>
      <stop offset=".71" stop-color="#bdf3e3"/>
      <stop offset=".79" stop-color="#a3ecd6"/>
      <stop offset=".87" stop-color="#83e4c7"/>
      <stop offset=".9" stop-color="#74e0c0"/>
    </linearGradient>
    <linearGradient id="linear-gradient-12" x1="229.57" y1="192.5" x2="197.18" y2="136.4" gradientUnits="userSpaceOnUse">
      <stop offset=".2" stop-color="#ebfff9"/>
      <stop offset=".95" stop-color="#74e0c0"/>
    </linearGradient>
    <linearGradient id="linear-gradient-13" x1="213.25" y1="196.67" x2="213.25" y2="177.06" xlink:href="#linear-gradient-4"/>
  </defs>
  <g class="cls-8">
    <g id="Layer_2" data-name="Layer 2">
      <g id="Layer_1-2" data-name="Layer 1">
        <g>
          <circle class="cls-12" cx="140.28" cy="128.8" r="128.8"/>
          <path class="cls-2" d="M124.88,98.78H9.76c3.03-16.61,16.8-29.15,33.33-29.15,2.43,0,4.8,.27,7.09,.79,2.7-18.18,15.24-31.92,30.29-31.92,17.03,0,30.83,17.58,30.83,39.27,0,3.66-.39,7.2-1.13,10.57,5.74,2.06,10.8,5.7,14.7,10.45Zm93.16-26.71c-2.43-14.25-11.19-24.8-21.63-24.8s-18.42,9.64-21.26,22.93c-4.95,1.02-9.29,3.88-12.38,7.91h89.78c-1.74-1.68-12.52-11.73-25.99-9.3-3.42,.62-6.27,1.9-8.53,3.26Zm-88.49-37.32h49.7c-2.23-7.52-9.9-13.07-19.04-13.07-7.58,0-14.16,3.82-17.45,9.41-.87-.3-3.74-1.19-7.21-.27-3.61,.96-5.49,3.25-6,3.92Z"/>
          <rect class="cls-1" x="95.71" y="230.51" width="89.14" height="38.8"/>
          <path class="cls-13" d="M184.39,227.61l-44.11-33.31-44.11,33.31c-.91,.69-1.11,1.97-.46,2.91,.53,.76,1.41,1.22,2.34,1.22h84.46c.93,0,1.81-.46,2.34-1.22,.65-.94,.45-2.22-.46-2.91Z"/>
          <path class="cls-10" d="M173.04,229.92h-18.03c-5.07-12.1-12.57-29.95-13.95-33.25,3.43,3.57,25.77,26.81,31.98,33.25Z"/>
          <rect x="135.36" y="67.24" width="9.85" height="133.68"/>
          <circle cx="140.28" cy="57.48" r="10.74"/>
          <path d="M61.51,59.34h0c-.4-1.85,1.15-3.54,3.03-3.29l152.55,20.07c1.88,.25,2.94,2.28,2.08,3.97h0c-1.3,2.53-4.05,3.97-6.87,3.6l-145.09-19.09c-2.82-.37-5.1-2.47-5.7-5.25Z"/>
          <line class="cls-7" x1="141.58" y1="74.17" x2="141.58" y2="195.87"/>
          <path class="cls-11" d="M145.3,60.48c-1.66,0-3-1.34-3-3,0-.84-.5-1.58-1.29-1.88-1.54-.6-2.31-2.34-1.7-3.89,.6-1.54,2.34-2.31,3.89-1.7,3.1,1.21,5.1,4.14,5.1,7.47,0,1.66-1.34,3-3,3Z"/>
          <line class="cls-5" x1="24.84" y1="159.28" x2="67.32" y2="64.36"/>
          <image width="590" height="892" transform="translate(0 102.35) rotate(-40.33) scale(.11)" xlink:href="../Sin título.png"/>
          <g>
            <path class="cls-14" d="M109.79,159.28c-12.28,12.42-26.85,19.61-42.48,19.61s-30.2-7.19-42.48-19.61H109.79Z"/>
            <line class="cls-4" x1="67.32" y1="64.36" x2="109.79" y2="159.28"/>
          </g>
          <polyline class="cls-6" points="170.78 177.06 213.25 82.14 255.73 177.06"/>
          <g>
            <path class="cls-3" d="M249.77,149.99c8.21,11.64,6.13,26.38-7.4,35.06-7.66,4.93-17.85,8.17-29.17,8.15-10.94,.01-20.83-3.01-28.39-7.67-14.31-8.78-16.46-24.04-7.81-36.05,8.19-11.59,24.26-28.99,36.21-28.99s28.39,17.71,36.56,29.5Z"/>
            <path class="cls-9" d="M219.45,121.82c-2.16-.86-4.25-1.33-6.24-1.33-1.78,0-3.63,.38-5.55,1.07,.18,.24,3.36,4.11,7.28,3.86,3.16-.2,4.2-3.22,4.51-3.6Z"/>
            <path class="cls-3" d="M210.33,121.65s-8.45-9.19-15.06-14.15c0,0,9.37-9.37,13.04-7.16s8.08,6.43,10.84,6.06,7.16-3.86,9.37-2.39-7.53,13.41-11.21,17.64c0,0-2.57,1.84-6.98,0Z"/>
            <path class="cls-16" d="M242.37,185.05c-7.65,4.93-17.85,8.17-29.17,8.15-10.93,.01-20.83-3.01-28.39-7.66-3.92-2.41-6.93-5.3-9.05-8.48,7,2.74,38.29,5.9,54.55-4.94,16.27-10.84,7.23-38.16-9.18-49.55,10.53,5.01,22.16,18.08,28.63,27.42,8.21,11.65,6.13,26.38-7.4,35.07Z"/>
            <path class="cls-15" d="M222.04,159.13c0-1.47-.36-2.74-1.06-3.77-.68-1-1.61-1.87-2.74-2.56-1.08-.66-2.52-1.39-4.29-2.16-1.68-.69-2.94-1.26-3.74-1.69-.74-.4-1.31-.86-1.7-1.39-.37-.5-.55-1.12-.55-1.91,0-1.22,.38-2.11,1.15-2.74,.8-.64,1.99-.97,3.54-.97,1.77,0,3.15,.42,4.13,1.26,.96,.83,1.43,1.86,1.43,3.16v.68c0,.56,.38,.94,.94,.94h1.77c.56,0,.94-.38,.94-.94v-.83c0-2.11-.69-3.87-2.05-5.23-1.27-1.27-3-2.06-5.19-2.38l.03-2.63c0-.56-.38-.94-.94-.94h-1.62c-.56,0-.94,.38-.94,.95l.03,2.57c-2.04,.25-3.68,.97-4.89,2.14-1.29,1.25-1.95,2.94-1.95,5.03,0,1.47,.34,2.71,1.02,3.7,.66,.96,1.52,1.75,2.56,2.36,.98,.57,2.41,1.25,4.23,2.01,1.66,.72,2.95,1.35,3.82,1.89,.84,.51,1.46,1.06,1.85,1.62,.38,.54,.56,1.18,.56,1.95,0,1.2-.41,2.13-1.24,2.84-.85,.72-2.12,1.09-3.79,1.09-1.88,0-3.36-.41-4.39-1.22-1.01-.79-1.5-1.8-1.5-3.09v-1.02c0-.56-.38-.94-.94-.94h-1.7c-.56,0-.94,.38-.94,.94v1.17c0,2.09,.71,3.83,2.1,5.18,1.29,1.25,3.07,2.04,5.34,2.35l-.03,2.36c0,.56,.38,.94,.94,.94h1.66c.56,0,.94-.38,.94-.94l-.03-2.35c2.19-.28,3.94-1.05,5.21-2.31,1.35-1.34,2.03-3.06,2.03-5.12Zm-10.51-20.61h0s-.03,0-.04,0c.01,0,.03,0,.04,0Z"/>
          </g>
          <path class="cls-17" d="M255.73,177.06c-12.28,12.42-26.85,19.61-42.48,19.61s-30.2-7.19-42.48-19.61h84.95Z"/>
        </g>
      </g>
    </g>
  </g>
</svg>