<?xml version="1.0" encoding="utf-8"?>
<!-- Generator: Adobe Illustrator 26.5.0, SVG Export Plug-In . SVG Version: 6.00 Build 0)  -->
<svg version="1.1" id="Layer_1" xmlns="http://www.w3.org/2000/svg" xmlns:xlink="http://www.w3.org/1999/xlink" x="0px" y="0px"
	 viewBox="0 0 251.2 39.9" style="enable-background:new 0 0 251.2 39.9;" xml:space="preserve">
<style type="text/css">
	.st0{fill:#6A6A6A;}
</style>
<g>
	<g>
		<path class="st0" d="M0.1,38.6l11.2-24.5c0.1-0.2,0.4-0.4,0.6-0.4h0.4c0.3,0,0.5,0.2,0.6,0.4L24,38.6c0.2,0.3,0,0.7-0.3,0.9
			c-0.1,0.1-0.2,0.1-0.4,0.1H21c-0.4,0-0.7-0.2-0.8-0.5L18,34H6.1c-0.7,1.7-1.5,3.3-2.2,5c-0.1,0.3-0.5,0.5-0.8,0.5H0.7
			C0.3,39.6,0,39.3,0,39C0,38.8,0,38.7,0.1,38.6 M16.6,30.9l-4.5-10h-0.2l-4.4,10H16.6z"/>
		<path class="st0" d="M33.8,14.7c0-0.4,0.3-0.7,0.7-0.7h8.3c4.5,0,8.1,3.6,8.1,8.1s-3.6,8.1-8.1,8.1l0,0h-5.2v8.6
			c0,0.4-0.3,0.7-0.7,0.7h-2.4c-0.4,0-0.7-0.3-0.7-0.7V14.7z M42.6,26.7c2.6,0,4.6-2.1,4.6-4.6l0,0c-0.1-2.5-2.1-4.4-4.6-4.4l0,0h-5
			v9H42.6z"/>
		<path class="st0" d="M62.8,14.7c0-0.4,0.3-0.7,0.7-0.7h8.3c4.5,0,8.1,3.6,8.1,8.1s-3.6,8.1-8.1,8.1l0,0h-5.2v8.6
			c0,0.4-0.3,0.7-0.7,0.7h-2.4c-0.4,0-0.7-0.3-0.7-0.7L62.8,14.7z M71.5,26.7c2.6,0,4.6-2.1,4.6-4.7l0,0c-0.1-2.5-2.1-4.4-4.6-4.4
			l0,0h-5v9L71.5,26.7z"/>
		<path class="st0" d="M91.7,14.7c0-0.4,0.3-0.7,0.7-0.7l0,0h2.4c0.4,0,0.7,0.3,0.7,0.7v21.4h9.9c0.4,0,0.7,0.3,0.7,0.7l0,0v2
			c0,0.4-0.3,0.7-0.7,0.7l0,0h-13c-0.4,0-0.7-0.3-0.7-0.7l0,0V14.7z"/>
		<path class="st0" d="M114.3,38.6l11.2-24.5c0.1-0.2,0.4-0.4,0.6-0.4h0.4c0.3,0,0.5,0.2,0.6,0.4l11.1,24.5c0.2,0.3,0,0.7-0.3,0.9
			c-0.1,0.1-0.2,0.1-0.4,0.1h-2.3c-0.4,0-0.7-0.2-0.8-0.5l-2.3-5h-11.9c-0.7,1.7-1.5,3.3-2.2,5c-0.1,0.3-0.5,0.5-0.8,0.5h-2.3
			c-0.4,0-0.7-0.2-0.7-0.6C114.2,38.9,114.2,38.7,114.3,38.6 M130.8,30.9l-4.5-10h-0.2l-4.4,10H130.8z"/>
		<path class="st0" d="M146.9,14.7c0-0.4,0.3-0.7,0.7-0.7h2.4c0.4,0,0.7,0.3,0.7,0.7l0,0v15.1c0,3.6,2.3,6.5,6.1,6.5
			s6.1-2.8,6.1-6.4V14.7c0-0.4,0.3-0.7,0.7-0.7l0,0h2.4c0.4,0,0.7,0.3,0.7,0.7V30c0,5.5-4.4,9.9-9.9,9.9s-9.9-4.4-9.9-9.9V14.7z"/>
		<path class="st0" d="M179.1,35.9c0.3-0.5,0.6-1,0.9-1.5c0.2-0.4,0.7-0.6,1.1-0.4c0.1,0,0.1,0.1,0.1,0.1c0.2,0.2,3,2.5,5.8,2.5
			c2.5,0,4.1-1.5,4.1-3.4c0-2.2-1.9-3.6-5.5-5.1s-6.6-3.5-6.6-7.7c0-2.8,2.2-6.7,8-6.7c2.4,0,4.8,0.8,6.8,2.2
			c0.4,0.3,0.5,0.8,0.2,1.2l0,0l-0.9,1.4c-0.2,0.4-0.7,0.6-1.1,0.4c-0.1,0-0.1-0.1-0.1-0.1c-0.3-0.1-2.8-1.8-4.9-1.8
			c-3.1,0-4.1,1.9-4.1,3.3c0,2.1,1.6,3.4,4.6,4.6c4.2,1.7,7.8,3.7,7.8,8.2c0,3.8-3.4,6.9-8.1,6.9c-2.9,0-5.7-1-7.8-2.9
			C179,36.8,178.8,36.5,179.1,35.9"/>
		<path class="st0" d="M207.6,14.7c0-0.4,0.3-0.7,0.7-0.7l0,0h14.6c0.4,0,0.7,0.3,0.7,0.7l0,0v2c0,0.4-0.3,0.7-0.7,0.7l0,0h-11.5
			v7.4h9.7c0.4,0,0.7,0.3,0.7,0.7v2c0,0.4-0.3,0.7-0.7,0.7l0,0h-9.7V36h11.5c0.4,0,0.7,0.3,0.7,0.7l0,0v2c0,0.4-0.3,0.7-0.7,0.7l0,0
			h-14.6c-0.4,0-0.7-0.3-0.7-0.7l0,0V14.7z"/>
	</g>
	<path class="st0" d="M242.5,3.3c3,0,5.4,2.4,5.4,5.4s-2.4,5.4-5.4,5.4s-5.4-2.4-5.4-5.4S239.5,3.3,242.5,3.3L242.5,3.3 M242.5,0
		c-4.8,0-8.7,3.9-8.7,8.7s3.9,8.7,8.7,8.7s8.7-3.9,8.7-8.7l0,0C251.2,3.9,247.3,0,242.5,0z"/>
</g>
</svg>
