<?xml version="1.0" encoding="utf-8"?>
<!-- Generator: Adobe Illustrator 26.5.0, SVG Export Plug-In . SVG Version: 6.00 Build 0)  -->
<svg version="1.1" id="Layer_1" xmlns="http://www.w3.org/2000/svg" xmlns:xlink="http://www.w3.org/1999/xlink" x="0px" y="0px"
	 viewBox="0 0 1736.5 613.2" style="enable-background:new 0 0 1736.5 613.2;" xml:space="preserve">
<style type="text/css">
	.st0{fill:#6A6A6A;}
</style>
<path class="st0" d="M1388.5,500c4.7-0.1,9.4,0.9,13.7,3c3.5,1.8,6.6,4.4,8.9,7.6c2.3,3.2,4,6.8,4.9,10.7c1,4,1.5,8.1,1.5,12.2
	c0.1,5.1-0.7,10.2-2.4,15c-1.4,4-3.7,7.5-6.8,10.5c-3,2.8-6.6,4.9-10.6,6.1c-4.4,1.4-9.1,2.1-13.7,2h-11.4v44.4h-21.3V500H1388.5z
	 M1382,550.3c3.8,0.2,7.6-1.3,10.3-4.1c2.9-3.6,4.3-8.1,3.9-12.7c0.3-4.5-0.9-9-3.4-12.8c-2.9-3.2-7.1-4.8-11.4-4.4h-8.9v33.9
	L1382,550.3z M1262.1,577.6c0,2.6,0.1,5.2,0.5,7.7c0.3,2.1,0.9,4.2,1.9,6.1c0.9,1.7,2.2,3.1,3.9,4.1c3.9,2,8.5,2,12.4,0
	c1.6-1,2.9-2.4,3.8-4.1c1-1.9,1.6-4,1.9-6.1c0.4-2.6,0.5-5.1,0.5-7.7V500h21.3v77.7c0.2,6-0.8,11.9-2.8,17.5c-1.6,4.2-4.2,8-7.6,11
	c-3.1,2.7-6.8,4.5-10.8,5.5c-4.1,0.9-8.3,1.4-12.6,1.4c-4.2,0-8.4-0.4-12.6-1.2c-4-0.8-7.7-2.5-10.8-5.1c-3.4-2.9-6-6.6-7.6-10.8
	c-2.1-5.9-3-12-2.8-18.3V500h21.3L1262.1,577.6z M1129.3,532.3c0.5-6.4,2.2-12.6,4.9-18.3c2.4-4.9,6.2-9,10.9-11.9
	c12.1-5.7,26.1-5.7,38.1,0c4.7,2.8,8.5,6.9,10.9,11.9c2.7,5.8,4.4,12,4.9,18.3c1.5,15.5,1.5,31.2,0,46.7c-0.5,6.3-2.2,12.5-4.9,18.3
	c-2.3,5-6.1,9.1-10.9,11.9c-12.1,5.4-26,5.4-38.1,0c-4.8-2.7-8.6-6.9-10.9-11.9c-2.7-5.7-4.4-11.9-4.9-18.3
	C1127.8,563.5,1127.8,547.8,1129.3,532.3 M1150,574.7c0.2,4.3,0.9,8.6,2.1,12.8c0.7,2.8,2.3,5.3,4.4,7.2c4.6,3,10.6,3,15.2,0
	c2.2-1.9,3.7-4.4,4.4-7.2c1.2-4.2,1.9-8.5,2.1-12.8c0.3-5.3,0.5-11.6,0.5-19.1s-0.2-13.8-0.5-19c-0.2-4.3-0.9-8.6-2.1-12.8
	c-0.7-2.8-2.3-5.3-4.4-7.3c-4.6-3-10.6-3-15.2,0c-2.2,1.9-3.7,4.4-4.4,7.3c-1.2,4.2-1.9,8.5-2.1,12.8c-0.3,5.2-0.5,11.5-0.5,19
	S1149.7,569.5,1150,574.7 M1048.8,548.6c4.3,0.3,8.5-1.1,11.9-3.8c2.8-2.5,4.1-6.8,4.1-12.9c0-10.3-4.9-15.5-14.8-15.4h-10v32.2
	L1048.8,548.6z M1057.9,500c7.6-0.5,15,2.1,20.7,7.1c4.9,4.7,7.4,12,7.4,21.6c0.3,6.4-1.2,12.7-4.3,18.3c-2.9,4.8-7.8,8.1-13.3,9.1
	v0.3c4.4,0.4,8.5,2.3,11.7,5.5c2.9,3.9,4.5,8.7,4.6,13.6c0.2,2.1,0.3,4.4,0.4,6.8s0.2,5.2,0.3,8.2c0.2,5.9,0.5,10.5,0.9,13.6
	c0.3,2.6,1.7,4.9,3.9,6.4v0.9h-23.1c-1.1-1.6-1.8-3.5-2.1-5.4c-0.3-2-0.5-4.1-0.6-6.3l-0.6-21.4c0.1-3.7-1-7.2-3-10.3
	c-2.4-2.7-5.9-4.1-9.5-3.7H1040v47.1h-21.3V500L1057.9,500z M953,526.6c-0.4-2.1-1.1-4.1-2.1-5.9c-0.9-1.8-2.2-3.3-3.8-4.5
	s-3.5-1.9-5.5-1.8c-5.1,0-8.8,3-11.1,9s-3.4,16-3.4,30c0,6.7,0.2,12.7,0.6,18.1c0.3,4.7,1,9.3,2.1,13.8c0.7,3.2,2.3,6.2,4.4,8.7
	c2,2,4.7,3.1,7.5,3c1.5,0,2.9-0.4,4.2-1.1c1.6-0.8,3.1-1.9,4.3-3.3c1.4-1.6,2.6-3.5,3.3-5.5c0.9-2.5,1.4-5.2,1.3-7.9v-11.4h-14
	v-16.5h34.4v60.1h-15.7v-10.3h-0.3c-2.1,3.9-5.3,7.1-9.2,9.3c-4,1.9-8.5,2.9-12.9,2.7c-5.5,0.2-11-1-15.9-3.6
	c-4.3-2.6-7.6-6.5-9.6-11.1c-2.5-5.9-4.1-12.1-4.7-18.5c-0.8-8.5-1.2-17-1.2-25.5c-0.1-8.3,0.5-16.5,1.7-24.7
	c0.9-6.2,2.9-12.3,5.9-17.8c2.6-4.5,6.3-8.2,10.9-10.7c5.3-2.6,11.1-3.8,17-3.6c11.6,0,20,3,25.1,9.1c5.1,6.1,7.7,14.8,7.7,26.1
	h-20.4c0-2.1-0.2-4.3-0.7-6.4 M743.8,499.9h21.3v93h37.6v18.4h-59L743.8,499.9z M702.1,518.3h-37.8v26.2h35.6v18.4h-35.6v30h39.2
	v18.4H643V499.9h59L702.1,518.3z M604.4,518.3h-23.1v93h-21.2v-92.9H537V500h67.4L604.4,518.3z M429.7,532.3
	c0.5-6.4,2.2-12.6,4.9-18.3c2.4-4.9,6.2-9,10.9-11.9c12.1-5.7,26.1-5.7,38.1,0c4.7,2.8,8.5,6.9,10.9,11.9c2.7,5.8,4.4,12,4.9,18.3
	c1.5,15.5,1.5,31.2,0,46.7c-0.5,6.3-2.2,12.5-4.9,18.3c-2.3,5-6.1,9.1-10.9,11.9c-12.1,5.4-26,5.4-38.1,0
	c-4.8-2.7-8.6-6.9-10.9-11.9c-2.7-5.7-4.3-11.9-4.9-18.2C428.2,563.6,428.2,548,429.7,532.3 M450.4,574.9c0.2,4.3,0.9,8.6,2.1,12.8
	c0.7,2.8,2.3,5.3,4.4,7.2c4.6,3,10.6,3,15.2,0c2.2-1.9,3.7-4.4,4.4-7.2c1.2-4.2,1.9-8.5,2.1-12.8c0.3-5.3,0.5-11.6,0.5-19.1
	s-0.2-13.8-0.5-19c-0.2-4.3-0.9-8.6-2.1-12.8c-0.7-2.8-2.3-5.3-4.4-7.3c-4.6-3-10.6-3-15.2,0c-2.2,1.9-3.7,4.4-4.4,7.3
	c-1.2,4.2-1.9,8.5-2.1,12.8c-0.3,5.2-0.5,11.5-0.5,19S450.1,569.6,450.4,574.9 M340.4,500v42.6h24.8V500h21.3v111.4h-21.3v-49.5
	h-24.8v49.5h-21.3V500H340.4z M215.5,254.2c0,28.9-17.2,43-52.6,43H85v-90h79.4C198.8,207.2,215.5,222.6,215.5,254.2 M201.5,106.6
	c0,31.8-23.3,38.5-42.8,38.5H85V69.6h67.7c33.2,0,48.7,11.9,48.7,37 M242.6,166.9c27.7-16.8,41.2-41.1,41.2-73.8
	c0-62.6-37.8-93-115.6-93H4.2C1.9,0,0,1.8,0,4.1v0.2v358.3c0,2.3,1.8,4.2,4.1,4.2H173c58.7,0,127.2-28.3,127.2-108.1
	c0-45-20.4-77.3-57.8-91.9 M492.8,262.1c0,37.4-17,55.5-52.1,55.5c-25.8,0-38.5-9.5-38.5-28.9s10.9-29,37.7-34
	c5.3-1,10.8-1.8,16.2-2.5c13.7-2,26.9-3.8,36.6-8.9L492.8,262.1z M570.3,362.5V169.9c0-51.7-38.7-78-115-78
	c-68.4,0-112.6,28.5-121.3,78.2c-0.2,1.1,0,2.2,0.7,3.2c0.6,0.9,1.6,1.5,2.7,1.7l68.2,11.6c1.1,0.2,2.3-0.1,3.2-0.8s1.5-1.8,1.6-3
	c2.3-23.7,15.5-34.8,41.8-34.8c25.2,0,40.8,5.2,40.8,31.1c1,19.1-21.1,22.7-57.3,26.9c-49.1,5.7-110.2,12.8-110.8,85.9
	c0,50.6,34.5,82,90.1,82c32.4,0,58-8.9,78.1-26.7v15.4c0,2.3,1.8,4.2,4.1,4.2h69.5c2.3,0,4.1-1.9,4.1-4.2 M756.6,164.2l23.6-65.1
	c0.4-1.1,0.3-2.4-0.2-3.4c-0.5-1.1-1.5-1.8-2.6-2.1c-4.2-1.1-8.5-1.7-12.8-1.7c-35.6,0-63.3,15.7-77.5,41.2v-29.9
	c0-2.3-1.8-4.2-4.1-4.2h-66c-2.3,0-4.1,1.9-4.1,4.2v259.5c0,2.3,1.8,4.2,4.1,4.2h69.4c2.3,0,4.1-1.9,4.1-4.2v-117
	c0-51.5,20.7-78.1,62.2-79c1.7-0.1,3.2-1.1,3.7-2.7 M1028.8,275.8c0.2-1.1,0-2.3-0.6-3.3c-0.6-0.9-1.6-1.6-2.7-1.8l-65-11.1
	c-1-0.2-2.1,0.1-3,0.7c-0.9,0.7-1.5,1.7-1.6,2.8c-3.2,22.1-14.6,48.4-51,48.4c-39.5,0-53.5-40.1-53.5-77.6c0-13.4,2.7-80,55-80
	c27.6,0,43.1,13.4,47.2,40.9c0.2,1.1,0.8,2.1,1.7,2.8c0.9,0.6,1.9,0.9,3,0.7L1025,187c2.3-0.4,3.8-2.6,3.4-4.8
	c-8.7-54.9-56.3-90.4-121.5-90.4c-80.8,0-133.1,56.8-133.1,144.8c0,80.8,54.1,137.2,131.6,137.2
	C970.9,373.9,1016,338.2,1028.8,275.8 M1236.3,200.8h-103.5c2.1-15.2,11.6-46.8,53.1-46.8c28.5,0,43.3,13.6,50.2,46.8 M1315,238.4
	v-0.8c0.2-42.5-13-81.1-37-107.6c-22.6-24.9-53.8-38-90.1-38c-77,0-133.1,59.3-133.1,141.2c0,84.2,53.3,140.7,133.1,140.7
	c57.5,0,97.1-26.1,117.6-77.5c0.5-1.2,0.4-2.5-0.2-3.6s-1.7-1.9-3-2.1l-57.6-9.9c-1.9-0.3-3.8,0.8-4.5,2.6
	c-5.5,13.9-25.7,28.4-50,28.4c-36.4,0-54.8-18.3-57.7-57.3h166.8C1308,254.4,1315,247.2,1315,238.4 M1433.3,362.6V4.3
	c0-2.3-1.8-4.2-4.1-4.2h-74.1c-2.2,0.1-3.9,2-3.9,4.2v358.3c0,2.3,1.8,4.2,4.1,4.2h74.1c2.3,0,4.1-1.9,4.1-4.2 M1686.5,6.5
	c1.1-1.1,1.5-2.7,0.9-4.1c-0.5-1.4-1.9-2.4-3.4-2.4h-68.6c-1.2,0-2.3,0.7-3,1.7l-41.9,63.5c-0.8,1.2-0.8,2.6-0.2,3.9
	c0.6,1.2,1.9,2,3.2,2h43.3c0.9,0,1.8-0.3,2.5-1L1686.5,6.5z M1658.8,233.1c0,29.4-7.5,78.6-57.5,78.6s-57-49.2-57-78.6
	s7.4-79.1,57-79.1S1658.8,203.5,1658.8,233.1 M1736.4,233.1c0-85.9-53-141.2-135-141.2s-134.6,55.4-134.6,141.2
	s52.8,140.7,134.5,140.7S1736.5,318.6,1736.4,233.1"/>
</svg>
