<?xml version="1.0" encoding="UTF-8"?>
<svg xmlns="http://www.w3.org/2000/svg" xmlns:xlink="http://www.w3.org/1999/xlink" viewBox="0 0 258.36 271.65">
  <defs>
    <style>
      .cls-1 {
        fill: url(#linear-gradient-2);
      }

      .cls-2 {
        fill: #fff;
      }

      .cls-3 {
        fill: #c3ffed;
      }

      .cls-4 {
        isolation: isolate;
      }

      .cls-5 {
        fill: #184941;
      }

      .cls-6 {
        fill: url(#linear-gradient-5);
      }

      .cls-7 {
        fill: #74e0c0;
        mix-blend-mode: multiply;
      }

      .cls-8 {
        mask: url(#mask);
      }

      .cls-9 {
        fill: url(#linear-gradient-3);
      }

      .cls-10 {
        fill: url(#linear-gradient);
      }

      .cls-11 {
        fill: url(#linear-gradient-4);
      }

      .cls-12 {
        fill: #0c9679;
      }
    </style>
    <linearGradient id="linear-gradient" x1="44.29" y1="35.8" x2="217.16" y2="208.68" gradientUnits="userSpaceOnUse">
      <stop offset="0" stop-color="#ebfff9"/>
      <stop offset="1" stop-color="#74e0c0"/>
    </linearGradient>
    <linearGradient id="linear-gradient-2" x1="0" y1="66.11" x2="237.35" y2="66.11" gradientUnits="userSpaceOnUse">
      <stop offset=".2" stop-color="#fff"/>
      <stop offset=".64" stop-color="#f6fffc"/>
      <stop offset="1" stop-color="#ebfff9"/>
    </linearGradient>
    <linearGradient id="linear-gradient-3" x1="203.54" y1="170.5" x2="245.62" y2="97.6" gradientUnits="userSpaceOnUse">
      <stop offset=".1" stop-color="#0c9679" stop-opacity=".1"/>
      <stop offset=".9" stop-color="#0c9679"/>
    </linearGradient>
    <linearGradient id="linear-gradient-4" x1="298.27" y1="330.39" x2="298.27" y2="301.82" gradientTransform="translate(517.16 -333.24) rotate(88.18) scale(1 1.28) skewX(41.09)" gradientUnits="userSpaceOnUse">
      <stop offset=".15" stop-color="#0c9679" stop-opacity="0"/>
      <stop offset=".29" stop-color="#0d9a7b" stop-opacity=".04"/>
      <stop offset=".52" stop-color="#12a883" stop-opacity=".16"/>
      <stop offset=".8" stop-color="#1abe8f" stop-opacity=".35"/>
      <stop offset="1" stop-color="#21d099" stop-opacity=".5"/>
    </linearGradient>
    <linearGradient id="linear-gradient-5" x1="148.97" y1="268.9" x2="102.25" y2="187.97" gradientUnits="userSpaceOnUse">
      <stop offset=".1" stop-color="#c3ffed"/>
      <stop offset=".25" stop-color="#93e3ce"/>
      <stop offset=".41" stop-color="#63c7b0"/>
      <stop offset=".57" stop-color="#3db298"/>
      <stop offset=".72" stop-color="#22a287"/>
      <stop offset=".85" stop-color="#11997c"/>
      <stop offset=".95" stop-color="#0c9679"/>
    </linearGradient>
    <mask id="mask" x="36.02" y="103.7" width="134.24" height="122.5" maskUnits="userSpaceOnUse">
      <path class="cls-2" d="M170.26,203.15l-134.24,23.05v-96.53c0-1.92,1.56-3.74,3.49-4.07l127.26-21.86c1.93-.33,3.49,.95,3.49,2.87v96.53Z"/>
    </mask>
  </defs>
  <g class="cls-4">
    <g id="Layer_2" data-name="Layer 2">
      <g id="Layer_1-2" data-name="Layer 1">
        <g>
          <circle class="cls-10" cx="130.72" cy="122.24" r="122.24"/>
          <path class="cls-1" d="M119.54,104.2H0c3.15-17.25,17.44-30.28,34.61-30.28,2.53,0,4.99,.28,7.36,.82,2.8-18.88,15.82-33.15,31.46-33.15,17.68,0,32.02,18.25,32.02,40.78,0,3.8-.41,7.48-1.18,10.97,5.96,2.14,11.21,5.92,15.27,10.85Zm81.96-21.56c-2.52-14.8-11.62-25.75-22.46-25.75s-19.13,10.01-22.08,23.81c-5.14,1.05-9.64,4.03-12.85,8.21h93.24c-1.81-1.74-13-12.18-26.99-9.66-3.55,.64-6.51,1.97-8.85,3.39ZM101.31,41.6h51.61c-2.31-7.81-10.29-13.57-19.77-13.57-7.87,0-14.7,3.96-18.12,9.78-.9-.31-3.88-1.23-7.48-.28-3.75,1-5.7,3.38-6.24,4.07Z"/>
          <g>
            <path class="cls-12" d="M235.79,121.23l-9.01-2.62c-1.96-.56-1.73-3.91,.31-4.62l14.3-4.91-5.59,12.15Z"/>
            <path class="cls-9" d="M258.29,106.89l-6.26,29.81c-.51,2.42-3.36,2.84-3.94,.57l-2.65-10.36-27.59,34.29c-.82,1.03-1.95,1.58-3.09,1.58-.51,0-1.02-.11-1.51-.33-1.58-.73-2.6-2.54-2.57-4.55l.42-23.84-20.82,25.98c-1.14,1.42-3.02,1.51-4.21,.22l-1.72-1.89c-1.19-1.3-1.23-3.51-.09-4.92l28.22-35.22c1.19-1.49,3.02-1.98,4.61-1.25,1.59,.73,2.61,2.53,2.57,4.55l-.42,23.87,20.24-25.16-9.01-2.62c-1.96-.56-1.73-3.91,.31-4.62l25.15-8.72c1.47-.51,2.72,.89,2.36,2.63Z"/>
            <path class="cls-2" d="M254.03,102.63l-6.26,29.81c-.51,2.42-3.36,2.84-3.94,.57l-2.65-10.36-27.59,34.29c-.82,1.03-1.95,1.58-3.09,1.58-.51,0-1.02-.11-1.51-.33-1.58-.73-2.6-2.54-2.57-4.55l.42-23.84-20.82,25.98c-1.14,1.42-3.02,1.51-4.21,.22l-1.72-1.89c-1.19-1.3-1.23-3.51-.09-4.92l28.22-35.22c1.19-1.49,3.02-1.98,4.61-1.25,1.59,.73,2.61,2.53,2.57,4.55l-.42,23.87,20.24-25.16-9.01-2.62c-1.96-.56-1.73-3.91,.31-4.62l25.15-8.72c1.47-.51,2.72,.89,2.36,2.63Z"/>
          </g>
          <g>
            <ellipse class="cls-11" cx="130.59" cy="253.43" rx="18.1" ry="86.66" transform="translate(-126 377.69) rotate(-88.58)"/>
            <g>
              <path class="cls-3" d="M39.26,129.68c0-.31,.4-.8,.79-.87l126.96-21.8v93.41s-127.75,21.94-127.75,21.94v-92.68Z"/>
              <path d="M163.77,110.85v86.83l-121.26,20.82v-86.83l121.26-20.82m3.6-7.15c-.19,0-.39,.02-.6,.05l-127.26,21.86c-1.93,.33-3.49,2.15-3.49,4.07v96.53l134.24-23.05V106.62c0-1.71-1.25-2.92-2.89-2.92h0Z"/>
            </g>
            <path d="M38.78,234.13l38.43,23.52c2.41,1.48,5.29,2.03,8.08,1.55l127.5-21.9c1.39-.24,2.41-1.44,2.41-2.85v-3.8l-44.95-27.51-134.24,23.05v3.01c0,2.01,1.05,3.87,2.77,4.92Z"/>
            <path class="cls-6" d="M215.21,230.66l-132.08,22.68c-1.4,.24-2.83-.04-4.04-.77l-43.07-26.36,134.24-23.05,44.95,27.51Z"/>
            <g class="cls-8">
              <path class="cls-7" d="M140.19,199.36l-78.36,13.38c-.71,.12-1.36-.42-1.36-1.14V79.35c0-.56,.41-1.04,.97-1.14l78.36-13.38c.71-.12,1.36,.42,1.36,1.14V198.22c0,.56-.41,1.04-.97,1.14Z"/>
            </g>
            <image width="590" height="892" transform="translate(70.24 65.29) rotate(-9.69) scale(.15 .16) skewX(-10.37)" xlink:href="../Sin título.png"/>
            <path class="cls-5" d="M187.39,221.8l-112.75,19.36c-.14,.02-.28,0-.4-.08l-19.67-12.04c-.46-.28-.32-.97,.21-1.06l112.74-19.37c.14-.02,.28,0,.4,.08l19.67,12.04c.46,.28,.32,.97-.21,1.06Z"/>
          </g>
        </g>
      </g>
    </g>
  </g>
</svg>