<?xml version="1.0" encoding="UTF-8"?>
<svg xmlns="http://www.w3.org/2000/svg" xmlns:xlink="http://www.w3.org/1999/xlink" viewBox="0 0 254.35 254.35">
  <defs>
    <style>
      .cls-1 {
        fill: url(#linear-gradient-3);
        mix-blend-mode: multiply;
      }

      .cls-2 {
        fill: url(#linear-gradient-2);
      }

      .cls-3 {
        fill: #fff;
      }

      .cls-4 {
        fill: url(#linear-gradient-6);
      }

      .cls-5 {
        isolation: isolate;
      }

      .cls-6 {
        fill: url(#linear-gradient-5);
      }

      .cls-7 {
        fill: #0c9679;
        mix-blend-mode: darken;
      }

      .cls-8 {
        mask: url(#mask);
      }

      .cls-9 {
        fill: url(#linear-gradient);
      }

      .cls-10 {
        fill: url(#linear-gradient-4);
      }
    </style>
    <linearGradient id="linear-gradient" x1="127.18" y1="254.35" x2="127.18" y2="0" gradientUnits="userSpaceOnUse">
      <stop offset="0" stop-color="#c3ffed"/>
      <stop offset=".14" stop-color="#b0f4e1"/>
      <stop offset=".41" stop-color="#80d8c2"/>
      <stop offset=".8" stop-color="#33ac92"/>
      <stop offset=".99" stop-color="#0c9679"/>
    </linearGradient>
    <linearGradient id="linear-gradient-2" x1="63.75" y1="143.12" x2="190.4" y2="132.04" gradientUnits="userSpaceOnUse">
      <stop offset="0" stop-color="#c3ffed"/>
      <stop offset=".14" stop-color="#b0f4e1"/>
      <stop offset=".41" stop-color="#80d8c2"/>
      <stop offset=".8" stop-color="#33ac92"/>
      <stop offset=".99" stop-color="#0c9679"/>
    </linearGradient>
    <linearGradient id="linear-gradient-3" x1="127.18" y1="242.79" x2="127.18" y2="212.99" gradientUnits="userSpaceOnUse">
      <stop offset=".15" stop-color="#0c9679" stop-opacity="0"/>
      <stop offset=".33" stop-color="#0c9679" stop-opacity=".06"/>
      <stop offset=".62" stop-color="#0c9679" stop-opacity=".22"/>
      <stop offset=".98" stop-color="#0c9679" stop-opacity=".48"/>
      <stop offset="1" stop-color="#0c9679" stop-opacity=".5"/>
    </linearGradient>
    <linearGradient id="linear-gradient-4" x1="17.25" y1="193.62" x2="237.11" y2="193.62" gradientUnits="userSpaceOnUse">
      <stop offset="0" stop-color="#000"/>
      <stop offset=".85" stop-color="#000"/>
    </linearGradient>
    <linearGradient id="linear-gradient-5" x1="98.2" y1="264.18" x2="155.09" y2="165.64" gradientUnits="userSpaceOnUse">
      <stop offset="0" stop-color="#74e0c0"/>
      <stop offset=".1" stop-color="#71dbbc"/>
      <stop offset=".2" stop-color="#6bcfb1"/>
      <stop offset=".3" stop-color="#60ba9f"/>
      <stop offset=".4" stop-color="#519d87"/>
      <stop offset=".51" stop-color="#3e7866"/>
      <stop offset=".61" stop-color="#264a3f"/>
      <stop offset=".71" stop-color="#0a1411"/>
      <stop offset=".75" stop-color="#000"/>
    </linearGradient>
    <linearGradient id="linear-gradient-6" x1="53.24" y1="187.68" x2="201.11" y2="187.68" gradientUnits="userSpaceOnUse">
      <stop offset="0" stop-color="#74e0c0"/>
      <stop offset=".22" stop-color="#61d2b3"/>
      <stop offset=".67" stop-color="#31b092"/>
      <stop offset=".99" stop-color="#0c9679"/>
    </linearGradient>
    <mask id="mask" x="62.94" y="100.66" width="128.47" height="73.59" maskUnits="userSpaceOnUse">
      <path class="cls-3" d="M191.41,174.25H62.94v-63.59c0-5.52,4.48-10,10-10h108.47c5.52,0,10,4.48,10,10v63.59Z"/>
    </mask>
  </defs>
  <g class="cls-5">
    <g id="Layer_2" data-name="Layer 2">
      <g id="Layer_1-2" data-name="Layer 1">
        <g>
          <circle class="cls-9" cx="127.18" cy="127.18" r="127.18"/>
          <g>
            <g>
              <path class="cls-2" d="M66.19,171.01V106.56c0-1.46,1.19-2.66,2.66-2.66h116.67c1.46,0,2.66,1.19,2.66,2.66v64.44H66.19Z"/>
              <path d="M184.92,107.15v60.61H69.43v-60.61h115.49m.59-6.49H68.84c-3.26,0-5.9,2.64-5.9,5.9v67.69H191.41V106.56c0-3.26-2.64-5.9-5.9-5.9h0Z"/>
            </g>
            <rect class="cls-1" x="17.25" y="212.99" width="219.86" height="29.8"/>
            <path class="cls-10" d="M237.11,212.99H17.25c.18-.8,.61-1.54,1.28-2.09h.01s44.4-36.65,44.4-36.65H191.41l44.4,36.64h.01c.67,.56,1.1,1.31,1.28,2.1Z"/>
            <path class="cls-6" d="M236.63,215.81c-1.29,2.1-3.21,3.83-5.45,5.05-2.24,1.21-4.8,1.9-7.36,1.9H30.53c-5.13,0-10.23-2.75-12.81-6.95-.38-.62-.56-1.31-.56-1.99,0-.28,.03-.55,.09-.82H237.11c.2,.94,.06,1.95-.48,2.82Z"/>
            <polygon class="cls-4" points="201.11 196.22 53.24 196.22 73.94 179.14 180.42 179.14 201.11 196.22"/>
            <g class="cls-8">
              <path class="cls-7" d="M162.75,92c-6.66,4.67-13.31,9.27-19.97,13.81-3.21,2.2-4.45,7.14-2.77,11.03,4.1,9.43,8.2,18.85,12.3,28.3,1.02,2.45,.16,4.61-1.16,5.66-.62,.5-1.34,.72-1.99,.62-.76-.11-1.48-.66-2.09-1.58-.18-.25-4.16-6.5-6.29-9.85-2.65-4.14-5.29-8.29-7.94-12.43-1.33-2.09-3.39-3.29-5.65-3.29-2.24,0-4.31,1.19-5.68,3.29-3.75,5.88-7.5,11.75-11.25,17.63-1.89,2.95-2.89,4.53-3.01,4.69-.61,.91-1.29,1.43-2.02,1.54-.93,.14-1.73-.39-2.03-.62-1.31-1.05-2.17-3.21-1.17-5.64,4.1-9.45,8.2-18.88,12.29-28.3,1.72-3.89,.49-8.84-2.75-11.06-6.64-4.54-13.29-9.14-19.93-13.81-2.05-1.5-2.06-4-1.44-5.67,.43-1.16,1.38-2.39,2.73-2.35,.36,0,.75,.1,1.09,.24,8.58,3.95,17.16,7.78,25.75,11.54,4.79,2.07,10.06,2.06,14.83,0,8.56-3.75,17.13-7.57,25.69-11.51,.73-.31,1.39-.35,1.99-.1,.8,.31,1.49,1.13,1.9,2.22,.6,1.67,.59,4.14-1.43,5.64Zm-35.44-29.9c-5.71,0-10.36,4.75-10.36,10.65,0,5.9,4.65,10.74,10.36,10.74,5.72,0,10.38-4.84,10.38-10.74,0-5.9-4.66-10.65-10.38-10.65Zm76.36,47.18c-.05-1.63-.57-2.85-1.2-2.83-3.99,.31-7.98,.6-11.97,.88-2.6,.18-5.04-1.36-6.93-4.26-3.65-5.66-7.31-11.3-10.96-16.94-.2-.29-.45-.54-.68-.7-1.06-.73-2.07,.38-2.36,.73-.93,1.15-1.67,3.27-.7,5.48,2.68,5.85,5.36,11.71,8.04,17.59,1.18,2.59,.7,6.7-1.07,9.35-5.55,8.4-11.1,16.72-16.64,24.99-1.97,3.01-2.11,6.26-1.41,8.01,.19,.46,.63,1.25,1.39,1.35,.74,.1,1.63-.48,2.6-1.67,.19-.21,2.65-3.34,5.03-6.37,3.57-4.54,7.13-9.11,10.7-13.7,.89-1.13,1.88-1.74,2.83-1.75,.34,0,.67,.06,.99,.2,1.16,.51,1.92,1.92,2.16,3.96,.48,4.1,.96,8.2,1.44,12.3,.69,5.89,1.39,11.95,1.44,12.25,.25,1.92,.84,2.25,1.02,2.31,.38,.13,.84-.27,1.02-.45,1.02-1.01,2.03-3.38,1.96-6.4-.28-9.33-.57-18.66-.85-27.99-.09-3.38,1.22-6.71,2.98-7.59,3.34-1.65,6.67-3.31,10-4.99,.89-.5,1.24-2.25,1.2-3.77Zm-10.76-27.14c-2.5-1.99-5.51-.35-6.66,3.86-1.19,4.39,.13,9.68,2.9,11.56,2.68,1.81,5.56-.36,6.49-4.63,.89-4.11-.31-8.87-2.74-10.79Zm29.68,46.92c-2.2,.05-4.39,.1-6.59,.14-1.57,.02-2.88-1.29-3.69-3.68-1.52-4.56-3.04-9.11-4.56-13.64-.08-.21-.19-.41-.29-.54-.14-.16-.26-.16-.29-.16-.21,.01-.52,.25-.8,.6-.71,.92-1.28,2.58-.96,4.24,.96,4.67,1.93,9.35,2.89,14.04,.42,2.04-.27,5.21-1.55,7.21-4.14,6.49-8.28,12.92-12.42,19.3-1.52,2.38-1.94,4.95-1.7,6.32,.1,.5,.3,.85,.5,.9,.09,.02,.59,.05,1.59-1.28,.14-.17,2.02-2.73,3.67-5.01,2.55-3.5,5.11-7.02,7.66-10.55,.78-1.06,1.45-1.36,1.94-1.36,.33,0,.58,.12,.72,.22,.86,.58,.98,2.06,.93,3.19-.13,3.14-.26,6.28-.39,9.42-.26,6.02-.39,9.15-.39,9.33-.04,1.13,.14,1.49,.21,1.57,.05-.02,.18-.09,.36-.3,.68-.78,1.47-2.59,1.73-4.87,.75-7.06,1.5-14.13,2.25-21.22,.25-2.26,1.22-5.01,2.45-5.72,1.98-1.13,3.96-2.27,5.95-3.41,.41-.27,.81-1.41,.95-2.72,.12-1.18-.05-1.87-.17-2Zm-2.86-18.99c-1.18-1.69-3-.63-4.05,2.52-1.1,3.29-.87,7.41,.49,8.99,1.3,1.51,3.1,.02,4.02-3.16,.88-3.05,.68-6.72-.46-8.35Zm-167.59,2.99c3.33,1.68,6.67,3.35,10,4.99,1.77,.88,3.08,4.21,2.98,7.59-.28,9.33-.57,18.66-.85,27.99-.07,3.02,.93,5.39,1.96,6.4,.18,.17,.64,.58,1.02,.45,.17-.06,.76-.39,1.02-2.31,.04-.29,.75-6.36,1.44-12.25,.48-4.1,.96-8.2,1.44-12.3,.23-2.04,1-3.44,2.16-3.96,.32-.14,.65-.21,.99-.2,.95,.02,1.94,.63,2.83,1.75,3.57,4.59,7.13,9.16,10.7,13.7,2.38,3.04,4.84,6.17,5.03,6.37,.97,1.19,1.86,1.77,2.6,1.67,.75-.1,1.2-.89,1.39-1.35,.71-1.75,.56-5-1.41-8.01-5.55-8.27-11.1-16.59-16.64-24.99-1.77-2.65-2.24-6.77-1.07-9.35,2.68-5.88,5.36-11.74,8.04-17.59,.97-2.21,.23-4.33-.7-5.48-.29-.36-1.3-1.46-2.36-.73-.24,.16-.48,.41-.68,.7-3.65,5.63-7.31,11.27-10.96,16.94-1.89,2.9-4.33,4.44-6.93,4.26-3.99-.28-7.98-.57-11.97-.88-.63-.02-1.15,1.2-1.2,2.83-.05,1.52,.3,3.28,1.2,3.77Zm6.83-20.13c.93,4.27,3.82,6.44,6.49,4.63,2.77-1.88,4.1-7.17,2.9-11.56-1.15-4.21-4.15-5.85-6.66-3.86-2.43,1.93-3.63,6.69-2.74,10.79Zm-27.11,38.12c.14,1.31,.54,2.45,.95,2.72,1.98,1.14,3.96,2.28,5.95,3.41,1.22,.71,2.2,3.46,2.45,5.72,.75,7.08,1.5,14.16,2.25,21.22,.26,2.29,1.06,4.09,1.73,4.87,.19,.22,.32,.29,.36,.3,.06-.08,.24-.44,.21-1.57,0-.18-.13-3.32-.39-9.33-.13-3.14-.26-6.28-.39-9.42-.05-1.14,.07-2.61,.93-3.19,.14-.1,.39-.23,.72-.22,.49,0,1.16,.3,1.94,1.36,2.55,3.54,5.11,7.05,7.66,10.55,1.66,2.28,3.54,4.84,3.67,5.01,1,1.34,1.5,1.3,1.59,1.28,.21-.05,.4-.4,.5-.9,.24-1.38-.18-3.94-1.7-6.32-4.14-6.38-8.28-12.81-12.42-19.3-1.29-2-1.97-5.17-1.55-7.21,.96-4.69,1.93-9.37,2.89-14.04,.32-1.66-.25-3.32-.96-4.24-.27-.35-.59-.59-.8-.6-.03,0-.15,0-.29,.16-.11,.13-.21,.32-.29,.54-1.52,4.53-3.04,9.08-4.56,13.64-.81,2.39-2.12,3.7-3.69,3.68-2.2-.04-4.39-.09-6.59-.14-.12,.13-.29,.81-.17,2Zm2.57-12.64c.92,3.18,2.71,4.67,4.02,3.16,1.36-1.58,1.58-5.7,.49-8.99-1.05-3.15-2.87-4.2-4.05-2.52-1.14,1.62-1.34,5.3-.46,8.35Z"/>
            </g>
          </g>
          <path class="cls-3" d="M170.86,66.7c-8.18,5.74-16.36,11.39-24.54,16.98-3.94,2.7-5.47,8.77-3.41,13.55,5.04,11.58,10.08,23.17,15.12,34.78,1.26,3.01,.19,5.67-1.42,6.96-.77,.61-1.64,.88-2.45,.76-.93-.14-1.82-.81-2.57-1.94-.22-.31-5.11-7.98-7.73-12.1-3.25-5.09-6.51-10.18-9.76-15.28-1.63-2.57-4.16-4.04-6.95-4.04-2.76,0-5.3,1.47-6.98,4.04-4.61,7.22-9.21,14.44-13.82,21.67-2.32,3.63-3.56,5.57-3.69,5.76-.75,1.11-1.59,1.75-2.48,1.89-1.14,.18-2.13-.47-2.5-.76-1.61-1.3-2.67-3.94-1.44-6.93,5.04-11.61,10.07-23.2,15.11-34.78,2.12-4.78,.6-10.86-3.38-13.59-8.17-5.58-16.33-11.23-24.5-16.97-2.52-1.85-2.53-4.91-1.77-6.96,.53-1.43,1.69-2.93,3.36-2.89,.44,.01,.92,.12,1.34,.29,10.55,4.85,21.09,9.56,31.64,14.18,5.88,2.54,12.36,2.53,18.23,0,10.52-4.6,21.05-9.31,31.57-14.15,.89-.38,1.71-.43,2.45-.13,.98,.38,1.83,1.38,2.34,2.73,.74,2.05,.73,5.09-1.76,6.93ZM127.31,29.96c-7.02,0-12.73,5.83-12.73,13.09,0,7.25,5.71,13.2,12.73,13.2,7.03,0,12.76-5.95,12.76-13.2,0-7.25-5.72-13.09-12.76-13.09Zm93.84,57.98c-.06-2-.7-3.5-1.48-3.47-4.9,.38-9.81,.74-14.72,1.08-3.19,.22-6.19-1.67-8.52-5.24-4.49-6.96-8.98-13.89-13.47-20.81-.25-.35-.55-.66-.84-.86-1.3-.89-2.55,.46-2.9,.9-1.14,1.41-2.05,4.02-.86,6.74,3.29,7.19,6.59,14.39,9.88,21.61,1.45,3.18,.86,8.23-1.31,11.49-6.82,10.33-13.64,20.55-20.45,30.71-2.42,3.7-2.6,7.69-1.73,9.84,.24,.56,.78,1.54,1.7,1.66,.9,.12,2.01-.59,3.19-2.05,.23-.26,3.26-4.1,6.18-7.83,4.38-5.58,8.76-11.19,13.15-16.84,1.09-1.39,2.31-2.13,3.48-2.16,.42,0,.83,.08,1.22,.25,1.42,.63,2.37,2.36,2.65,4.86,.59,5.03,1.18,10.07,1.77,15.12,.85,7.23,1.71,14.69,1.76,15.05,.31,2.36,1.04,2.77,1.25,2.84,.47,.16,1.03-.33,1.26-.55,1.26-1.24,2.49-4.16,2.4-7.87-.35-11.47-.7-22.94-1.05-34.4-.12-4.15,1.5-8.24,3.67-9.32,4.1-2.02,8.2-4.07,12.29-6.13,1.1-.61,1.53-2.77,1.47-4.64Zm-13.22-33.36c-3.08-2.44-6.77-.43-8.18,4.75-1.47,5.39,.16,11.89,3.57,14.2,3.29,2.23,6.84-.44,7.98-5.68,1.1-5.05-.38-10.89-3.36-13.26Zm36.47,57.65c-2.7,.06-5.4,.12-8.1,.17-1.93,.02-3.54-1.59-4.54-4.53-1.87-5.61-3.74-11.19-5.6-16.76-.1-.26-.23-.5-.36-.66-.18-.2-.32-.2-.36-.19-.26,.02-.64,.31-.98,.74-.87,1.13-1.57,3.17-1.17,5.21,1.18,5.74,2.37,11.49,3.55,17.25,.51,2.51-.33,6.4-1.91,8.86-5.09,7.98-10.18,15.88-15.27,23.72-1.87,2.93-2.39,6.08-2.09,7.77,.12,.61,.37,1.04,.62,1.1,.11,.02,.72,.06,1.95-1.58,.17-.21,2.48-3.36,4.52-6.16,3.14-4.3,6.28-8.62,9.41-12.97,.96-1.31,1.78-1.67,2.38-1.68,.41,0,.71,.15,.89,.27,1.06,.71,1.2,2.53,1.14,3.92-.16,3.86-.32,7.72-.48,11.57-.31,7.39-.47,11.25-.47,11.47-.05,1.39,.18,1.83,.25,1.93,.06-.02,.22-.11,.45-.37,.83-.96,1.81-3.18,2.13-5.99,.92-8.68,1.84-17.37,2.76-26.07,.3-2.78,1.5-6.16,3.01-7.03,2.44-1.39,4.87-2.79,7.31-4.19,.51-.33,1-1.73,1.17-3.34,.15-1.46-.06-2.29-.21-2.45Zm-3.51-23.34c-1.45-2.07-3.69-.78-4.97,3.09-1.35,4.05-1.07,9.11,.6,11.05,1.6,1.86,3.81,.02,4.94-3.88,1.08-3.75,.84-8.26-.56-10.26Zm-205.95,3.68c4.1,2.07,8.2,4.11,12.29,6.13,2.17,1.08,3.78,5.17,3.67,9.32-.35,11.46-.7,22.93-1.05,34.4-.09,3.71,1.15,6.62,2.4,7.87,.22,.21,.78,.71,1.26,.55,.21-.07,.94-.48,1.25-2.84,.05-.36,.92-7.82,1.76-15.05,.59-5.04,1.18-10.08,1.77-15.12,.29-2.51,1.23-4.23,2.65-4.86,.39-.18,.8-.26,1.22-.25,1.17,.02,2.39,.77,3.48,2.16,4.38,5.65,8.76,11.26,13.15,16.84,2.92,3.73,5.95,7.58,6.18,7.83,1.19,1.46,2.29,2.17,3.19,2.05,.93-.12,1.47-1.1,1.7-1.66,.87-2.15,.69-6.15-1.73-9.84-6.82-10.16-13.63-20.39-20.45-30.71-2.18-3.26-2.76-8.32-1.31-11.49,3.29-7.22,6.58-14.42,9.88-21.61,1.19-2.72,.28-5.33-.86-6.74-.35-.44-1.6-1.79-2.9-.9-.29,.2-.59,.51-.84,.86-4.49,6.92-8.98,13.85-13.47,20.81-2.32,3.57-5.33,5.45-8.52,5.24-4.91-.34-9.81-.7-14.72-1.08-.78-.03-1.41,1.47-1.48,3.47-.06,1.87,.37,4.03,1.47,4.64Zm8.39-24.73c1.14,5.25,4.69,7.91,7.98,5.68,3.4-2.31,5.03-8.81,3.57-14.2-1.41-5.17-5.1-7.19-8.18-4.75-2.98,2.37-4.46,8.22-3.36,13.26ZM10.01,114.69c.17,1.61,.66,3.01,1.17,3.34,2.44,1.41,4.87,2.8,7.31,4.19,1.5,.87,2.71,4.25,3.01,7.03,.92,8.71,1.84,17.4,2.76,26.07,.32,2.81,1.3,5.03,2.13,5.99,.23,.27,.39,.35,.45,.37,.08-.1,.3-.54,.25-1.93,0-.22-.16-4.08-.47-11.47-.16-3.86-.32-7.71-.48-11.57-.06-1.4,.09-3.21,1.14-3.92,.18-.13,.48-.28,.89-.27,.6,.01,1.43,.37,2.38,1.68,3.14,4.35,6.28,8.67,9.41,12.97,2.04,2.8,4.34,5.95,4.52,6.16,1.23,1.64,1.84,1.6,1.95,1.58,.25-.06,.5-.49,.62-1.1,.3-1.69-.22-4.84-2.09-7.77-5.09-7.84-10.18-15.74-15.27-23.72-1.58-2.46-2.42-6.36-1.91-8.86,1.18-5.76,2.37-11.51,3.55-17.25,.39-2.04-.3-4.08-1.17-5.21-.34-.43-.72-.72-.98-.74-.04,0-.18,0-.36,.19-.13,.16-.26,.4-.36,.66-1.87,5.57-3.74,11.16-5.6,16.76-1,2.94-2.61,4.55-4.54,4.53-2.7-.05-5.4-.11-8.1-.17-.15,.16-.36,1-.21,2.45Zm3.16-15.54c1.13,3.9,3.33,5.74,4.94,3.88,1.67-1.94,1.94-7,.6-11.05-1.29-3.87-3.52-5.16-4.97-3.09-1.4,1.99-1.64,6.51-.56,10.26Z"/>
          <g>
            <circle class="cls-3" cx="89.65" cy="34" r="2.27"/>
            <circle class="cls-3" cx="57.77" cy="33.2" r="1.48"/>
            <circle class="cls-3" cx="188.66" cy="34.68" r="1.48"/>
            <circle class="cls-3" cx="118.33" cy="11" r="1.48"/>
            <circle class="cls-3" cx="161.99" cy="23.78" r="2.27"/>
          </g>
        </g>
      </g>
    </g>
  </g>
</svg>