<svg xmlns="http://www.w3.org/2000/svg" width="27.232" height="34.717" viewBox="0 0 27.232 34.717">
  <g id="Data_User" data-name="Data User" transform="translate(-13.75 0.25)">
    <path id="Path_5037" data-name="Path 5037" d="M39.4,0H16.406A2.406,2.406,0,0,0,14,2.406V31.982a2.465,2.465,0,0,0,2.489,2.235H39.4a1.337,1.337,0,0,0,1.337-1.337V1.337A1.337,1.337,0,0,0,39.4,0Zm.8,1.337V28.6a.8.8,0,0,1-.8.8H17.208V.535H39.4a.8.8,0,0,1,.8.8ZM14.535,2.406A1.871,1.871,0,0,1,16.406.535h.267v28.87h-.267a2.406,2.406,0,0,0-1.855.871C14.535,30.3,14.535,31.618,14.535,2.406ZM40.2,32.88a.8.8,0,0,1-.8.8H16.489a1.873,1.873,0,0,1-1.518-3.055,1.847,1.847,0,0,1,1.436-.687c24.3,0,23.273.118,23.791-.267Z" transform="translate(0 0)" stroke="#000" stroke-width="0.5"/>
    <path id="Path_5038" data-name="Path 5038" d="M40.654,29.064A8.822,8.822,0,1,0,35,20.828,8.822,8.822,0,0,0,40.654,29.064Zm-2.013-1.786c1.575-6.1,8.784-6.1,10.361,0a8.255,8.255,0,0,1-10.361,0Zm5.181-14.737a8.288,8.288,0,0,1,5.638,14.342,6.305,6.305,0,0,0-4.149-4.518,3.475,3.475,0,1,0-2.978,0,6.294,6.294,0,0,0-4.149,4.523A8.291,8.291,0,0,1,43.822,12.541Zm0,9.623a2.941,2.941,0,1,1,2.941-2.941A2.941,2.941,0,0,1,43.822,22.164Z" transform="translate(-15.386 -8.798)" stroke="#000" stroke-width="0.5"/>
    <path id="Path_5039" data-name="Path 5039" d="M54.737,87H39.767a.267.267,0,0,0,0,.535h14.97a.267.267,0,1,0,0-.535Z" transform="translate(-18.683 -63.743)" stroke="#000" stroke-width="0.5"/>
    <path id="Path_5040" data-name="Path 5040" d="M54.737,99H39.767a.267.267,0,0,0,0,.535h14.97a.267.267,0,1,0,0-.535Z" transform="translate(-18.683 -72.535)" stroke="#000" stroke-width="0.5"/>
  </g>
</svg>
