<svg xmlns="http://www.w3.org/2000/svg" width="29.449" height="28.474" viewBox="0 0 29.449 28.474">
  <g id="Group_9146" data-name="Group 9146" transform="translate(-1154.264 -624.89)">
    <path id="Path_5103" data-name="Path 5103" d="M1154.264,645.8V626.589a2.066,2.066,0,0,1,2.163-1.7q12.564.015,25.129.008a2.644,2.644,0,0,1,.655.063,1.956,1.956,0,0,1,1.5,2.046q0,9.143,0,18.286a1.991,1.991,0,0,1-2.179,2.176h-9.592c.052.353.077.676.151.987a2.19,2.19,0,0,0,2.349,1.95c.287,0,.575,0,.862.007a1.5,1.5,0,0,1,1.448.981,1.469,1.469,0,0,1-1.476,1.961c-1.111.014-2.223,0-3.335,0q-4.557,0-9.114,0a1.726,1.726,0,0,1-1.088-.29,1.474,1.474,0,0,1,.9-2.656c.383-.016.767,0,1.15-.018a1.948,1.948,0,0,0,1.789-1.1,5.607,5.607,0,0,0,.359-1.113,5.371,5.371,0,0,0,.087-.713h-.4c-3.076,0-6.153.007-9.229-.01a2.838,2.838,0,0,1-1.051-.223A1.966,1.966,0,0,1,1154.264,645.8Zm26.49-3.28V627.862h-23.535v14.657Zm1.976,1.056h-27.486c0,.575,0,1.129,0,1.684,0,.884.349,1.231,1.238,1.231h25.011c.1,0,.192,0,.287,0a.967.967,0,0,0,.945-.938C1182.745,644.9,1182.73,644.248,1182.73,643.576Zm-26.506-1.039V627.642c0-.651.126-.781.764-.781H1181c.621,0,.753.134.753.763q0,7.276,0,14.552v.357h.98v-.3q0-7.592,0-15.184c0-.806-.365-1.168-1.182-1.168h-25.135c-.81,0-1.172.366-1.172,1.179q0,7.578,0,15.156v.322Zm14.739,4.947h-3.948a4.986,4.986,0,0,1-1,2.905h5.954A4.984,4.984,0,0,1,1170.962,647.484Zm-1.988,4.892h6.125a2.272,2.272,0,0,0,.344-.016.46.46,0,0,0,.4-.536c-.033-.271-.231-.426-.585-.427-.546,0-1.092.018-1.638.017q-5.377-.007-10.754-.02c-.5,0-.73.155-.735.487s.222.495.72.495Z"/>
    <path id="Path_5104" data-name="Path 5104" d="M1258.692,688.748c.406.4.764.745,1.115,1.1.328.329.329.56.008.885q-.605.614-1.22,1.22a.517.517,0,0,1-.844,0c-.36-.357-.713-.722-1.15-1.166-.164.2-.3.4-.465.565-.522.534-.87.441-1.086-.283-.107-.357-.222-.713-.312-1.074-.053-.213-.152-.277-.375-.277q-5.3.012-10.608.006c-.845,0-.915-.07-.915-.915q0-4.355,0-8.71c0-.538.141-.684.675-.684q6.684,0,13.367,0c.545,0,.686.148.686.705,0,2.137,0,4.274-.006,6.41,0,.2.045.307.258.36.426.106.846.24,1.266.372a.5.5,0,0,1,.227.918C1259.124,688.363,1258.921,688.537,1258.692,688.748Zm-2.124-2.262V682.87h-12.733v5.853h10.5c-.214-.722-.42-1.426-.632-2.127a.535.535,0,0,1,.726-.742C1255.141,686.068,1255.853,686.275,1256.569,686.486Zm0-6.066h-12.727v1.423h12.727Zm2.3,9.854c-.334-.33-.66-.651-.983-.975-.406-.407-.407-.667-.01-1.07.07-.07.135-.145.229-.246l-3.213-.948.952,3.216c.08-.074.123-.111.163-.151.517-.506.788-.507,1.3.006.288.29.57.587.861.888Z" transform="translate(-82.194 -50.59)"/>
    <path id="Path_5105" data-name="Path 5105" d="M1333.471,898.5c-.45,0-.9,0-1.349,0-.382,0-.611-.2-.6-.5s.224-.476.595-.477q1.363,0,2.726,0c.368,0,.587.185.59.481s-.219.492-.58.5C1334.389,898.5,1333.93,898.5,1333.471,898.5Z" transform="translate(-164.484 -252.989)"/>
    <path id="Path_5106" data-name="Path 5106" d="M1272.5,754.444c.613,0,1.225,0,1.838,0,.439,0,.6.168.607.612q.008.861,0,1.723c0,.432-.181.606-.617.607q-1.838.005-3.675,0c-.427,0-.608-.189-.611-.619q-.006-.861,0-1.723c0-.417.179-.6.594-.6C1271.252,754.44,1271.874,754.444,1272.5,754.444Zm-1.462,1v.947h2.9v-.947Z" transform="translate(-107.429 -120.22)"/>
  </g>
</svg>
