<svg xmlns="http://www.w3.org/2000/svg" width="33.336" height="34.396" viewBox="0 0 33.336 34.396">
  <g id="Folder_Data" data-name="Folder Data" transform="translate(-1.75 0.25)">
    <path id="Path_5031" data-name="Path 5031" d="M34.572,9H29.011V5.826h5.561a.265.265,0,0,0,.265-.265V3.178A3.178,3.178,0,0,0,31.659,0H10.474A3.178,3.178,0,0,0,7.3,3.178V9H4.913a.265.265,0,0,0-.265.265v4.237H2.265A.265.265,0,0,0,2,13.77V31.827A2.076,2.076,0,0,0,4.068,33.9h28.65a2.118,2.118,0,0,0,2.118-2.118V9.268A.265.265,0,0,0,34.572,9Zm-.265-5.826V5.3h-5.3V3.178a2.648,2.648,0,0,1,5.3,0ZM10.474.53H29.9a3.194,3.194,0,0,0-1.213,1.539c-.265.734-.2-.056-.2,14.072H11.673L9.9,13.609c-.111-.156-.045-.117-2.076-.117V3.178A2.648,2.648,0,0,1,10.474.53Zm-5.3,9H7.3v3.972H5.178ZM4.068,33.366A1.536,1.536,0,0,1,2.53,31.827V14.035h7.01l1.772,2.532c.124.18-1.046.117,19.283.117V31.777a2.118,2.118,0,0,0,.707,1.589Zm30.239-1.589a1.592,1.592,0,1,1-3.178-.164V16.418a.265.265,0,0,0-.265-.265H29.011V9.533h5.3Z" transform="translate(0 0)" stroke="#000" stroke-width="0.5"/>
    <path id="Path_5032" data-name="Path 5032" d="M39.355,70a6.355,6.355,0,1,0,6.355,6.355A6.355,6.355,0,0,0,39.355,70Zm0,12.181a5.826,5.826,0,1,1,5.826-5.826,5.826,5.826,0,0,1-5.826,5.826Z" transform="translate(-22.791 -51.463)" stroke="#000" stroke-width="0.5"/>
    <path id="Path_5033" data-name="Path 5033" d="M50.416,85.061,46.37,89.107l-1.928-1.928a.27.27,0,0,0-.381.381c2.285,2.285,2.15,2.2,2.309,2.2s-.212.323,4.428-4.316a.27.27,0,1,0-.381-.381Z" transform="translate(-30.865 -62.478)" stroke="#000" stroke-width="0.5"/>
    <path id="Path_5034" data-name="Path 5034" d="M35.265,16.53h14.3a.265.265,0,0,0,0-.53h-14.3a.265.265,0,1,0,0,.53Z" transform="translate(-24.261 -11.763)" stroke="#000" stroke-width="0.5"/>
    <path id="Path_5035" data-name="Path 5035" d="M35.265,28.53h14.3a.265.265,0,0,0,0-.53h-14.3a.265.265,0,0,0,0,.53Z" transform="translate(-24.261 -20.585)" stroke="#000" stroke-width="0.5"/>
    <path id="Path_5036" data-name="Path 5036" d="M35.265,40.53h14.3a.265.265,0,0,0,0-.53h-14.3a.265.265,0,0,0,0,.53Z" transform="translate(-24.261 -29.408)" stroke="#000" stroke-width="0.5"/>
  </g>
</svg>
