<svg xmlns="http://www.w3.org/2000/svg" width="25.378" height="26.18" viewBox="0 0 25.378 26.18">
  <g id="Folder_Data" data-name="Folder Data" transform="translate(-1.75 0.25)">
    <path id="Path_5031" data-name="Path 5031" d="M26.677,6.821H22.464V4.414h4.213a.2.2,0,0,0,.2-.2V2.408A2.408,2.408,0,0,0,24.47,0H8.42A2.408,2.408,0,0,0,6.013,2.408V6.821H4.207a.2.2,0,0,0-.2.2v3.21H2.2a.2.2,0,0,0-.2.2V24.114A1.573,1.573,0,0,0,3.567,25.68H25.273a1.605,1.605,0,0,0,1.605-1.605V7.022A.2.2,0,0,0,26.677,6.821Zm-.2-4.414V4.013H22.464V2.408a2.006,2.006,0,1,1,4.013,0ZM8.42.4H23.134a2.42,2.42,0,0,0-.919,1.166c-.2.556-.152-.042-.152,10.661H9.329L7.987,10.31c-.084-.118-.034-.088-1.573-.088V2.408A2.006,2.006,0,0,1,8.42.4ZM4.408,7.223H6.013v3.009H4.408ZM3.567,25.279A1.164,1.164,0,0,1,2.4,24.114V10.633H7.712l1.342,1.918c.094.136-.792.088,14.61.088V24.075a1.605,1.605,0,0,0,.536,1.2Zm22.91-1.2a1.206,1.206,0,1,1-2.408-.124V12.439a.2.2,0,0,0-.2-.2h-1.4V7.223h4.013Z" stroke="#000" stroke-width="0.5"/>
    <path id="Path_5032" data-name="Path 5032" d="M37.815,70a4.815,4.815,0,1,0,4.815,4.815A4.815,4.815,0,0,0,37.815,70Zm0,9.229a4.414,4.414,0,1,1,4.414-4.414,4.414,4.414,0,0,1-4.414,4.414Z" transform="translate(-24.781 -55.956)" stroke="#000" stroke-width="0.5"/>
    <path id="Path_5033" data-name="Path 5033" d="M48.857,85.042l-3.066,3.066-1.461-1.461a.2.2,0,1,0-.289.289c1.731,1.731,1.629,1.665,1.749,1.665s-.16.245,3.355-3.27a.2.2,0,0,0-.289-.289Z" transform="translate(-33.559 -67.932)" stroke="#000" stroke-width="0.5"/>
    <path id="Path_5034" data-name="Path 5034" d="M35.2,16.4H46.035a.2.2,0,0,0,0-.4H35.2a.2.2,0,0,0,0,.4Z" transform="translate(-26.379 -12.79)" stroke="#000" stroke-width="0.5"/>
    <path id="Path_5035" data-name="Path 5035" d="M35.2,28.4H46.035a.2.2,0,0,0,0-.4H35.2a.2.2,0,0,0,0,.4Z" transform="translate(-26.379 -22.382)" stroke="#000" stroke-width="0.5"/>
    <path id="Path_5036" data-name="Path 5036" d="M35.2,40.4H46.035a.2.2,0,0,0,0-.4H35.2a.2.2,0,0,0,0,.4Z" transform="translate(-26.379 -31.975)" stroke="#000" stroke-width="0.5"/>
  </g>
</svg>
