<svg xmlns="http://www.w3.org/2000/svg" width="22.516" height="31.789" viewBox="0 0 22.516 31.789">
  <g id="Group_9120" data-name="Group 9120" transform="translate(-1721.728 -533.095)">
    <path id="Path_5107" data-name="Path 5107" d="M1732.157,554.088v-2.594c0-2.081-.005-4.162,0-6.243a1.93,1.93,0,0,1,2.229-1.93,2.074,2.074,0,0,1,1.61,1.966q0,1.921,0,3.842v.367a1.914,1.914,0,0,1,2.174.442V537.511h-15.328V557.8h.385c1.475,0,2.95,0,4.425,0a.581.581,0,0,1,.625.375c.14.377-.147.722-.609.724-1.475,0-2.95,0-4.425,0h-.376a16.182,16.182,0,0,0,.018,2.055,1.46,1.46,0,0,0,1.607,1.237q2.9.005,5.8,0a1.86,1.86,0,0,1,.308.01.54.54,0,0,1,.454.56.526.526,0,0,1-.463.517,2.031,2.031,0,0,1-.376.01h-5.592a2.824,2.824,0,0,1-2.895-2.873q0-12.195,0-24.39a2.819,2.819,0,0,1,2.913-2.924q5.917-.005,11.834,0a2.823,2.823,0,0,1,2.814,2.816q0,6.775,0,13.55v.393a2.185,2.185,0,0,1,2.175,1.557c.146-.044.293-.1.444-.131a2.012,2.012,0,0,1,2.314,1.832c.018,2.161.037,4.323-.014,6.483a5.057,5.057,0,0,1-3.7,4.833,9.3,9.3,0,0,1-6.345-.223,5.677,5.677,0,0,1-2.537-2.076,40.011,40.011,0,0,1-3.524-6.106c-.418-.85-.818-1.709-1.214-2.57a1.981,1.981,0,0,1,1.158-2.756,2.091,2.091,0,0,1,2.2.844c.608.857,1.223,1.709,1.835,2.563Zm1.1-3.611c0,1.749,0,3.5,0,5.247,0,.309-.048.583-.375.692-.343.114-.55-.083-.739-.346-.955-1.34-1.919-2.673-2.879-4.009a.823.823,0,0,0-1.424.814c.452.973.895,1.95,1.367,2.913a38.639,38.639,0,0,0,3.142,5.495,5.387,5.387,0,0,0,2.342,1.992,7.97,7.97,0,0,0,4.6.473,4.277,4.277,0,0,0,3.81-4.125c.077-2.169.029-4.343.022-6.515a.763.763,0,0,0-.865-.769.7.7,0,0,0-.773.763c-.011.366,0,.732,0,1.1a.554.554,0,1,1-1.1.009c0-.8,0-1.6,0-2.4a.78.78,0,0,0-.865-.841c-.515,0-.772.269-.777.828-.006.594,0,1.189,0,1.783,0,.436-.222.719-.557.711s-.54-.282-.54-.728c0-.754,0-1.509,0-2.263a.786.786,0,0,0-.862-.88c-.526,0-.778.27-.782.857,0,.606,0,1.212,0,1.817a.577.577,0,0,1-.553.644.609.609,0,0,1-.554-.651c.031-.913.01-1.829.01-2.743q0-2.538,0-5.075a.755.755,0,0,0-.617-.857c-.649-.136-1.025.158-1.027.822C1733.251,546.98,1733.255,548.728,1733.255,550.477Zm-10.422-14.108h15.333a1.7,1.7,0,0,0-1.875-2.186c-1.369.047-2.741.011-4.112.011q-3.838,0-7.677,0a1.546,1.546,0,0,0-1.667,1.463C1722.817,535.884,1722.832,536.113,1722.832,536.369Z" transform="translate(0)"/>
    <path id="Path_5108" data-name="Path 5108" d="M1772.088,620.923c.423,0,.845,0,1.268,0a1.179,1.179,0,0,1,1.185,1.2q.005,1.251,0,2.5a1.181,1.181,0,0,1-1.219,1.237q-1.268.005-2.535,0a1.177,1.177,0,0,1-1.183-1.167q-.009-1.3,0-2.6a1.175,1.175,0,0,1,1.183-1.167C1771.22,620.92,1771.654,620.923,1772.088,620.923Zm-1.369,1.114v2.705h2.7v-2.705Z" transform="translate(-44.58 -81.789)"/>
    <path id="Path_5109" data-name="Path 5109" d="M1772.023,713.656c-.423,0-.845,0-1.268,0a1.176,1.176,0,0,1-1.166-1.15q-.013-1.336,0-2.672a1.168,1.168,0,0,1,1.129-1.114c.891-.008,1.782-.01,2.672,0a1.171,1.171,0,0,1,1.133,1.147q.012,1.319,0,2.638a1.18,1.18,0,0,1-1.166,1.151C1772.914,713.661,1772.468,713.656,1772.023,713.656Zm1.382-1.112v-2.7h-2.7v2.7Z" transform="translate(-44.565 -163.545)"/>
    <path id="Path_5110" data-name="Path 5110" d="M1861.283,622h-2.724c-.006.094-.019.192-.019.289,0,.777,0,1.553,0,2.33,0,.407-.206.651-.539.657s-.555-.239-.557-.638c0-.868-.006-1.736,0-2.6a1.169,1.169,0,0,1,1.133-1.145c.891-.008,1.781-.01,2.672,0a1.172,1.172,0,0,1,1.131,1.149c.008.685.005,1.37,0,2.055a.553.553,0,1,1-1.1,0C1861.28,623.406,1861.283,622.712,1861.283,622Z" transform="translate(-126.382 -81.754)"/>
    <path id="Path_5111" data-name="Path 5111" d="M1818.656,557.621a.547.547,0,1,1-.545-.541A.557.557,0,0,1,1818.656,557.621Z" transform="translate(-89.245 -22.336)"/>
    <path id="Path_5112" data-name="Path 5112" d="M1842.611,557.637a.547.547,0,1,1-.522-.564A.553.553,0,0,1,1842.611,557.637Z" transform="translate(-111.554 -22.329)"/>
    <path id="Path_5113" data-name="Path 5113" d="M1866.025,558.169a.548.548,0,1,1,.535-.552A.556.556,0,0,1,1866.025,558.169Z" transform="translate(-133.855 -22.33)"/>
  </g>
</svg>
