<?xml version="1.0" encoding="utf-8"?>
<!-- Generator: Adobe Illustrator 26.5.0, SVG Export Plug-In . SVG Version: 6.00 Build 0)  -->
<svg version="1.1" id="Layer_1" xmlns="http://www.w3.org/2000/svg" xmlns:xlink="http://www.w3.org/1999/xlink" x="0px" y="0px"
	 viewBox="0 0 1498.8 604.7" style="enable-background:new 0 0 1498.8 604.7;" xml:space="preserve">
<style type="text/css">
	.st0{fill:#6A6A6A;}
</style>
<g>
	<g>
		<path class="st0" d="M890.5,326.2c0,51.2,0,101.5,0,152c-6.6,0-13.3,0-20.3,0c-0.1-1.3-0.2-2.6-0.2-3.9c0-55.3,0-110.6-0.1-166
			c0-3,0.6-4.1,3.9-4c8.2,0.2,16.3,0.2,24.5,0c2.2,0,3.2,0.8,4,2.8c15,39.2,30.1,78.3,45,117.5c3,8,4.9,16.4,7.3,24.6
			c0.2,0.8,0.5,1.5,0.6,1.9c5-14.1,9.8-28.5,15.1-42.7c12.5-33.6,25.3-67.1,37.8-100.6c0.9-2.5,2-3.5,4.8-3.4
			c7.6,0.2,15.2,0.1,22.9,0.1c1.2,0,2.3,0.1,3.6,0.2c0,57.9,0,115.5,0,173.5c-6.8,0-13.6,0-20.5,0c0-49.7,0-99.5,0-149.6
			c-0.3,0.6-0.7,1.1-0.8,1.6c-6.3,23.7-16,46.3-24.6,69.2c-9.5,25.4-19.2,50.6-28.7,75.9c-0.9,2.3-1.9,3.4-4.6,3.2
			c-3.2-0.3-6.4-0.3-9.6,0c-2.7,0.2-3.9-0.8-4.8-3.3c-11.1-29.2-22.6-58.3-33.5-87.5c-7.2-19.3-13.7-38.9-20.6-58.4
			C891.4,328.5,891.1,327.7,890.5,326.2z"/>
		<path class="st0" d="M1272.3,452.1c0-49.3,0-98.2,0-147.4c6.3,0,13.1,0,20.1,0c0,57.8,0,115.5,0,173.7c-5.1,0-10.1,0-15.1,0
			c-4.3,0-9.3,1.1-12.6-0.7c-3.2-1.8-4.8-6.6-7-10.1c-27.8-44.3-55.6-88.5-83.5-132.8c-0.7-1.1-1.4-2.1-2.4-3.7c0,49.4,0,98.1,0,147
			c-6.4,0-13,0-19.8,0c0-57.8,0-115.5,0-173.7c3.7,0,7.3,0,10.9,0c4.3,0,8.6,0.1,12.9-0.1c2.4-0.1,3.6,0.8,4.9,2.8
			c29.9,47.4,59.8,94.7,89.8,142.1C1271,450.1,1271.6,451,1272.3,452.1z"/>
		<path class="st0" d="M1325.4,391.2c0.5-15,2.2-29.8,8.4-43.6c11.1-24.9,30.6-39.1,57.1-43.9c17.3-3.1,34.5-2.9,51.6,2.2
			c25.4,7.6,42.5,23.8,50.6,49.1c8.1,25.4,7.7,50.9-1.8,75.9c-8.4,22.3-24.3,37.3-47,44.7c-22.3,7.3-44.7,7.1-66.9-0.7
			c-24-8.5-39.1-25.6-46.5-49.6c-1.6-5.2-2.9-10.5-3.8-15.9C1326.3,403.4,1326,397.3,1325.4,391.2z M1474.4,391.1
			c0-4.3,0.3-8.6-0.1-12.8c-0.4-4.2-1.3-8.5-2.5-12.6c-5.7-19.6-16.9-34.5-36.8-41.5c-11.1-3.9-22.5-4.3-34-2.7
			c-16.9,2.3-30.5,10.3-40.2,24.8c-15.3,23-14.7,62.5-2.2,84.9c7.9,14.3,19.2,24,34.8,28.4c12.1,3.4,24.4,3.5,36.6,0.4
			c15.3-3.9,27.3-12.4,34.9-26.6C1472.1,420.2,1475.4,406.1,1474.4,391.1z"/>
		<path class="st0" d="M686.2,304.5c7.5,0,14.6,0,21.8,0.1c0.5,0,1.3,0.9,1.5,1.6c0.3,0.9,0.1,1.9,0.1,2.9c0,33.7,0.1,67.3-0.1,101
			c0,6.8-0.2,13.5,1.6,20.1c6.1,22.5,24.3,32.3,43.8,31.9c6.2-0.1,12.5,0,18.4-1.5c19.7-4.9,33.3-23,33.3-43.3c0-36-0.1-72-0.2-108
			c0-1.4,0-2.8,0-4.4c7.8,0,15.3,0,22.9,0c0.1,0.7,0.2,1.3,0.2,1.8c0,36.8,0.3,73.5-0.1,110.3c-0.3,30.7-18.1,53.1-47.8,61
			c-19.8,5.2-39.5,4.5-58.6-3.3c-19.9-8.1-31.2-23.4-35.5-44.1c-1-5-1.3-10.2-1.4-15.3c-0.1-35.5-0.1-71-0.1-106.4
			C686.2,307.4,686.2,306.2,686.2,304.5z"/>
		<path class="st0" d="M570.1,459.5c1.7,0,3.1,0,4.4,0c26.5,0,53,0.1,79.5-0.1c3.2,0,4.4,0.7,4.2,4.1c-0.3,4.9-0.1,9.8-0.1,14.8
			c-37.4,0-74.3,0-111.4,0c0-57.9,0-115.6,0-173.6c7.7,0,15.3,0,23.3,0C570.1,356.3,570.1,407.7,570.1,459.5z"/>
		<path class="st0" d="M501.8,478c-9.5,0.9-19.8-7.1-22.2-17.1c-0.4-1.9-0.7-3.8-0.7-5.7c0-49.3,0-98.6,0-147.8c0-0.7,0-1.5,0-2.4
			c4.3-0.6,8,0.7,11.4,2.7c7.6,4.5,11.7,11.2,11.7,20.1c0,49.1,0,98.1,0,147.2C502,476,501.9,477,501.8,478z"/>
		<path class="st0" d="M1084.2,305c11.6-0.7,22.3,9.4,22.9,21.3c0,0.3,0,0.6,0,1c0,49.5,0,99.1,0,148.6c0,0.7-0.1,1.5-0.2,2.5
			c-8.2-0.3-14.8-3.5-19-10.3c-2.1-3.5-3.8-7.9-3.8-12c-0.3-49.6-0.2-99.3-0.2-148.9C1084.1,306.4,1084.2,305.8,1084.2,305z"/>
		<path class="st0" d="M1094.5,285.5c-8.2,0-14.2-6.1-14.2-14.1c0-8.1,6.2-14.2,14.3-14.2c8,0,14.3,6.3,14.3,14.2
			C1108.8,279.4,1102.6,285.5,1094.5,285.5z"/>
		<path class="st0" d="M489.6,285.5c-8.2,0-14.1-6-14-14.2c0-8.1,6.1-14.1,14.3-14.1c8,0,14.1,6.2,14.1,14.3
			C503.9,279.6,497.8,285.5,489.6,285.5z"/>
	</g>
	<g>
		<path class="st0" d="M108.8,226.8c35.6,62.6,89.4,89.2,161.1,81.3c-0.6,9.9-2.9,19.6-6.7,29c-5.3,13.2-13.5,24.5-23.9,34.2
			c-20.9,19.7-45.5,33.8-70.3,47.8c-22.8,12.9-45.7,25.7-65.4,43.3c-26.5,23.8-42.4,53.2-47.2,90c-1.3-1.7-2.4-3.4-3.8-5
			C23.2,515,5.4,477.2,1.1,433.6c-6-61.1,12-114.5,54.5-158.8c16.4-17,34.9-32,52.4-47.8C108.3,226.8,108.6,226.8,108.8,226.8z"/>
		<path class="st0" d="M72.1,604.6c0-2.4,0-4.1,0-5.8c0-12.9,0.5-25.9-0.1-38.8c-1.3-28.5,10-52.1,27.3-73.6
			c13.6-16.8,31.4-28.6,49.7-39.7c19.7-11.9,39.9-23,59.6-35c19.9-12.2,38.4-26.2,53-44.6c13.3-16.7,20.6-36,22.1-57.3
			c0.3-4.1,1.8-5.8,5.8-7.1c7.7-2.5,15.2-5.8,23-8.9c4.3,18.5,2.8,36.5-4.2,54.2c-15.5,38.9-31.3,77.7-46.3,116.8
			c-7.7,20.1-16,39.8-28.8,57.2c-33.5,45.4-78,72.6-133.9,80.8c-6.7,1-13.5,1.3-20.3,1.8C77,604.7,74.9,604.6,72.1,604.6z"/>
		<path class="st0" d="M135.1,77.1c18.8,11.6,39.2,15.8,59.7,19.5c-21.3,46.3-17.4,89.4,16.3,128.1c16.1,18.5,37.1,29.6,61.3,34.1
			c23.9,4.5,47,1.1,69.2-8.7c-28.9,31.8-64.7,48.1-107.5,45.1c-55.8-3.8-96.2-32.1-117.7-83.9C96.9,163.9,105.2,118.9,135.1,77.1z"
			/>
		<path class="st0" d="M422.5,192.7c-12.3,9.8-23.6,19.3-39,22.1c-18.2,3.4-30-7.5-28-25.8c1.9-17.4-3.3-33.6-11.3-48.5
			c-19.8-36.8-50.7-57.6-92.6-60.6c-14.6-1.1-29.3-0.2-44-0.1c-16.3,0.1-32.5-0.9-48.3-4.9c-31-8-48.7-29.2-57.5-59
			c-0.6-2.2-1.2-4.5-1.9-7.3c20.1,16.2,43.4,17.7,67.6,19.2c-1.5-9.8-2.3-19,0.4-27.6c5.4,5.6,10.3,11.6,16.1,16.6
			c10.1,8.7,22,11.4,35.3,10.3c18.4-1.5,36.8-1.3,55,3.1c51.9,12.8,93.4,58.7,100.1,111.6c1,8.1,1.1,16.3,1.6,24.5
			c0.1,2.1-0.1,4,3,4.2c11.4,0.7,21.2,5.6,30.3,12.3C413.5,185.7,417.7,189,422.5,192.7z"/>
		<path class="st0" d="M291.2,134.2c10.8,0,19,8.5,18.9,19.4c-0.1,10.5-8.6,19-19,19c-10.4,0.1-19.4-8.9-19.3-19.3
			C271.8,142.6,280.4,134.1,291.2,134.2z"/>
	</g>
</g>
</svg>
