<?xml version="1.0" encoding="UTF-8"?>
<svg xmlns="http://www.w3.org/2000/svg" xmlns:xlink="http://www.w3.org/1999/xlink" viewBox="0 0 303.42 278.46">
  <defs>
    <style>
      .cls-1 {
        fill: url(#linear-gradient-3);
        mix-blend-mode: multiply;
      }

      .cls-2 {
        fill: url(#linear-gradient-2);
      }

      .cls-3 {
        fill: #fff;
      }

      .cls-4 {
        isolation: isolate;
      }

      .cls-5 {
        fill: url(#radial-gradient);
      }

      .cls-6 {
        fill: url(#linear-gradient-5);
      }

      .cls-7 {
        fill: url(#linear-gradient-4);
        opacity: .9;
      }

      .cls-8 {
        fill: url(#linear-gradient);
      }

      .cls-9 {
        fill: #0c9679;
      }
    </style>
    <linearGradient id="linear-gradient" x1="145.25" y1="278.45" x2="145.25" y2="24.1" gradientUnits="userSpaceOnUse">
      <stop offset="0" stop-color="#c3ffed"/>
      <stop offset=".11" stop-color="#baf9e7"/>
      <stop offset=".28" stop-color="#a1ebd7"/>
      <stop offset=".5" stop-color="#79d5be"/>
      <stop offset=".76" stop-color="#43b59c"/>
      <stop offset=".99" stop-color="#0c9679"/>
    </linearGradient>
    <radialGradient id="radial-gradient" cx="151.71" cy="172.97" fx="151.71" fy="172.97" r="110.97" gradientUnits="userSpaceOnUse">
      <stop offset=".6" stop-color="#ebfff9"/>
      <stop offset=".82" stop-color="#f3fffb"/>
      <stop offset="1" stop-color="#fff"/>
    </radialGradient>
    <linearGradient id="linear-gradient-2" x1="145.22" y1="34.23" x2="145.22" y2="194.41" gradientUnits="userSpaceOnUse">
      <stop offset=".6" stop-color="#fff"/>
      <stop offset=".71" stop-color="#fcfefd"/>
      <stop offset=".78" stop-color="#f4fcfa"/>
      <stop offset=".83" stop-color="#e5f9f3"/>
      <stop offset=".88" stop-color="#d1f4ea"/>
      <stop offset=".92" stop-color="#b7eede"/>
      <stop offset=".96" stop-color="#97e7d0"/>
      <stop offset="1" stop-color="#74e0c0"/>
    </linearGradient>
    <linearGradient id="linear-gradient-3" x1="159.85" y1="39.05" x2="159.85" y2="194.41" gradientUnits="userSpaceOnUse">
      <stop offset="0" stop-color="#c3ffed" stop-opacity=".5"/>
      <stop offset=".7" stop-color="#c3ffed"/>
    </linearGradient>
    <linearGradient id="linear-gradient-4" x1="145.32" y1="25.58" x2="133.74" y2="18.9" gradientUnits="userSpaceOnUse">
      <stop offset="0" stop-color="#c3ffed"/>
      <stop offset=".17" stop-color="#bffdeb" stop-opacity=".99"/>
      <stop offset=".35" stop-color="#b6f9e5" stop-opacity=".97"/>
      <stop offset=".54" stop-color="#a6f3dc" stop-opacity=".93"/>
      <stop offset=".72" stop-color="#8feacf" stop-opacity=".87"/>
      <stop offset=".9" stop-color="#74e0c0" stop-opacity=".8"/>
    </linearGradient>
    <linearGradient id="linear-gradient-5" x1="161.96" y1="57.12" x2="128.48" y2="115.12" gradientUnits="userSpaceOnUse">
      <stop offset="0" stop-color="#74e0c0"/>
      <stop offset=".08" stop-color="#69debb"/>
      <stop offset=".44" stop-color="#42d6a8"/>
      <stop offset=".73" stop-color="#29d19d"/>
      <stop offset=".9" stop-color="#21d099"/>
    </linearGradient>
  </defs>
  <g class="cls-4">
    <g id="Layer_2" data-name="Layer 2">
      <g id="Layer_1-2" data-name="Layer 1">
        <g>
          <circle class="cls-8" cx="145.25" cy="151.28" r="127.18"/>
          <circle class="cls-3" cx="234.2" cy="86.12" r="2.27"/>
          <circle class="cls-3" cx="63.46" cy="80.04" r="2.27"/>
          <circle class="cls-3" cx="91.06" cy="89.86" r="1.48"/>
          <circle class="cls-3" cx="207.23" cy="80.04" r="1.48"/>
          <circle class="cls-3" cx="96.58" cy="48.77" r="1.48"/>
          <circle class="cls-3" cx="197.82" cy="54.39" r="2.27"/>
          <path class="cls-5" d="M303.42,184.68h-74.95c1.97-14.29,10.94-25.09,21.7-25.09,1.58,0,3.13,.24,4.62,.68,1.76-15.65,9.92-27.47,19.72-27.47,11.09,0,20.07,15.13,20.07,33.79,0,3.15-.26,6.2-.74,9.1,3.74,1.77,7.03,4.91,9.57,8.99Zm-247.37,3.08c-2.46-18.67-11.35-32.5-21.93-32.5s-18.68,12.63-21.56,30.04c-5.02,1.33-9.42,5.09-12.55,10.36H91.06c-1.79-2.26-4.03-4.54-6.78-6.45-11.92-8.26-24.54-3.15-28.23-1.46Zm133.12,25.38h48.33c-2.17-7.32-9.63-12.71-18.51-12.71-7.37,0-13.77,3.71-16.97,9.16-.84-.29-3.64-1.16-7.01-.26-3.51,.93-5.34,3.16-5.84,3.81Z"/>
          <path class="cls-9" d="M174.2,40.79c-5.67-2.7-15.91-6.59-29.18-6.55-13.06,.03-23.13,3.86-28.77,6.55,.23-.5,.47-1,.71-1.5,.71-1.49,1.44-2.96,2.2-4.42,.75-1.45,1.52-2.88,2.32-4.3,.27-.47,.54-.94,.8-1.41,.27-.46,.54-.92,.81-1.39,.56-.94,1.12-1.87,1.7-2.79,.27-.44,.55-.87,.83-1.31,.29-.45,.58-.9,.87-1.34,.53-.79,1.06-1.59,1.59-2.37,.36-.52,.72-1.03,1.08-1.55,.3-.43,.61-.86,.92-1.28,.18-.26,.37-.51,.55-.75,.25-.34,.5-.68,.75-1.01,.74-.98,1.48-1.94,2.24-2.88,.36-.46,.72-.9,1.1-1.35,1.12-1.36,2.27-2.68,3.43-3.98,.36-.4,.72-.79,1.08-1.19,.43-.47,.87-.93,1.31-1.39,.34-.36,.69-.72,1.04-1.08,.33-.34,.67-.68,1-1.01,.46-.46,.92-.91,1.39-1.35,.4-.39,.8-.77,1.22-1.15,.41,.38,.82,.76,1.22,1.15,.47,.45,.93,.9,1.39,1.35,.34,.33,.67,.67,1,1.01,.35,.36,.7,.72,1.04,1.08,.45,.46,.88,.92,1.31,1.39,.37,.39,.72,.79,1.08,1.19,1.16,1.3,2.31,2.62,3.43,3.98,.37,.45,.74,.9,1.1,1.35,.76,.94,1.51,1.91,2.24,2.88,.26,.33,.51,.67,.75,1.01,.19,.25,.37,.5,.55,.75,.31,.42,.62,.85,.92,1.28,.37,.51,.72,1.03,1.08,1.55,.54,.78,1.07,1.58,1.59,2.37,.3,.45,.59,.89,.87,1.34,.27,.43,.55,.87,.83,1.31,.58,.92,1.14,1.85,1.7,2.79,.27,.46,.54,.92,.81,1.39,.27,.47,.54,.94,.8,1.41,.8,1.42,1.57,2.85,2.32,4.3,.75,1.46,1.49,2.93,2.2,4.42,.24,.5,.47,.99,.71,1.5Z"/>
          <path class="cls-2" d="M188.91,108.1c0,36.89-12.73,67.87-32.62,86.31h-22.14c-19.89-18.43-32.62-49.41-32.62-86.31,0-24.08,5.42-47.29,14.72-67.31,5.64-2.69,15.72-6.52,28.77-6.55,13.27-.04,23.51,3.85,29.18,6.55,9.3,20.03,14.72,43.23,14.72,67.31Z"/>
          <path class="cls-1" d="M188.92,108.1c0,36.89-12.73,67.87-32.63,86.31h-22.14c-1.15-1.06-2.27-2.16-3.36-3.31,27.02-25.19,43.99-64.48,43.99-110.67,0-14.1-1.58-27.98-4.54-41.38,1.5,.6,2.83,1.19,3.97,1.74,9.3,20.03,14.72,43.23,14.72,67.31Z"/>
          <g>
            <path d="M217.08,179.59l-46.44-2.61c8.77-13.83,14.82-31.05,17.17-50.49,5.5,6.15,11.93,14.47,17.78,25.13,5.74,10.46,9.26,20.18,11.49,27.97Z"/>
            <path d="M119.8,176.98l-46.44,2.61c2.22-7.79,5.75-17.5,11.49-27.97,5.85-10.66,12.28-18.98,17.77-25.13,2.35,19.44,8.4,36.65,17.18,50.49Z"/>
          </g>
          <path class="cls-9" d="M170.64,176.99l46.44,2.61c-5.27-2.15-19.76-7.54-41.28-11.72h0c-.73,1.69-3.27,5.98-5.15,9.11Z"/>
          <path class="cls-9" d="M119.8,176.98l-46.44,2.61c5.27-2.15,19.76-7.54,41.28-11.72h0c.73,1.69,3.27,5.98,5.15,9.11Z"/>
          <path d="M145.22,126.66c-11.05,11.64-12.95,44.58,0,49.47,12.95-4.89,11.05-37.83,0-49.47Z"/>
          <path d="M174.2,40.79c-5.67-2.7-15.91-6.59-29.18-6.55-13.06,.03-23.13,3.86-28.77,6.55,7.44-16.03,17.36-30.02,28.98-40.79,11.62,10.77,21.54,24.76,28.98,40.79Z"/>
          <path class="cls-7" d="M125.23,37.51c5.09-12.63,11.28-25,19.52-35.78l-4.97,33.45"/>
          <path d="M168.26,180.58c-3.61,5.17-7.62,9.8-11.97,13.83h-22.14c-4.35-4.04-8.36-8.67-11.96-13.83,6.92,.75,14.68,1.26,23.13,1.25,8.38,0,16.07-.5,22.95-1.25Z"/>
          <path class="cls-9" d="M145.22,56.37c-18.47,0-33.49,15.02-33.49,33.49s15.02,33.49,33.49,33.49,33.49-15.02,33.49-33.49-15.02-33.49-33.49-33.49Zm0,57.28c-13.12,0-23.79-10.67-23.79-23.79s10.67-23.79,23.79-23.79,23.79,10.67,23.79,23.79-10.67,23.79-23.79,23.79Z"/>
          <path class="cls-6" d="M145.22,52.63c-18.47,0-33.49,15.02-33.49,33.49s15.02,33.49,33.49,33.49,33.49-15.02,33.49-33.49-15.02-33.49-33.49-33.49Zm0,57.28c-13.12,0-23.79-10.67-23.79-23.79s10.67-23.79,23.79-23.79,23.79,10.67,23.79,23.79-10.67,23.79-23.79,23.79Z"/>
          <circle cx="145.22" cy="86.12" r="23.79" transform="translate(-7.78 14.73) rotate(-5.65)"/>
          <g>
            <path class="cls-3" d="M149.24,74.09c0,2.19-1.78,3.97-3.98,3.97s-3.97-1.78-3.97-3.97,1.78-3.97,3.97-3.97,3.98,1.78,3.98,3.97Z"/>
            <path class="cls-3" d="M159.1,82.14l-7.64,4.22c-1.06,.59-1.47,1.94-.9,3.02l4.72,8.91c.48,.94,.06,1.78-.58,2.19-.63,.41-1.56,.45-2.24-.38-.07-.08-1.28-1.64-2.68-3.45l-2.78-3.57c-.42-.55-1.07-.86-1.77-.86s-1.35,.31-1.78,.86l-3.88,5c-.85,1.1-1.52,1.96-1.58,2.03-.71,.87-1.64,.75-2.23,.38-.63-.41-1.05-1.24-.58-2.18l4.71-8.91c.58-1.08,.18-2.43-.9-3.03l-7.63-4.22c-.99-.57-1-1.52-.71-2.17,.22-.49,.72-1,1.48-1,.19,0,.41,.03,.61,.1l9.85,3.49c1.71,.6,3.6,.6,5.3,0l9.84-3.49c1.02-.34,1.79,.21,2.1,.91,.29,.64,.27,1.59-.71,2.16Z"/>
          </g>
          <path class="cls-3" d="M240.78,235.22c-23.3,26.51-57.46,43.24-95.53,43.24s-74.48-17.85-97.8-45.88c4.24-3.08,9.73-5.78,16.52-6.71,14.5-2.01,29.21,4.82,37.67,17.48,3.59-8.22,9.07-12.5,12.59-11.48,.65,.19,2.19,.84,3.47,3.76l16.44-41.22h22.15l20.1,50.39c6.14-8.54,14.67-10.93,19.25-7.7,2.82,1.98,3.76,5.82,4.09,8.27,6.94-13,18.89-19.89,29.39-17.51,5.44,1.24,9.33,4.71,11.66,7.36Z"/>
        </g>
      </g>
    </g>
  </g>
</svg>