<svg xmlns="http://www.w3.org/2000/svg" width="68.805" height="68.805" viewBox="0 0 68.805 68.805">
  <g id="Searching" transform="translate(0.5 0.5)">
    <path id="Path_5041" data-name="Path 5041" d="M61.915,33.406a11.654,11.654,0,1,0,3.421,8.248A11.654,11.654,0,0,0,61.915,33.406Zm-.763,15.733a10.595,10.595,0,1,1,0-14.97A10.595,10.595,0,0,1,61.152,49.139Z" transform="translate(-19.764 -14.108)" stroke="#000" stroke-width="1"/>
    <path id="Path_5042" data-name="Path 5042" d="M61.978,0H16.422a5.827,5.827,0,0,0-5.827,5.827V57.21H.53a.53.53,0,0,0-.53.53v4.238A5.827,5.827,0,0,0,5.827,67.8H51.383a5.827,5.827,0,0,0,5.827-5.827V55.092a1.812,1.812,0,0,0,1.277-.53c2.5-2.5,2.961-2.717,2.961-3.708s-.35-1.1-4.238-4.99V10.595H67.275a.53.53,0,0,0,.53-.53V5.827A5.827,5.827,0,0,0,61.978,0ZM48,66.745H5.827a4.768,4.768,0,0,1-4.768-4.768V58.27h44.5C45.556,61.6,45.027,64.627,48,66.745ZM60.389,50.854c0,.418,0,.323-2.649,2.951a.758.758,0,0,1-1.059,0l-10.9-10.9a.731.731,0,0,1,0-1.059c2.686-2.686,2.543-2.649,2.951-2.649s-.09-.4,7.564,7.257C60.32,50.488,60.389,50.382,60.389,50.854ZM43.634,37.277a13.773,13.773,0,1,1,0-19.462,13.773,13.773,0,0,1,0,19.462Zm1.478,0,1.865,1.865-1.483,1.483L43.628,38.76a14,14,0,0,0,1.483-1.489Zm4.911,1.393a1.87,1.87,0,0,0-2.241-.249l-1.986-1.986A14.839,14.839,0,1,0,19.07,27.546c0,12.38,14.149,19.07,23.726,11.892l1.976,1.981a1.806,1.806,0,0,0,.254,2.246C56.8,55.441,55.923,54.583,56.151,54.747v7.231a4.768,4.768,0,1,1-9.535,0V57.74a.53.53,0,0,0-.53-.53H11.654V5.827a4.768,4.768,0,0,1,4.768-4.768c45.345,0,42.24-.042,42.066.09A5.827,5.827,0,0,0,56.294,4.5c-.217.938-.154-2.22-.154,40.259ZM66.745,9.535H57.21V5.827a4.768,4.768,0,0,1,9.535,0Z" stroke="#000" stroke-width="1"/>
  </g>
</svg>
