<?xml version="1.0" encoding="utf-8"?>
<!-- Generator: Adobe Illustrator 26.5.0, SVG Export Plug-In . SVG Version: 6.00 Build 0)  -->
<svg version="1.1" xmlns="http://www.w3.org/2000/svg" xmlns:xlink="http://www.w3.org/1999/xlink" x="0px" y="0px"
	 viewBox="0 0 640 480" style="enable-background:new 0 0 640 480;" xml:space="preserve">
<style type="text/css">
	.st0{fill:#7AE5C1;}
	.st1{filter:url(#Adobe_OpacityMaskFilter);}
	.st2{fill:#FFFFFF;}
	.st3{mask:url(#SVGID_1_);}
	.st4{fill:#21D099;}
	.st5{fill:#403E56;}
	.st6{fill:none;stroke:#000000;stroke-width:1.8;stroke-linecap:round;stroke-linejoin:round;stroke-miterlimit:10;}
	.st7{fill:none;stroke:#FFFFFF;stroke-width:3;stroke-linecap:round;stroke-linejoin:round;stroke-miterlimit:10;}
	.st8{filter:url(#Adobe_OpacityMaskFilter_00000080924319802980385470000001981024038398326175_);}
	.st9{mask:url(#SVGID_00000032620795301761666870000009667856873462391173_);}
	.st10{filter:url(#Adobe_OpacityMaskFilter_00000142856705725595010140000003448294839457694129_);}
	.st11{fill:#FFFFFF;stroke:#000000;stroke-width:0.75;stroke-miterlimit:10;}
	.st12{mask:url(#SVGID_00000161595912695167372330000012307063104685721225_);}
	.st13{filter:url(#Adobe_OpacityMaskFilter_00000127045793486592345190000009542847670065066937_);}
	.st14{mask:url(#SVGID_00000072252091938499777110000011076347938758331566_);}
	.st15{fill:#FFFFFF;stroke:#000000;stroke-width:1.8;stroke-linecap:round;stroke-linejoin:round;stroke-miterlimit:10;}
</style>
<g id="_x34_">
</g>
<g id="_x33_">
</g>
<g id="_x32_">
</g>
<g id="_x31_">
	<g>
		<g>
			<path class="st0" d="M295.3,260.6C256.2,242,226,199.9,186,205.2c-46.3,6.2-30,60.5-50.3,90.3c-13.9,20.4-72.2,43.2-38.8,68.6
				c34.1,25.9,97.9-3,151.9-3s76.4,20.3,124.1,16.2c49.8-4.3,96.2-36.7,70.9-74.1C419.7,267.8,327,275.6,295.3,260.6z"/>
		</g>
		<defs>
			<filter id="Adobe_OpacityMaskFilter" filterUnits="userSpaceOnUse" x="238.8" y="298.2" width="281.6" height="92.1">
				<feColorMatrix  type="matrix" values="1 0 0 0 0  0 1 0 0 0  0 0 1 0 0  0 0 0 1 0"/>
			</filter>
		</defs>
		<mask maskUnits="userSpaceOnUse" x="238.8" y="298.2" width="281.6" height="92.1" id="SVGID_1_">
			<g class="st1">
				<path class="st2" d="M295.3,260.6C256.2,242,226,199.9,186,205.2c-46.3,6.2-30,60.5-50.3,90.3c-13.9,20.4-72.2,43.2-38.8,68.6
					c34.1,25.9,97.9-3,151.9-3s76.4,20.3,124.1,16.2c49.8-4.3,96.2-36.7,70.9-74.1C419.7,267.8,327,275.6,295.3,260.6z"/>
			</g>
		</mask>
		<g class="st3">
			<path class="st4" d="M238.8,362.2c19.7-6.8,54.4-38.1,67.2-36.4c13.1,1.7,16.9,14.8,16.9,14.8s-13.9,7.7-23.4,13.8
				c-9.5,6.1,17.5,0.7,37.8-12.2c21.6-13.8,39.4-42.4,60.1-41.2c20.7,1.2,41.7,17.2,41.7,17.2l29.1-19.8h52.2v76.6
				C520.4,374.8,402.4,417.1,238.8,362.2z"/>
		</g>
		<g>
			<path class="st2" d="M232,320.2c0,0-0.1-0.1-0.1-0.1c1-0.8,2-1.6,2.7-2.6c5-6.1-0.7-18.1-2.4-20.8c-2-3.2-4.8-4.8-8.3-4.8
				c-0.7,0-1.4,0.1-2,0.1c-3.3-3.1-7.8-4.9-12.4-4.9c-1.2,0-2.5,0.1-3.7,0.4c-5.1,1.1-10,2.6-14.8,4.6c0.7-0.9,1.3-1.9,1.8-3.1
				c0.9-2.5,0.9-5.4,0.1-8.1c-1.6-4.9-5.8-8.4-10.4-8.4c-0.9,0-1.8,0.1-2.7,0.4c-5.3,1.7-8,8-6.1,14.1c0.9,2.7,2.5,5,4.7,6.5
				c1.7,1.2,3.7,1.9,5.7,1.9c0,0,0,0,0.1,0c-5.2,2.8-10.1,6.2-14.6,10.1c-2.8,2.5-4.8,5.7-5.7,9.3c-0.9,0.7-2,1.7-2.4,2
				c-5.1,4.2-6.5,9.7-4,16.3c0.4,1,1.1,3,2.6,5.3c3.9,6.1,8.4,7.4,11.5,7.4c0.5,0,0.9,0,1.4-0.1c0.9-0.1,2.8-0.4,4.2-0.6
				c2.1,0.9,4.4,1.4,6.7,1.4c1,0,2-0.1,3.1-0.3c0.2,0,0.4-0.1,0.7-0.1c-1.5,0.6-2.9,1.1-4.2,1.6c-5.9,2.2-13.3,4.8-11,12.4
				c0.4,1.3,1.4,3.1,3.7,4.3c1.7,0.9,4,1.3,6.9,1.3c2,0,4.1-0.2,6.3-0.5c-4.6,14.6-3.3,17.3-2.6,18.7c0.7,1.5,2,2.6,3.5,3.1
				c0.6,0.2,1.3,0.3,2,0.3c4.1,0,7.6-3.5,13.3-11.7c1,2.9,2.8,5.2,6,5.6c0.3,0,0.6,0.1,0.9,0.1c1.5,0,2.9-0.5,4.1-1.5
				c5.6-4.8,6.8-25.9,7-31.5c10.9-15.4,11.9-20.7,11.4-23.9C234.4,322.8,233.5,321.3,232,320.2z"/>
		</g>
		<g>
			<g>
				<path class="st5" d="M191,333.9c0,0-4.2,0.6-5.6,0.8c-3.3,0.4-5.9-1.9-7.8-5c-1.1-1.7-1.7-3.2-2.1-4.3c-1.5-4-1.3-7.4,2.5-10.5
					c0.8-0.6,3.6-3,3.6-3L191,333.9z"/>
				<path d="M184.7,335.6c-2.9,0-5.5-1.8-7.9-5.4c-1.2-1.9-1.9-3.6-2.2-4.5c-1.8-4.9-1-8.5,2.7-11.6c0.8-0.6,3.6-3,3.6-3
					c0.2-0.2,0.5-0.3,0.8-0.2c0.3,0.1,0.5,0.3,0.6,0.5l9.6,22.1c0.1,0.3,0.1,0.6,0,0.8c-0.1,0.2-0.4,0.4-0.7,0.5
					c-0.2,0-4.3,0.6-5.7,0.8C185.2,335.6,184.9,335.6,184.7,335.6z M181.1,313.3c-0.9,0.8-2.2,1.8-2.6,2.2c-3.1,2.6-3.8,5.3-2.2,9.5
					c0.4,1.2,1,2.6,2,4.2c2.1,3.3,4.5,4.8,7,4.5c0.9-0.1,3.1-0.4,4.5-0.6L181.1,313.3z"/>
			</g>
			<g>
				<path class="st5" d="M239.6,311.5c0,0,2.8-1.6,4.2-3.3c2.3-2.7-0.6-11.3-2.8-14.7c-2.2-3.4-4.6-2.2-8.1-2L239.6,311.5z"/>
				<path d="M239.6,312.4c-0.1,0-0.2,0-0.3-0.1c-0.3-0.1-0.5-0.3-0.5-0.6l-6.7-20c-0.1-0.3,0-0.6,0.1-0.8s0.4-0.4,0.7-0.4
					c0.7,0,1.3-0.1,2-0.2c2.5-0.3,4.9-0.6,6.9,2.6c2,3.2,5.4,12.5,2.7,15.8c-1.5,1.8-4.3,3.5-4.5,3.5
					C239.9,312.4,239.8,312.4,239.6,312.4z M234.1,292.3l6,17.9c0.9-0.6,2.2-1.6,3-2.5c1.8-2.1-0.5-10-2.9-13.7
					c-1.4-2.2-2.8-2.1-5.2-1.8C234.8,292.2,234.5,292.2,234.1,292.3z"/>
			</g>
			<g>
				<path class="st0" d="M187.4,330.6c2.6,3.7,7.1,5.6,11.6,4.7c2.7-0.5,5.6-1.2,8.5-2c10.2-2.8,18.7-6.9,25.5-11
					c5-3,7.6-8.9,6.3-14.6c-0.5-2.3-1.2-4.8-2.1-7.3c-1-2.9-2.2-5.4-3.5-7.7c-2.7-4.9-8.3-7.3-13.7-6.2c-4.9,1-10.7,2.8-16.8,5.7
					c-7.3,3.5-13,7.6-17.2,11.2c-2.9,2.5-4.5,6.1-4.4,9.9c0.1,2.9,0.6,6.4,2,10.2C184.7,326.3,186.1,328.7,187.4,330.6z"/>
				<defs>
					
						<filter id="Adobe_OpacityMaskFilter_00000029034299819286379370000005866722575813237930_" filterUnits="userSpaceOnUse" x="180.7" y="314.6" width="58.9" height="28.2">
						<feColorMatrix  type="matrix" values="1 0 0 0 0  0 1 0 0 0  0 0 1 0 0  0 0 0 1 0"/>
					</filter>
				</defs>
				
					<mask maskUnits="userSpaceOnUse" x="180.7" y="314.6" width="58.9" height="28.2" id="SVGID_00000052105007439156516550000004909674143910281115_">
					<g style="filter:url(#Adobe_OpacityMaskFilter_00000029034299819286379370000005866722575813237930_);">
						<path class="st11" d="M187.4,330.6c2.6,3.7,7.1,5.6,11.6,4.7c2.7-0.5,5.6-1.2,8.5-2c10.2-2.8,18.7-6.9,25.5-11
							c5-3,7.6-8.9,6.3-14.6c-0.5-2.3-1.2-4.8-2.1-7.3c-1-2.9-2.2-5.4-3.5-7.7c-2.7-4.9-8.3-7.3-13.7-6.2c-4.9,1-10.7,2.8-16.8,5.7
							c-7.3,3.5-13,7.6-17.2,11.2c-2.9,2.5-4.5,6.1-4.4,9.9c0.1,2.9,0.6,6.4,2,10.2C184.7,326.3,186.1,328.7,187.4,330.6z"/>
					</g>
				</mask>
				<g style="mask:url(#SVGID_00000052105007439156516550000004909674143910281115_);">
					<path class="st5" d="M181.8,314.6c2.6,7.1,11.2,18.3,23.3,15.4c13.3-3.2,30.6-10,33.7-15.4l0.9,8.3l-46,19.9l-12.9-20.9
						L181.8,314.6z"/>
				</g>
				<path d="M196.9,336.4c-4,0-7.9-2-10.2-5.3l0,0c-1.6-2.3-2.9-4.7-3.9-7.3c-1.3-3.3-1.9-6.9-2-10.5c-0.1-4,1.6-7.9,4.7-10.6
					c5.2-4.6,11.1-8.4,17.4-11.4c5.4-2.6,11.1-4.5,17-5.7c5.8-1.2,11.9,1.5,14.7,6.7c1.4,2.5,2.5,5.1,3.5,7.8
					c0.9,2.4,1.6,4.9,2.2,7.4c1.3,6.1-1.4,12.3-6.7,15.6c-8.1,4.9-16.7,8.6-25.7,11.1c-2.8,0.8-5.7,1.5-8.6,2
					C198.4,336.4,197.7,336.4,196.9,336.4z M188.2,330.1c2.4,3.4,6.6,5.1,10.7,4.4c2.8-0.5,5.7-1.2,8.4-2
					c8.8-2.4,17.3-6.1,25.3-10.9c4.7-2.8,7.1-8.3,5.9-13.6c-0.5-2.4-1.2-4.9-2.1-7.2c-0.9-2.6-2.1-5.1-3.4-7.6
					c-2.4-4.4-7.7-6.8-12.7-5.8c-5.7,1.2-11.3,3.1-16.6,5.6c-6.1,2.9-11.8,6.6-16.9,11.1c-2.7,2.3-4.2,5.7-4.1,9.2
					c0.1,3.4,0.7,6.7,1.9,9.9C185.4,325.6,186.7,327.9,188.2,330.1L188.2,330.1z"/>
			</g>
			<g>
				
					<ellipse transform="matrix(0.965 -0.2623 0.2623 0.965 -72.4191 69.8204)" class="st2" cx="225.3" cy="306.2" rx="4.6" ry="7.4"/>
				<path d="M226.5,314.2c-2.9,0-5.8-3.3-6.6-7.6c-0.5-2.7-0.1-5.3,1.2-6.9c0.7-1,1.7-1.5,2.9-1.6c3-0.2,6,3.1,6.9,7.6
					c0.5,2.7,0.1,5.3-1.2,6.9c-0.7,1-1.7,1.5-2.9,1.6C226.7,314.2,226.6,314.2,226.5,314.2z M224.2,299.7c0,0-0.1,0-0.1,0
					c-0.7,0-1.2,0.4-1.7,1c-1,1.2-1.3,3.4-0.9,5.6c0.7,3.5,3,6.4,5.2,6.3c0.7,0,1.2-0.4,1.7-1c1-1.2,1.3-3.4,0.9-5.6l0,0
					C228.5,302.6,226.3,299.7,224.2,299.7z"/>
			</g>
			<g>
				<g>
					<path d="M205.5,323.3c-3.1,0-6.4-3.6-8-8.7c-0.1-0.5,0.1-1,0.6-1.1c0.5-0.1,1,0.1,1.1,0.6c1.5,4.7,4.5,7.6,6.4,7.5
						c0.6,0,1-0.3,1.4-0.8c1-1.3,1.4-3.9,0.8-6.7c-0.3-1.6-0.8-3.3-1.6-4.7c-0.2-0.4,0-1,0.4-1.2c0.4-0.2,1,0,1.2,0.4
						c0.8,1.6,1.4,3.4,1.7,5.2c0.6,3.4,0.2,6.4-1.2,8.1c-0.7,0.9-1.7,1.4-2.8,1.5C205.6,323.3,205.6,323.3,205.5,323.3z"/>
				</g>
			</g>
			<g>
				
					<ellipse transform="matrix(0.9531 -0.3027 0.3027 0.9531 -74.9449 72.5077)" class="st5" cx="196.4" cy="278" rx="4.9" ry="6.4"/>
				<path d="M197.2,285.2c-2.6,0-5.3-2.2-6.3-5.4l0,0c-0.6-1.8-0.6-3.7,0-5.3c0.6-1.7,1.8-2.9,3.3-3.4c3-1,6.5,1.4,7.7,5.2
					c1.2,3.8-0.3,7.7-3.3,8.7C198.2,285.1,197.7,285.2,197.2,285.2z M192.6,279.2c0.9,2.9,3.4,4.7,5.5,4c2.1-0.7,3-3.6,2.1-6.4
					c-0.9-2.9-3.4-4.7-5.5-4c-1,0.3-1.7,1.1-2.1,2.3C192.2,276.3,192.2,277.8,192.6,279.2L192.6,279.2z"/>
			</g>
			<g>
				<path class="st0" d="M210.2,352.3c0,0-8.4,22.9-5.3,23.9c4.1,1.3,15.6-19.7,16.5-19.6c1,0.2,0.5,13.1,4,13.6
					c3.5,0.5,6-18.8,6.1-29.6c5.9-8.2,13.8-20.3,10.8-22.3c-2.8-2-7.6,4.9-13.9,10.6c-5.2,4.7-9.4,8.4-19.3,13.3
					c-11.5,5.7-20,6-18.6,10.5C191.6,356.5,205.3,354,210.2,352.3z"/>
				<path d="M205.2,377.2c-0.2,0-0.4,0-0.6-0.1c-0.3-0.1-0.7-0.3-1-0.9c-1.5-3.1,3.2-17,5.1-22.5c-4.8,1.3-14,2.9-17.6,1.1
					c-0.8-0.4-1.3-1-1.6-1.7c-1.1-3.7,2.6-5.1,8.4-7.2c3-1.1,6.7-2.4,10.7-4.4c9.8-4.9,13.9-8.6,19.1-13.2c1.8-1.6,3.6-3.4,5.1-5
					c4.1-4.2,7.3-7.5,9.9-5.6c0.4,0.3,0.8,0.7,1,1.6c0.5,3.2-3.3,10.5-11.4,21.7c-0.2,9.3-2.1,26.8-5.5,29.7
					c-0.6,0.5-1.2,0.6-1.6,0.5c-2.9-0.5-3.5-6.1-4-10.6c-0.1-0.7-0.2-1.5-0.2-2.1c-0.6,0.9-1.5,2.3-2.4,3.6
					C213,370.6,208.4,377.2,205.2,377.2z M205.2,375.5L205.2,375.5L205.2,375.5z M205.2,375.4c2.2,0.4,9.2-10.3,11.9-14.3
					c3.3-5,3.6-5.4,4.5-5.3c1,0.2,1.1,1.3,1.5,4.6c0.3,2.8,0.9,8.8,2.5,9c0,0,0.1,0,0.2-0.1c2.4-2.1,4.7-17.5,4.9-28.6
					c0-0.2,0.1-0.4,0.2-0.5c7.5-10.4,11.7-18.1,11.3-20.6c-0.1-0.3-0.2-0.4-0.2-0.5c-1.4-1-4.4,2.1-7.6,5.4
					c-1.6,1.6-3.3,3.4-5.2,5.1c-5.3,4.7-9.5,8.5-19.5,13.5c-4.1,2-7.9,3.4-10.9,4.5c-5.8,2.1-7.8,3-7.2,4.9c0,0.1,0.1,0.4,0.7,0.7
					c3.2,1.6,13.6-0.2,18-1.7c0.3-0.1,0.7,0,0.9,0.2c0.2,0.2,0.3,0.6,0.2,0.9C207.5,362.4,204.2,373.8,205.2,375.4z"/>
			</g>
		</g>
		<g>
			<path class="st2" d="M309.9,151l-67.2,141.3c-3.3,6.9,1.1,14.9,8.6,15.9l168,21.9"/>
			<path d="M419.3,331.1c0,0-0.1,0-0.1,0l-168-21.9c-3.9-0.5-7.2-2.8-9.1-6.3s-2-7.5-0.3-11.1l67.2-141.3c0.2-0.5,0.8-0.7,1.3-0.5
				s0.7,0.8,0.5,1.3l-67.2,141.3c-1.4,3-1.3,6.3,0.3,9.2c1.6,2.9,4.4,4.8,7.6,5.2l168,21.9c0.5,0.1,0.9,0.6,0.9,1.1
				C420.2,330.7,419.7,331.1,419.3,331.1z"/>
		</g>
		<g>
			
				<ellipse transform="matrix(0.7071 -0.7071 0.7071 0.7071 -24.2925 359.628)" class="st2" cx="422" cy="209.1" rx="115.8" ry="127.5"/>
		</g>
		<g>
			<g>
				<path d="M379.9,164.2l3.9,74l-16.6-75.2c-0.3-1.5-1.7-2.6-3.2-2.5l0,0c-1.8,0-3.2,1.5-3.1,3.3l1.7,75l-14.2-74.6
					c-0.4-1.9-2.1-3.3-4-3.2h0c-2.5,0.1-4.3,2.3-3.8,4.7l19,92.2c0.5,2.3,2.5,3.9,4.8,3.8l0,0c2.6-0.1,4.7-2.2,4.7-4.9l-1.2-64
					l14,64.5c0.5,2.2,2.5,3.8,4.8,3.8h0c2.7-0.1,4.7-2.3,4.6-5l-3.4-92.4c-0.1-2.2-1.9-3.9-4.1-3.9l0,0
					C381.5,160.1,379.8,162,379.9,164.2z"/>
				<path class="st2" d="M364.3,262.4c-2.5,0-4.7-1.8-5.2-4.2l-19-92.2c-0.3-1.3,0.1-2.6,0.9-3.7c0.8-1,2-1.6,3.4-1.7
					c2.2,0,4.1,1.5,4.5,3.6l13.1,68.7l-1.5-69c0-2,1.6-3.7,3.6-3.8c1.8,0,3.3,1.2,3.7,2.9l15.3,69.3l-3.6-68
					c-0.1-1.2,0.4-2.4,1.2-3.3c0.8-0.9,2-1.4,3.2-1.4c2.4-0.1,4.5,1.9,4.6,4.3l3.4,92.4c0.1,1.4-0.5,2.8-1.4,3.8
					c-1,1-2.3,1.6-3.7,1.7c-2.6,0-4.8-1.7-5.3-4.2l-12.9-59.5l1.1,58.9c0.1,2.9-2.3,5.3-5.1,5.4
					C364.4,262.4,364.3,262.4,364.3,262.4z M344.4,161.6C344.4,161.6,344.3,161.6,344.4,161.6c-1.1,0-2.1,0.5-2.7,1.3
					c-0.6,0.8-0.9,1.8-0.7,2.8l19,92.2c0.4,2,2.2,3.5,4.3,3.4c2.4-0.1,4.3-2,4.2-4.4l-1.2-64l1-0.1l14,64.5c0.4,2,2.2,3.4,4.3,3.4
					c1.2,0,2.2-0.5,3-1.4s1.2-1.9,1.2-3.1l-3.4-92.4c-0.1-1.9-1.7-3.4-3.6-3.4c-1,0-1.8,0.4-2.5,1.1c-0.6,0.7-1,1.6-0.9,2.6l3.9,74
					l-1,0.1l-16.6-75.2c-0.3-1.3-1.4-2.2-2.7-2.1c-1.5,0-2.7,1.3-2.6,2.8l1.7,75l-1,0.1l-14.2-74.6
					C347.5,162.8,346.1,161.6,344.4,161.6z"/>
			</g>
			<g>
				<path d="M427.1,231l-0.2,0c-2.3,0.1-4.1,2.1-3.8,4.4v0c0.3,2.7,0.4,5.1,0.1,7c-0.2,2-0.8,3.5-1.6,4.5c-0.8,1-1.9,1.6-3.2,1.6
					c-1.3,0-2.5-0.4-3.5-1.4c-1-1-1.9-2.5-2.7-4.4c-0.7-1.9-1.3-4.3-1.6-7l-6.2-51.3c-0.3-2.8-0.4-5.1-0.1-7.1
					c0.3-2,0.8-3.5,1.6-4.5c0.8-1,1.8-1.6,3.1-1.6c1.3,0,2.5,0.4,3.5,1.4c1.1,1,1.9,2.5,2.7,4.4c0.7,1.9,1.2,4.3,1.6,7l0.1,0.7
					c0.2,2,2,3.5,4,3.5l0.2,0c2.3-0.1,4.1-2.1,3.8-4.4v0c-0.7-5.4-1.8-10-3.4-13.9c-1.6-3.8-3.6-6.7-6-8.7c-2.4-2-5.1-2.9-8.1-2.8
					c-3,0.1-5.5,1.2-7.4,3.3c-1.9,2.1-3.2,5.1-3.8,9c-0.7,3.9-0.7,8.6,0,14l6.2,51.3c0.7,5.4,1.8,10,3.4,13.9c1.6,3.8,3.6,6.7,6,8.7
					c2.4,2,5.1,2.9,8.1,2.8c3-0.1,5.5-1.2,7.4-3.3c1.9-2.1,3.2-5.1,3.8-9c0.6-3.9,0.6-8.6,0-14l-0.1-0.7
					C430.9,232.4,429.2,230.9,427.1,231z"/>
				<path class="st2" d="M419.7,261.9c-3,0-5.7-1-8.1-3c-2.5-2-4.5-5-6.1-8.9c-1.6-3.9-2.8-8.6-3.4-14l-6.2-51.3
					c-0.7-5.5-0.7-10.3,0-14.2c0.7-4,2-7.1,4-9.2c2-2.2,4.6-3.3,7.7-3.4c3.1-0.1,6,0.9,8.5,3c2.5,2,4.5,5,6.1,8.9
					c1.6,3.9,2.7,8.6,3.4,14c0.2,1.2-0.2,2.5-1,3.4c-0.8,0.9-2,1.5-3.2,1.5l-0.2,0c-2.3,0.1-4.3-1.6-4.5-3.9l-0.1-0.7
					c-0.3-2.7-0.8-5-1.5-6.9c-0.7-1.8-1.5-3.3-2.5-4.2c-1-0.9-2-1.4-3.2-1.3c-1.2,0-2.1,0.5-2.8,1.4c-0.7,1-1.2,2.4-1.5,4.3
					c-0.3,1.9-0.2,4.3,0.1,7l6.2,51.3c0.3,2.7,0.9,5,1.6,6.9c0.7,1.9,1.6,3.3,2.5,4.2c1,0.9,2,1.3,3.2,1.3c1.2,0,2.1-0.5,2.8-1.4
					c0.8-1,1.2-2.4,1.5-4.3c0.2-1.9,0.2-4.2-0.1-6.9c-0.2-1.2,0.2-2.5,1-3.4c0.8-0.9,2-1.5,3.2-1.5l0.2,0c2.3-0.1,4.3,1.6,4.5,3.9
					l0.1,0.7c0.7,5.4,0.7,10.2,0,14.1c-0.7,4-2,7.1-4,9.2c-2,2.2-4.6,3.3-7.8,3.4C419.9,261.9,419.8,261.9,419.7,261.9z
					 M407.9,158.8c-0.1,0-0.2,0-0.3,0c-2.9,0.1-5.2,1.1-7,3.1c-1.8,2-3.1,5-3.7,8.7c-0.7,3.8-0.7,8.5,0,13.9l6.2,51.3
					c0.6,5.3,1.8,10,3.4,13.7c1.6,3.7,3.5,6.6,5.9,8.5c2.3,1.9,4.9,2.8,7.8,2.7c2.9-0.1,5.2-1.1,7-3.1c1.8-2,3.1-5,3.7-8.7
					c0.6-3.8,0.6-8.5,0-13.8l-0.1-0.7c-0.2-1.8-1.7-3.1-3.5-3l-0.2,0c-1,0-1.9,0.5-2.5,1.2c-0.6,0.7-0.9,1.7-0.8,2.7
					c0.3,2.8,0.4,5.2,0.1,7.2c-0.3,2-0.8,3.6-1.7,4.7c-0.9,1.2-2.1,1.8-3.6,1.8c-1.4,0-2.7-0.5-3.9-1.6c-1.1-1-2-2.6-2.8-4.6
					c-0.7-2-1.3-4.4-1.6-7.1l-6.2-51.3c-0.3-2.8-0.4-5.2-0.1-7.2c0.3-2,0.8-3.6,1.7-4.7c0.9-1.2,2.1-1.8,3.5-1.8
					c1.4,0,2.7,0.5,3.9,1.6c1.1,1,2,2.6,2.8,4.6c0.7,2,1.3,4.4,1.6,7.1l0.1,0.7c0.2,1.8,1.7,3.1,3.5,3l0.2,0c1,0,1.9-0.5,2.5-1.2
					c0.6-0.7,0.9-1.7,0.8-2.7c-0.6-5.3-1.8-10-3.3-13.8c-1.5-3.7-3.5-6.6-5.8-8.5C413.1,159.7,410.6,158.8,407.9,158.8z"/>
			</g>
			<g>
				<path d="M439.2,162.6l-1.8,92.9c0,2.4,2,4.4,4.4,4.4l0,0c2.3-0.1,4.2-2,4.2-4.3l-0.1-17.9l13.5-0.4l4.4,18.7
					c0.5,1.9,2.2,3.3,4.2,3.2l0,0c2.7-0.1,4.6-2.6,3.9-5.2l-24.3-92.3c-0.5-1.9-2.2-3.2-4.2-3.2h0
					C441,158.5,439.2,160.3,439.2,162.6z M445.7,225.1l-0.3-46l10.9,45.7L445.7,225.1z"/>
				<path class="st2" d="M441.6,260.3c-1.3,0-2.5-0.5-3.4-1.4c-0.9-0.9-1.4-2.2-1.4-3.5l1.8-92.9c0-2.5,2.1-4.6,4.6-4.6
					c2.2,0,4.1,1.4,4.7,3.5l24.3,92.3c0.4,1.4,0.1,2.8-0.8,4c-0.9,1.1-2.2,1.8-3.6,1.9c-2.2,0.1-4.2-1.5-4.7-3.6l-4.3-18.3
					l-12.6,0.3l0.1,17.4c0,2.6-2.1,4.7-4.6,4.8C441.7,260.3,441.7,260.3,441.6,260.3z M443.4,158.9c0,0-0.1,0-0.1,0
					c-2,0.1-3.6,1.7-3.6,3.7l-1.8,92.9c0,1,0.4,2,1.1,2.8c0.7,0.7,1.7,1.1,2.8,1.1c2-0.1,3.7-1.8,3.7-3.8l-0.1-18.4l14.4-0.4l4.5,19
					c0.4,1.7,1.9,2.9,3.7,2.8c1.1,0,2.2-0.6,2.8-1.5c0.7-0.9,0.9-2.1,0.6-3.1L447,161.7C446.6,160,445.1,158.9,443.4,158.9z
					 M445.2,225.6l-0.3-50.9l12,50.5L445.2,225.6z M446,183.5l0.2,41.1l9.5-0.3L446,183.5z"/>
			</g>
			<g>
				<path d="M503,233.2l-3.2-26.6c-0.2-1.6-1.6-2.9-3.3-2.8l-5.2,0.1c-3.7,0.1-6.5,3.4-6.1,7l0,0c0.4,3.2,3.2,5.6,6.4,5.5l1.3,0
					l2.1,17.2c0.3,2.7,0.3,5.1,0,7c-0.3,1.9-0.9,3.4-1.8,4.4c-0.9,1-2,1.6-3.4,1.6c-1.5,0-2.8-0.4-3.9-1.3c-1.2-0.9-2.1-2.2-2.9-3.9
					c-0.8-1.7-1.3-3.8-1.6-6.3l-6.4-52.7c-0.3-2.8-0.4-5.1-0.1-7.1c0.3-2,0.9-3.5,1.8-4.5c0.9-1,2.1-1.6,3.5-1.6
					c1.3,0,2.4,0.4,3.4,1.3c1,0.9,1.9,2.3,2.5,4.1c0.7,1.8,1.2,4.1,1.5,6.7l0.1,1.1c0.3,2.2,2.2,3.8,4.4,3.8h0
					c2.5-0.1,4.4-2.3,4.1-4.8l0-0.3c-0.6-5.3-1.8-9.8-3.4-13.5c-1.6-3.7-3.6-6.6-6-8.5c-2.4-1.9-5.2-2.8-8.2-2.7
					c-3.1,0.1-5.7,1.2-7.6,3.3c-2,2.1-3.3,5.1-4,9c-0.7,3.9-0.7,8.6,0,14l6.4,52.7c0.6,5.1,1.7,9.5,3.4,13.2
					c1.6,3.6,3.7,6.4,6.2,8.2c2.5,1.9,5.3,2.7,8.5,2.7c3.1-0.1,5.7-1.2,7.6-3.3c2-2.1,3.3-5.1,4-9
					C503.7,243.3,503.7,238.6,503,233.2z"/>
				<path class="st2" d="M491,260c-3.1,0-5.9-0.9-8.4-2.8c-2.6-1.9-4.7-4.7-6.3-8.4c-1.6-3.7-2.8-8.1-3.4-13.3l-6.4-52.7
					c-0.7-5.5-0.7-10.3,0-14.2c0.7-4,2.1-7.1,4.1-9.2c2.1-2.2,4.7-3.3,8-3.4c3.2-0.1,6,0.9,8.5,2.8c2.5,2,4.6,4.9,6.2,8.7
					c1.6,3.8,2.8,8.4,3.4,13.7l0,0.3c0.2,1.3-0.2,2.7-1.1,3.7c-0.9,1-2.1,1.6-3.5,1.7c-2.5,0.1-4.6-1.7-4.9-4.2l-0.1-1.1
					c-0.3-2.5-0.8-4.7-1.5-6.5c-0.7-1.8-1.5-3.1-2.4-4c-0.9-0.8-1.9-1.2-3.1-1.2c-1.3,0-2.3,0.5-3.1,1.5c-0.8,1-1.4,2.4-1.7,4.3
					c-0.3,1.9-0.3,4.3,0.1,7l6.4,52.7c0.3,2.4,0.8,4.5,1.6,6.1c0.7,1.6,1.6,2.9,2.7,3.7c1.1,0.8,2.3,1.2,3.6,1.2
					c1.3,0,2.3-0.5,3.1-1.4c0.8-0.9,1.4-2.4,1.7-4.2c0.3-1.9,0.3-4.2,0-6.9l-2-16.8l-0.8,0c-3.5,0.1-6.5-2.5-6.9-6
					c-0.2-1.9,0.4-3.8,1.6-5.2c1.2-1.4,3-2.3,4.9-2.3l5.2-0.1c2-0.1,3.6,1.4,3.8,3.3l3.2,26.6c0.7,5.5,0.7,10.3,0,14.2
					c-0.7,4-2.1,7.1-4.1,9.2c-2.1,2.2-4.7,3.3-8,3.4C491.2,260,491.1,260,491,260z M479,156.9c-0.1,0-0.2,0-0.4,0
					c-3,0.1-5.4,1.1-7.3,3.1c-1.9,2-3.2,5-3.9,8.7c-0.7,3.8-0.7,8.5,0,13.9l6.4,52.7c0.6,5.1,1.7,9.4,3.3,13c1.6,3.5,3.6,6.2,6,8
					c2.4,1.8,5.1,2.6,8.2,2.6c3-0.1,5.4-1.1,7.3-3.1c1.9-2,3.2-5,3.9-8.7c0.7-3.8,0.7-8.5,0-13.9v0l-3.2-26.6
					c-0.2-1.4-1.3-2.4-2.8-2.4l-5.2,0.1c-1.6,0-3.2,0.8-4.2,2c-1.1,1.2-1.6,2.9-1.4,4.5c0.4,3,2.9,5.2,5.9,5.1l1.7,0l2.1,17.7
					c0.3,2.8,0.3,5.2,0,7.1c-0.3,2-1,3.6-1.9,4.7c-1,1.1-2.3,1.7-3.8,1.8c-1.6,0-3-0.4-4.3-1.4c-1.2-0.9-2.2-2.3-3-4.1
					c-0.8-1.8-1.3-3.9-1.6-6.4l-6.4-52.7c-0.3-2.8-0.4-5.2-0.1-7.2c0.3-2,0.9-3.6,1.9-4.8c1-1.2,2.3-1.8,3.8-1.8
					c1.4,0,2.7,0.5,3.8,1.5c1.1,1,2,2.4,2.7,4.3c0.7,1.9,1.2,4.1,1.5,6.8l0.1,1.1c0.2,1.9,1.9,3.4,3.8,3.3c1.1,0,2.1-0.5,2.8-1.3
					s1-1.9,0.9-2.9l0-0.3c-0.6-5.2-1.8-9.7-3.3-13.4c-1.6-3.6-3.5-6.4-5.9-8.3C484.3,157.8,481.7,156.9,479,156.9z"/>
			</g>
		</g>
		<defs>
			
				<filter id="Adobe_OpacityMaskFilter_00000125605000955681502790000001575684731334019986_" filterUnits="userSpaceOnUse" x="272.7" y="68.8" width="275.6" height="275.6">
				<feColorMatrix  type="matrix" values="1 0 0 0 0  0 1 0 0 0  0 0 1 0 0  0 0 0 1 0"/>
			</filter>
		</defs>
		
			<mask maskUnits="userSpaceOnUse" x="272.7" y="68.8" width="275.6" height="275.6" id="SVGID_00000096022438394215425130000013352403834996817080_">
			<g style="filter:url(#Adobe_OpacityMaskFilter_00000125605000955681502790000001575684731334019986_);">
				
					<ellipse transform="matrix(0.7071 -0.7071 0.7071 0.7071 -21.621 358.9994)" class="st2" cx="422.6" cy="205.6" rx="115.8" ry="127.5"/>
			</g>
		</mask>
		<g style="mask:url(#SVGID_00000096022438394215425130000013352403834996817080_);">
			<path class="st4" d="M398.9,84.8c0.2,0,0.5,0,0.8,0c67,0.4,126.2,55.3,132.2,122.6c6,67-43,121.1-109.6,121.1c-0.2,0-0.5,0-0.8,0
				c-67-0.4-126.2-55.3-132.2-122.6C283.2,138.8,332.3,84.8,398.9,84.8 M398.9,68.8c-36.6,0-69.8,14.3-93.5,40.2
				c-11.7,12.8-20.4,27.7-26,44.3c-5.7,17.1-7.7,35.2-6.1,53.9c3.3,36.5,20.4,70.8,48.3,96.7c27.9,25.9,63.3,40.2,99.8,40.5
				c0.3,0,0.6,0,0.9,0c36.6,0,69.8-14.3,93.5-40.2c11.7-12.8,20.4-27.7,26-44.3c5.7-17.1,7.7-35.2,6.1-53.9
				c-3.3-36.5-20.4-70.8-48.3-96.7c-27.9-25.9-63.3-40.2-99.8-40.5C399.4,68.8,399.2,68.8,398.9,68.8L398.9,68.8z"/>
		</g>
		<g>
			<path d="M433.7,335.5c-0.3,0-0.5,0-0.8,0c-69.1-0.4-130.5-57.2-136.7-126.7l0,0c-3-34,7.4-65.9,29.3-89.7
				c21.5-23.4,51.6-36.3,84.8-36.3c0.3,0,0.5,0,0.8,0c69.1,0.4,130.5,57.2,136.7,126.7c3,34-7.4,65.9-29.3,89.7
				C497,322.6,466.9,335.5,433.7,335.5z M305.2,208c5.8,64.9,63.1,118.1,127.8,118.5c0.2,0,0.5,0,0.7,0c30.6,0,58.4-11.8,78.2-33.4
				c20.2-22,29.8-51.4,27-82.8C533,145.4,475.7,92.2,411,91.8c-30.9-0.2-59,11.7-78.9,33.4C311.9,147.1,302.3,176.6,305.2,208z"/>
		</g>
		<g>
			<path class="st2" d="M262,124.6c0,9.8-12.4,17.7-27.6,17.7v0c15.2,0,27.6,7.9,27.6,17.7c0-9.8,12.4-17.7,27.6-17.7v0
				c-7.5,0-14.3-1.9-19.3-5"/>
			<path d="M262,160.9c-0.5,0-0.9-0.4-0.9-0.9c0-9.3-12-16.8-26.7-16.8c-0.5,0-0.9-0.4-0.9-0.9s0.4-0.9,0.9-0.9
				c14.7,0,26.7-7.5,26.7-16.8c0-0.5,0.4-0.9,0.9-0.9s0.9,0.4,0.9,0.9c0,8.3-8.3,15.3-19.7,17.7c9.2,2,16.4,6.9,18.8,13.1
				c2.4-6.2,9.6-11.1,18.8-13.1c-4.1-0.9-7.8-2.3-11-4.3c-0.4-0.3-0.5-0.8-0.3-1.2c0.3-0.4,0.8-0.5,1.2-0.3c5,3.2,11.7,4.9,18.8,4.9
				c0.5,0,0.9,0.4,0.9,0.9s-0.4,0.9-0.9,0.9c-14.7,0-26.7,7.5-26.7,16.8C262.9,160.5,262.5,160.9,262,160.9z"/>
		</g>
		<g>
			<path class="st2" d="M500.7,79.6c0,16.4-6.9,29.7-32,29.7l3.2,0c21.7,0,28.8,13.3,28.8,29.7c0-16.4,8.5-29.7,24.4-29.7v0
				c-6.9,0-12.3-2.5-16.4-6.6"/>
			<path d="M500.7,139.8c-0.5,0-0.9-0.4-0.9-0.9c0-19.1-9.4-28.8-27.9-28.8h-3.2c-0.5,0-0.9-0.4-0.9-0.9s0.4-0.9,0.9-0.9
				c20.9,0,31.1-9.4,31.1-28.8c0-0.5,0.4-0.9,0.9-0.9s0.9,0.4,0.9,0.9c0,16.7-7.1,26.4-21.5,29.5c11.3,2.2,18.3,9.2,20.7,20.6
				c2.3-10.5,8.6-18,17.5-20.4c-3.9-1.1-7.3-3.1-10.2-6c-0.3-0.4-0.3-0.9,0-1.3c0.4-0.3,0.9-0.3,1.3,0c4.1,4.2,9.4,6.3,15.7,6.3
				c0.5,0,0.9,0.4,0.9,0.9s-0.4,0.9-0.9,0.9c-14.3,0-23.5,11.3-23.5,28.8C501.6,139.4,501.2,139.8,500.7,139.8z"/>
		</g>
		<g>
			<path class="st2" d="M512.5,280c-3.2,2.2-7.3,3.4-11.6,3.4v0c10.8,0,19.5,7.8,19.5,17.5c0-9.6,8.7-17.5,19.5-17.5v0
				c-10.8,0-19.5-7.8-19.5-17.5"/>
			<path d="M520.4,301.7c-0.5,0-0.9-0.4-0.9-0.9c0-9.1-8.3-16.6-18.6-16.6c-0.5,0-0.9-0.4-0.9-0.9s0.4-0.9,0.9-0.9
				c4,0,7.9-1.1,11.1-3.3c0.4-0.3,1-0.2,1.2,0.3c0.3,0.4,0.2,1-0.3,1.2c-1.8,1.2-3.7,2.1-5.8,2.7c6.3,1.8,11.2,6.4,13.2,12.1
				c1.9-5.7,6.9-10.2,13.2-12.1c-8.2-2.4-14.1-9.3-14.1-17.5c0-0.5,0.4-0.9,0.9-0.9s0.9,0.4,0.9,0.9c0,9.1,8.3,16.6,18.6,16.6
				c0.5,0,0.9,0.4,0.9,0.9s-0.4,0.9-0.9,0.9c-10.3,0-18.6,7.4-18.6,16.6C521.3,301.3,520.9,301.7,520.4,301.7z"/>
		</g>
		<g>
			<path class="st0" d="M110.4,326.2c-9.8-6.2-39-9.5-38.8-14.3s11.7-6.3,32.1,0.7c-0.3-13.5-42.9-49.6-23.6-46.3
				c29.9,5.1,42.3,38.7,35.7,56.7L110.4,326.2z"/>
		</g>
		<g>
			<path d="M228.3,168.1H127.8c-0.6,0-1-0.4-1-1s0.4-1,1-1h100.5c0.6,0,1,0.4,1,1S228.9,168.1,228.3,168.1z"/>
		</g>
		<g>
			<path d="M271,183.1H112.3c-0.6,0-1-0.4-1-1s0.4-1,1-1H271c0.6,0,1,0.4,1,1S271.5,183.1,271,183.1z"/>
		</g>
		<g>
			<path d="M231.4,198.1h-68c-0.6,0-1-0.4-1-1s0.4-1,1-1h68c0.6,0,1,0.4,1,1S232,198.1,231.4,198.1z"/>
		</g>
		<g>
			<path d="M500.9,348.2H379.5c-0.6,0-1-0.4-1-1s0.4-1,1-1h121.4c0.6,0,1,0.4,1,1S501.4,348.2,500.9,348.2z"/>
		</g>
		<g>
			<path d="M484.3,363.2h-55.9c-0.6,0-1-0.4-1-1s0.4-1,1-1h55.9c0.6,0,1,0.4,1,1S484.8,363.2,484.3,363.2z"/>
		</g>
		<g>
			<path class="st2" d="M142.9,377.7c-5.6-5.4-16.5-14.8-13.2-19.4c3.3-4.6,15.3,3,17.4,11.3c-8.1-30.2-20.9-39.2-15.8-42.8
				c5.1-3.6,25,8.6,22.9,37.3c0,0,2.2-6.8,3.8-12.5c1.6-5.7,12.5,6.6,1.9,21.3"/>
			<path d="M142.9,378.7c-0.2,0-0.5-0.1-0.7-0.3c-0.6-0.6-1.2-1.2-1.9-1.8c-6.3-5.9-14.9-14-11.4-18.9c1.1-1.5,3-2.1,5.4-1.7
				c3,0.6,6.6,2.8,9.5,5.8c-3.7-11.2-7.9-18.8-10.9-24.2c-3.4-6.2-5.3-9.6-2.2-11.8c1.9-1.4,5.2-0.9,8.8,1.1
				c7.2,4.1,15,14.2,15.8,30.2c0.6-1.9,1.2-4,1.8-6c0.5-1.7,1.5-2.1,2.1-2.1c1.4-0.2,3.1,0.9,4.3,3c2.6,4.4,3.4,12.5-2.8,21.2
				c-0.3,0.4-0.9,0.5-1.4,0.2c-0.4-0.3-0.5-0.9-0.2-1.4c5.7-7.9,5-15.2,2.7-19.1c-1-1.6-2-2.2-2.4-2.1c-0.3,0-0.4,0.5-0.5,0.7
				c-1.6,5.6-3.8,12.5-3.8,12.6c-0.2,0.5-0.6,0.8-1.1,0.7c-0.5-0.1-0.8-0.6-0.8-1.1c1.4-19-7-30.8-14.7-35.2
				c-3.2-1.8-5.6-1.9-6.6-1.2c-1.5,1.1-0.6,3.1,2.8,9.2c3.6,6.6,9.1,16.4,13.4,32.2c0,0.1,0.1,0.3,0.1,0.4c0.1,0.5-0.2,1.1-0.7,1.2
				c-0.5,0.1-1.1-0.2-1.2-0.7c0-0.1-0.1-0.2-0.1-0.4c-1.6-5.5-7.7-10.6-12.1-11.4c-1.6-0.3-2.7,0-3.4,0.9
				c-2.5,3.4,6.1,11.5,11.2,16.3c0.7,0.6,1.3,1.3,1.9,1.8c0.4,0.4,0.4,1,0,1.4C143.5,378.6,143.2,378.7,142.9,378.7z"/>
		</g>
		<g>
			<polygon class="st5" points="252.9,300.5 349.5,311.7 311.8,283.4 			"/>
		</g>
		<g>
			<path class="st0" d="M323.7,211c-2.8,0-5.2-2.2-5.5-5c-0.3-2.9-0.4-5.8-0.4-8.7c0-5.8,0.4-11.6,1.4-17.1c0.5-3,3.3-5,6.3-4.5
				c3,0.5,5,3.3,4.5,6.3c-0.8,5-1.2,10.1-1.2,15.3c0,2.6,0.1,5.2,0.4,7.8c0.3,3-2,5.7-5,6C324,211,323.9,211,323.7,211z"/>
		</g>
		<g>
			<path class="st0" d="M331.9,163.2c-0.8,0-1.6-0.2-2.4-0.5c-2.7-1.3-3.9-4.6-2.6-7.3c12.8-26.9,37.1-45.4,66.9-50.8
				c3-0.5,5.8,1.4,6.4,4.4c0.5,3-1.4,5.8-4.4,6.4c-26.2,4.7-47.7,21-58.9,44.7C336,162,334,163.2,331.9,163.2z"/>
		</g>
	</g>
</g>
</svg>
