<?xml version="1.0" encoding="utf-8"?>
<!-- Generator: Adobe Illustrator 26.5.0, SVG Export Plug-In . SVG Version: 6.00 Build 0)  -->
<svg version="1.1" xmlns="http://www.w3.org/2000/svg" xmlns:xlink="http://www.w3.org/1999/xlink" x="0px" y="0px"
	 viewBox="0 0 640 480" style="enable-background:new 0 0 640 480;" xml:space="preserve">
<style type="text/css">
	.st0{fill:#7AE5C1;}
	.st1{filter:url(#Adobe_OpacityMaskFilter);}
	.st2{fill:#FFFFFF;}
	.st3{mask:url(#SVGID_1_);}
	.st4{fill:#21D099;}
	.st5{fill:#403E56;}
	.st6{fill:none;stroke:#000000;stroke-width:1.8;stroke-linecap:round;stroke-linejoin:round;stroke-miterlimit:10;}
	.st7{fill:none;stroke:#FFFFFF;stroke-width:3;stroke-linecap:round;stroke-linejoin:round;stroke-miterlimit:10;}
	.st8{filter:url(#Adobe_OpacityMaskFilter_00000067221016510309192810000004434620029532556169_);}
	.st9{mask:url(#SVGID_00000139270137975110441670000005903475281601715592_);}
	.st10{filter:url(#Adobe_OpacityMaskFilter_00000008829429569682043320000016153292883796544418_);}
	.st11{fill:#FFFFFF;stroke:#000000;stroke-width:0.75;stroke-miterlimit:10;}
	.st12{mask:url(#SVGID_00000047051821685867324130000005622934592280625062_);}
	.st13{filter:url(#Adobe_OpacityMaskFilter_00000061441798438920291930000011587503846932006791_);}
	.st14{mask:url(#SVGID_00000031924814772341205900000009016550755712618900_);}
	.st15{fill:#FFFFFF;stroke:#000000;stroke-width:1.8;stroke-linecap:round;stroke-linejoin:round;stroke-miterlimit:10;}
</style>
<g id="_x34_">
	<g>
		<g>
			<path class="st0" d="M479.2,312.5c-26.7,52.9-90.8,69.9-159.2,63c-32-3.2-88,4.6-114.7,3.2c-36.3-2-57-26.1-41.9-55.3
				c10.5-20.3,26.7-31.4,39.1-41.4c42.9-34.8,45.3-38.9,53.5-105c3.6-28.5,6.8-63.3,33-80.9c25.3-17,58.6-3.5,69.3,22.6
				c11.6,28.2,6.2,64.6,25.3,90C411.1,245.3,513.1,245.4,479.2,312.5z"/>
		</g>
		<defs>
			<filter id="Adobe_OpacityMaskFilter" filterUnits="userSpaceOnUse" x="202.8" y="229.6" width="228.2" height="163.5">
				<feColorMatrix  type="matrix" values="1 0 0 0 0  0 1 0 0 0  0 0 1 0 0  0 0 0 1 0"/>
			</filter>
		</defs>
		<mask maskUnits="userSpaceOnUse" x="202.8" y="229.6" width="228.2" height="163.5" id="SVGID_1_">
			<g class="st1">
				<path class="st2" d="M479.2,312.5c-26.7,52.9-90.8,69.9-159.2,63c-32-3.2-88,4.6-114.7,3.2c-36.3-2-57-26.1-41.9-55.3
					c10.5-20.3,26.7-31.4,39.1-41.4c42.9-34.8,45.3-38.9,53.5-105c3.6-28.5,6.8-63.3,33-80.9c25.3-17,58.6-3.5,69.3,22.6
					c11.6,28.2,6.2,64.6,25.3,90C411.1,245.3,513.1,245.4,479.2,312.5z"/>
			</g>
		</mask>
		<g class="st3">
			<path class="st4" d="M202.8,382.4c12.5-3.6,31.7-22.1,47-45.6c16.9-25.9,26.6-45.6,37.4-47.7c8.5-1.6,13.2,6,13.2,6
				s-13,19.2-13.5,29.6c-0.7,13.8,22.8-30.1,28.8-50.4s12.3-44.2,22.6-44.7c10.3-0.5,20.6,25.3,27.4,58.5
				c6.5,31.5,6.1,29.5,6.1,29.5c-11-0.3-28.4,15.6-27.4,22.8c0.8,5.8,14.2-18,38-13.9c23.8,4.2,38.8,25.2,48.5,35.9
				C404,392.3,256.8,403,202.8,382.4z"/>
		</g>
		<g>
			<path d="M235.2,298.2c-0.3,0-0.6-0.2-0.8-0.4l-69.2-119.2l-33.4,58.2c-0.2,0.4-0.8,0.6-1.2,0.3c-0.4-0.2-0.6-0.8-0.3-1.2
				l34.2-59.6c0.2-0.3,0.5-0.5,0.8-0.5c0,0,0,0,0,0c0.3,0,0.6,0.2,0.8,0.4l70,120.6c0.2,0.4,0.1,1-0.3,1.2
				C235.5,298.1,235.4,298.2,235.2,298.2z"/>
		</g>
		<g>
			<path d="M555,260.4c-0.3,0-0.6-0.2-0.8-0.4l-44-75.7c-0.2-0.4-0.1-1,0.3-1.2c0.4-0.2,1-0.1,1.2,0.3l44,75.7
				c0.2,0.4,0.1,1-0.3,1.2C555.4,260.3,555.2,260.4,555,260.4z"/>
		</g>
		<g>
			<path d="M390.6,260.4c-0.2,0-0.3,0-0.5-0.1c-0.4-0.2-0.6-0.8-0.3-1.2l42.9-73.7c0.2-0.4,0.8-0.6,1.2-0.3c0.4,0.2,0.6,0.8,0.3,1.2
				l-42.9,73.7C391.2,260.2,390.9,260.4,390.6,260.4z"/>
		</g>
		<g>
			<path class="st0" d="M486.3,184.3c9.3-4.4,15.1-9.6,17.3-6.9c2.8,3.6-4.1,9.7-8.4,13.3c-4.4,3.7-10,7.1-10,7.1
				c3.6,10.3,4.3,31.3,0,31.4c-5.2,0.2-6.2-15.1-12.1-21.3c-3.4,10.2-17,23.3-21,21.5c-5.5-2.4,7.8-14.9,9.1-27.1
				c-11.1,0.8-25.3,0-24.6-5.2c0.5-3.6,6.7-3.3,19.1-4.5C465.7,191.6,476.1,189.1,486.3,184.3z"/>
			<path d="M452.9,230.5c-0.4,0-0.8-0.1-1.2-0.2c-0.9-0.4-1.4-1-1.7-1.8c-0.7-2.3,1.1-5.5,3.7-10.1c2.5-4.4,5.6-9.8,6.5-15.1
				c-5.7,0.3-19.7,0.7-23.5-3.4c-0.8-0.8-1.1-1.8-1-2.9c0.5-3.6,4.8-4,13.4-4.7c1.9-0.2,4.1-0.3,6.5-0.6c10.7-1.1,20.9-3.8,30.3-8.2
				l0,0c3-1.4,5.6-2.9,8-4.2c5.1-2.9,8.5-4.8,10.4-2.4c3.2,4-2.9,9.9-8.5,14.6c-3.6,3-7.9,5.8-9.5,6.7c3,9.2,4,26.2,1,30.7
				c-0.7,1-1.5,1.2-2,1.3c-3.5,0.1-5.1-4.6-7.1-10.1c-1.3-3.6-2.7-7.6-4.7-10.4c-3.4,8.2-12.4,17.7-18,20.2
				C454.5,230.3,453.6,230.5,452.9,230.5z M461.2,201.4c0.2,0,0.5,0.1,0.6,0.3c0.2,0.2,0.3,0.5,0.2,0.7c-0.6,6-4.1,12-6.8,16.9
				c-2.1,3.7-4.1,7.1-3.6,8.6c0.1,0.2,0.2,0.5,0.7,0.7c0.4,0.2,1.3,0.1,2.2-0.4c5.5-2.4,14.9-12.6,17.6-20.6
				c0.1-0.3,0.4-0.5,0.7-0.6c0.3-0.1,0.6,0,0.8,0.3c2.8,3,4.5,7.9,6,12.1c1.6,4.6,3.2,9,5.3,8.9c0.2,0,0.4-0.2,0.6-0.5
				c2.6-3.8,1.8-20.7-1.4-29.7c-0.1-0.4,0-0.8,0.4-1.1c0.1,0,5.5-3.4,9.9-7c2.7-2.2,10.8-8.9,8.3-12.1c-1-1.2-4.1,0.6-8.1,2.8
				c-2.3,1.3-5,2.9-8.1,4.3c-9.6,4.5-19.9,7.3-30.8,8.4c-2.4,0.2-4.6,0.4-6.6,0.6c-7.9,0.6-11.4,1-11.7,3.1c-0.1,0.5,0.1,1,0.5,1.4
				C440.6,201.5,451.5,202.1,461.2,201.4C461.2,201.4,461.2,201.4,461.2,201.4z"/>
		</g>
		<g>
			
				<ellipse transform="matrix(0.9644 -0.2646 0.2646 0.9644 -11.7014 122.6595)" class="st5" cx="449.5" cy="104.8" rx="5.7" ry="8.5"/>
			<path d="M450.7,114c-1.4,0-2.8-0.6-4.1-1.7c-1.6-1.4-2.9-3.5-3.5-5.8l0,0c-0.7-2.4-0.6-4.8,0-6.8c0.7-2.1,2.1-3.6,3.9-4.1
				c3.5-1,7.5,2.3,8.9,7.4c1.4,5-0.4,9.9-3.9,10.9C451.5,114,451.1,114,450.7,114z M448.2,97.3c-0.3,0-0.5,0-0.8,0.1
				c-1.2,0.3-2.1,1.4-2.6,2.9c-0.6,1.7-0.6,3.7,0,5.7c0,0,0,0,0,0c0.6,2,1.6,3.8,2.9,4.9c1.2,1.1,2.6,1.5,3.8,1.2
				c2.5-0.7,3.7-4.7,2.6-8.7C453.2,99.9,450.6,97.3,448.2,97.3z"/>
		</g>
		<g>
			<path class="st5" d="M506.2,148.3c0,0,2.6-2,3.4-2.7c4.1-4.1,4.1-8.7,2.5-13.3c-0.4-1.1-0.7-2.4-1-3.1c-2.5-6.5-6.8-7.6-12.5-6.3
				l0,0L506.2,148.3z"/>
			<path d="M506.2,149.2c-0.1,0-0.2,0-0.3,0c-0.3-0.1-0.5-0.3-0.6-0.6l-7.5-25.4c-0.1-0.2,0-0.5,0.1-0.7c0.1-0.2,0.3-0.4,0.6-0.4
				c6.8-1.6,11,0.6,13.5,6.8c0.2,0.4,0.4,1.1,0.6,1.7c0.1,0.5,0.3,0.9,0.5,1.4c2,5.8,1.1,10.3-2.8,14.2c-0.8,0.8-3.2,2.6-3.5,2.8
				C506.6,149.1,506.4,149.2,506.2,149.2z M499.8,123.6l6.9,23.2c0.8-0.7,1.9-1.5,2.3-1.9c3.4-3.4,4.1-7.2,2.3-12.4
				c-0.2-0.5-0.3-1-0.5-1.4c-0.2-0.6-0.4-1.2-0.5-1.6C508.3,124.3,505.2,122.6,499.8,123.6z"/>
		</g>
		<g>
			<path class="st5" d="M426.7,148.9l8.2,27.6c0,0-2.8,0.5-4.2,0.7c-4.3,0.8-9.1-1.8-11.1-6.7c-0.7-1.6-1.4-3.6-2.1-6.6
				c-0.7-3.1-0.2-7.6,4.6-11.3c1.5-1.2,4.1-2.8,4.5-3.2"/>
			<path d="M429.2,178.3c-4.4,0-8.6-2.9-10.4-7.4c-0.7-1.8-1.5-3.8-2.2-6.8c-0.5-2.2-0.9-7.6,5-12.2c1.3-1,3.3-2.4,4.2-2.9
				c0-0.4,0.2-0.8,0.6-0.9c0.5-0.1,1,0.1,1.1,0.6l8.2,27.6c0.1,0.2,0,0.5-0.1,0.7s-0.4,0.4-0.6,0.4l-4.2,0.7
				C430.3,178.3,429.8,178.3,429.2,178.3z M426.3,150.8c-1,0.7-2.6,1.7-3.6,2.5c-4.9,3.8-4.8,8.1-4.3,10.4c0.6,2.8,1.4,4.8,2.1,6.5
				c1.7,4.3,6,6.9,10.1,6.2l3.2-0.6L426.3,150.8z"/>
		</g>
		<g>
			<path class="st0" d="M433.3,174.4c3.2,5.3,9.4,8.1,15.5,7.1c7.3-1.1,15.6-3,24.6-5.9c9.6-3.2,17.8-6.9,24.6-10.6
				c4.9-2.6,8-7.6,8.2-13.2c0.1-4.8-0.4-10.7-2.3-17.2c-1.3-4.4-3.1-8.2-5-11.4c-3.3-5.6-9.7-8.5-16.1-7.4c-6.5,1.2-14,3-21.9,6.1
				c-11.6,4.4-20.8,10-27.6,15.1c-3.8,2.8-6.2,7.2-6.5,11.9c-0.2,3.7,0.1,8.1,1.3,13C429.3,166.9,431.2,171.1,433.3,174.4z"/>
			<g>
				<path class="st5" d="M505.9,154.4c-0.9,4.5-3.8,8.4-7.9,10.7c-6.8,3.7-15.1,7.4-24.6,10.6c-9,2.9-17.3,4.8-24.6,5.9
					c-6.1,0.9-12.2-1.8-15.5-7.1c-2-3.3-4-7.5-5.3-12.4c-1.2-4.9-1.5-9.3-1.3-13c4.5,13.4,10.4,26.9,22.7,26.5
					C466.2,175,502.2,163.2,505.9,154.4z"/>
			</g>
			<path d="M446.4,182.6c-5.6,0-10.9-2.9-13.9-7.7l0,0c-2.4-4-4.2-8.2-5.4-12.7c-1.1-4.3-1.5-8.8-1.3-13.3c0.2-5,2.7-9.6,6.8-12.6
				c8.6-6.3,18-11.4,27.9-15.2c7.1-2.7,14.6-4.8,22.1-6.1c6.8-1.2,13.6,1.9,17.1,7.8c2.1,3.7,3.8,7.6,5.1,11.6
				c1.7,5.6,2.5,11.5,2.4,17.5c-0.2,5.8-3.5,11.2-8.7,14c-7.9,4.3-16.3,7.8-24.8,10.7c-8,2.6-16.4,4.6-24.7,5.9
				C448.1,182.5,447.2,182.6,446.4,182.6z M485.5,116.5c-0.9,0-1.7,0.1-2.6,0.2c-7.4,1.3-14.7,3.4-21.8,6c-9.7,3.7-19,8.8-27.4,15
				c-3.7,2.7-5.9,6.8-6.1,11.2c-0.2,4.3,0.2,8.6,1.3,12.7c1.1,4.3,2.8,8.4,5.2,12.2c0,0,0,0,0,0c3.1,5,8.8,7.6,14.6,6.7
				c8.3-1.3,16.5-3.2,24.4-5.9c8.4-2.8,16.7-6.3,24.5-10.5c4.6-2.5,7.6-7.2,7.7-12.4c0.1-5.8-0.6-11.4-2.3-16.9
				c-1.2-3.9-2.8-7.7-4.9-11.2C495.5,119.2,490.6,116.5,485.5,116.5z"/>
		</g>
		<g>
			
				<ellipse transform="matrix(0.9644 -0.2646 0.2646 0.9644 -20.5158 133.1367)" class="st2" cx="484" cy="142.7" rx="6.8" ry="9.1"/>
			<path d="M485,152.5c-3.6,0-7.1-3.2-8.4-7.8c0,0,0,0,0,0c-1.4-5.3,0.7-10.5,4.7-11.6c2-0.6,4.2,0,6.1,1.4c1.8,1.4,3.2,3.6,3.9,6.1
				s0.6,5.1-0.3,7.3c-0.9,2.2-2.5,3.8-4.5,4.3C486.1,152.4,485.5,152.5,485,152.5z M478.1,144.3c1.2,4.4,4.8,7.3,8,6.4
				c1.5-0.4,2.7-1.6,3.4-3.4c0.7-1.8,0.8-4.1,0.2-6.2c-0.6-2.2-1.8-4.1-3.4-5.3c-1.5-1.2-3.2-1.6-4.7-1.2
				C478.5,135.6,476.9,139.9,478.1,144.3L478.1,144.3z"/>
		</g>
		<g>
			
				<ellipse transform="matrix(0.9644 -0.2646 0.2646 0.9644 -25.2713 124.8851)" class="st2" cx="450.9" cy="156.3" rx="6.5" ry="8.5"/>
			<path d="M451.9,165.5c-3.4,0-6.8-3-8-7.3c0,0,0,0,0,0c-1.4-5,0.7-9.9,4.5-10.9c1.9-0.5,4-0.1,5.8,1.3c1.7,1.3,3.1,3.4,3.7,5.7
				c0.6,2.4,0.6,4.8-0.3,6.8c-0.8,2.1-2.4,3.6-4.3,4.1C452.9,165.4,452.4,165.5,451.9,165.5z M445.5,157.8c1.1,4.1,4.5,6.8,7.5,6
				c1.4-0.4,2.6-1.5,3.2-3.1c0.7-1.7,0.8-3.8,0.2-5.8c-0.6-2-1.7-3.8-3.1-4.9c-1.4-1.1-3-1.5-4.4-1.1
				C445.9,149.6,444.3,153.6,445.5,157.8L445.5,157.8z"/>
		</g>
		<g>
			<polyline class="st5" points="314.9,356.5 269.3,387.9 370.7,387.9 325.1,356.5 			"/>
			<path d="M370.7,388.8H269.3c-0.4,0-0.7-0.3-0.9-0.6c-0.1-0.4,0-0.8,0.3-1l45.6-31.4c0.4-0.3,1-0.2,1.3,0.2c0.3,0.4,0.2,1-0.2,1.3
				L272.2,387h95.6l-43.2-29.7c-0.4-0.3-0.5-0.8-0.2-1.3c0.3-0.4,0.8-0.5,1.3-0.2l45.6,31.4c0.3,0.2,0.5,0.6,0.3,1
				C371.4,388.5,371.1,388.8,370.7,388.8z"/>
		</g>
		<g>
			<g>
				<polygon class="st2" points="325.1,356.5 325.1,181.7 333.3,145.1 320,105 306.7,145.1 314.9,181.7 314.9,356.5 				"/>
				<path d="M325.1,357.4h-10.2c-0.5,0-0.9-0.4-0.9-0.9V181.8l-8.1-36.5c0-0.2,0-0.3,0-0.5l13.3-40.1c0.1-0.4,0.5-0.6,0.9-0.6
					s0.7,0.2,0.9,0.6l13.3,40.1c0.1,0.2,0.1,0.3,0,0.5l-8.1,36.5v174.7C326,357,325.6,357.4,325.1,357.4z M315.8,355.6h8.4V181.7
					c0-0.1,0-0.1,0-0.2l8.1-36.3L320,107.9l-12.3,37.3l8.1,36.3c0,0.1,0,0.1,0,0.2V355.6z"/>
			</g>
		</g>
		<g>
			<rect x="156.7" y="297.3" class="st4" width="83.2" height="21"/>
		</g>
		<g>
			<rect x="156.7" y="260.9" class="st4" width="46.1" height="57.4"/>
		</g>
		<g>
			<path d="M202.8,261.8h-46.1c-0.5,0-0.9-0.4-0.9-0.9s0.4-0.9,0.9-0.9h46.1c0.5,0,0.9,0.4,0.9,0.9S203.3,261.8,202.8,261.8z"/>
		</g>
		<g>
			<line class="st6" x1="240" y1="297.3" x2="181.7" y2="297.3"/>
			<line class="st6" x1="240" y1="304.3" x2="181.7" y2="304.3"/>
			<line class="st6" x1="240" y1="311.3" x2="181.7" y2="311.3"/>
			<line class="st6" x1="240" y1="318.3" x2="181.7" y2="318.3"/>
		</g>
		<g>
			<line class="st6" x1="202.8" y1="268.7" x2="156.7" y2="268.7"/>
			<line class="st6" x1="202.8" y1="275.7" x2="156.7" y2="275.7"/>
			<line class="st6" x1="202.8" y1="282.7" x2="156.7" y2="282.7"/>
			<line class="st6" x1="202.8" y1="289.7" x2="156.7" y2="289.7"/>
		</g>
		<g>
			<path class="st4" d="M125.9,275.7v42.6h-7.8v-37.7c0-2.1,1.5-3.8,3.5-4.1C123.3,276.3,124.7,276,125.9,275.7z"/>
		</g>
		<g>
			<path d="M130.4,319.1H99c-0.5,0-0.9-0.4-0.9-0.9v-50.5c0-0.5,0.4-0.9,0.9-0.9s0.9,0.4,0.9,0.9v49.6h29.6v-49.6
				c0-0.5,0.4-0.9,0.9-0.9s0.9,0.4,0.9,0.9v50.5C131.3,318.7,130.9,319.1,130.4,319.1z"/>
		</g>
		<g>
			<ellipse class="st4" cx="114.7" cy="267.6" rx="15.7" ry="4.1"/>
			<path d="M114.7,272.6c-8,0-16.6-1.6-16.6-5c0-3.4,8.6-5,16.6-5s16.6,1.6,16.6,5C131.3,271,122.7,272.6,114.7,272.6z M114.7,264.4
				c-9.6,0-14.8,2.1-14.8,3.2s5.2,3.2,14.8,3.2s14.8-2.1,14.8-3.2S124.3,264.4,114.7,264.4z"/>
		</g>
		<g>
			<polyline class="st2" points="156.6,243.5 156.6,318.2 125.3,318.2 125.3,243.5 			"/>
			<path d="M156.6,319.1h-31.4c-0.5,0-0.9-0.4-0.9-0.9v-74.7c0-0.5,0.4-0.9,0.9-0.9s0.9,0.4,0.9,0.9v73.8h29.6v-73.8
				c0-0.5,0.4-0.9,0.9-0.9s0.9,0.4,0.9,0.9v74.7C157.5,318.7,157.1,319.1,156.6,319.1z"/>
		</g>
		<g>
			<ellipse class="st4" cx="141" cy="243.5" rx="15.7" ry="4.1"/>
			<path d="M141,248.4c-8,0-16.6-1.6-16.6-5c0-3.4,8.6-5,16.6-5s16.6,1.6,16.6,5C157.5,246.9,148.9,248.4,141,248.4z M141,240.3
				c-9.6,0-14.8,2.1-14.8,3.2s5.2,3.2,14.8,3.2s14.8-2.1,14.8-3.2S150.5,240.3,141,240.3z"/>
		</g>
		<g>
			<path class="st4" d="M152.2,251.5v66.8h-7.8v-61.9c0-2.1,1.5-3.8,3.5-4.1C149.6,252.1,151,251.8,152.2,251.5z"/>
		</g>
		<g>
			<polyline class="st2" points="181.7,283.4 181.7,318.2 150.4,318.2 150.4,283.4 			"/>
			<path d="M181.7,319.1h-31.4c-0.5,0-0.9-0.4-0.9-0.9v-34.8c0-0.5,0.4-0.9,0.9-0.9s0.9,0.4,0.9,0.9v33.9h29.6v-33.9
				c0-0.5,0.4-0.9,0.9-0.9s0.9,0.4,0.9,0.9v34.8C182.6,318.7,182.2,319.1,181.7,319.1z"/>
		</g>
		<g>
			<ellipse class="st4" cx="166.1" cy="283.4" rx="15.7" ry="4.1"/>
			<path d="M166.1,288.3c-8,0-16.6-1.6-16.6-5c0-3.4,8.6-5,16.6-5s16.6,1.6,16.6,5C182.6,286.8,174.1,288.3,166.1,288.3z
				 M166.1,280.2c-9.6,0-14.8,2.1-14.8,3.2s5.2,3.2,14.8,3.2s14.8-2.1,14.8-3.2S175.6,280.2,166.1,280.2z"/>
		</g>
		<g>
			<path class="st4" d="M177.2,291.4v26.8h-7.8v-22c0-2.1,1.5-3.8,3.5-4.1C174.5,292,175.9,291.8,177.2,291.4z"/>
		</g>
		<g>
			<path class="st6" d="M136.8,254.8c-6.6-0.5-11.5-2-11.5-3.7"/>
			<path class="st6" d="M136.8,263.1c-6.6-0.5-11.5-2-11.5-3.7"/>
			<path class="st6" d="M136.8,271.3c-6.6-0.5-11.5-2-11.5-3.7"/>
			<path class="st6" d="M136.8,279.5c-6.6-0.5-11.5-2-11.5-3.7"/>
			<path class="st6" d="M136.8,287.8c-6.6-0.5-11.5-2-11.5-3.7"/>
			<path class="st6" d="M136.8,296c-6.6-0.5-11.5-2-11.5-3.7"/>
			<path class="st6" d="M136.8,304.2c-6.6-0.5-11.5-2-11.5-3.7"/>
			<path class="st6" d="M136.8,312.5c-6.6-0.5-11.5-2-11.5-3.7"/>
		</g>
		<g>
			<g>
				<path d="M161.9,295.3C161.9,295.3,161.9,295.3,161.9,295.3c-3-0.2-12.4-1.1-12.4-4.6c0-0.5,0.4-0.9,0.9-0.9s0.9,0.4,0.9,0.9
					c0,0.6,3.1,2.3,10.7,2.8c0.5,0,0.9,0.5,0.8,1C162.8,294.9,162.4,295.3,161.9,295.3z"/>
			</g>
			<g>
				<path d="M161.9,303.5C161.9,303.5,161.9,303.5,161.9,303.5c-3-0.2-12.4-1.1-12.4-4.6c0-0.5,0.4-0.9,0.9-0.9s0.9,0.4,0.9,0.9
					c0,0.6,3.1,2.3,10.7,2.8c0.5,0,0.9,0.5,0.8,1C162.8,303.2,162.4,303.5,161.9,303.5z"/>
			</g>
			<g>
				<path d="M161.9,311.8C161.9,311.8,161.9,311.8,161.9,311.8c-3-0.2-12.4-1.1-12.4-4.6c0-0.5,0.4-0.9,0.9-0.9s0.9,0.4,0.9,0.9
					c0,0.6,3.1,2.3,10.7,2.8c0.5,0,0.9,0.5,0.8,1C162.8,311.4,162.4,311.8,161.9,311.8z"/>
			</g>
		</g>
		<g>
			<g>
				<path d="M110.6,279.8C110.5,279.8,110.5,279.8,110.6,279.8c-3-0.2-12.4-1.1-12.4-4.6c0-0.5,0.4-0.9,0.9-0.9s0.9,0.4,0.9,0.9
					c0,0.6,3.1,2.3,10.7,2.8c0.5,0,0.9,0.5,0.8,1C111.4,279.4,111,279.8,110.6,279.8z"/>
			</g>
			<g>
				<path d="M110.6,288C110.5,288,110.5,288,110.6,288c-3-0.2-12.4-1.1-12.4-4.6c0-0.5,0.4-0.9,0.9-0.9s0.9,0.4,0.9,0.9
					c0,0.6,3.1,2.3,10.7,2.8c0.5,0,0.9,0.5,0.8,1C111.4,287.6,111,288,110.6,288z"/>
			</g>
			<g>
				<path d="M110.6,296.2C110.5,296.2,110.5,296.2,110.6,296.2c-3-0.2-12.4-1.1-12.4-4.6c0-0.5,0.4-0.9,0.9-0.9s0.9,0.4,0.9,0.9
					c0,0.6,3.1,2.3,10.7,2.8c0.5,0,0.9,0.5,0.8,1C111.4,295.9,111,296.2,110.6,296.2z"/>
			</g>
			<g>
				<path d="M110.6,304.5C110.5,304.5,110.5,304.5,110.6,304.5c-3-0.2-12.4-1.1-12.4-4.6c0-0.5,0.4-0.9,0.9-0.9s0.9,0.4,0.9,0.9
					c0,0.6,3.1,2.3,10.7,2.8c0.5,0,0.9,0.5,0.8,1C111.4,304.1,111,304.5,110.6,304.5z"/>
			</g>
			<g>
				<path d="M110.6,312.7C110.5,312.7,110.5,312.7,110.6,312.7c-3-0.2-12.4-1.1-12.4-4.6c0-0.5,0.4-0.9,0.9-0.9s0.9,0.4,0.9,0.9
					c0,0.6,3.1,2.3,10.7,2.8c0.5,0,0.9,0.5,0.8,1C111.4,312.3,111,312.7,110.6,312.7z"/>
			</g>
			<g>
				<path d="M110.6,320.9C110.5,320.9,110.5,320.9,110.6,320.9c-3-0.2-12.4-1.1-12.4-4.6c0-0.5,0.4-0.9,0.9-0.9s0.9,0.4,0.9,0.9
					c0,0.6,3.1,2.3,10.7,2.8c0.5,0,0.9,0.5,0.8,1C111.4,320.6,111,320.9,110.6,320.9z"/>
			</g>
		</g>
		<g>
			<g>
				<polygon class="st5" points="527.8,282.5 417.9,282.5 390.6,259.5 555,259.5 				"/>
				<path d="M527.8,283.4h-110c-0.2,0-0.4-0.1-0.6-0.2l-27.2-23c-0.3-0.2-0.4-0.6-0.3-1c0.1-0.4,0.5-0.6,0.8-0.6H555
					c0.4,0,0.7,0.2,0.8,0.6c0.1,0.4,0,0.8-0.3,1l-27.2,23C528.2,283.3,528,283.4,527.8,283.4z M418.2,281.6h109.3l25.1-21.2H393.1
					L418.2,281.6z"/>
			</g>
			<g>
				<path d="M417.9,282.5l-1.8-1.5l90.5-4.3c6.5-0.3,12.4-3.7,15.9-9.2l5.1-7.9H555l-27.2,23H417.9z"/>
			</g>
		</g>
		<g>
			<g>
				<polygon class="st5" points="220.2,341.3 110.2,341.3 83,318.3 247.4,318.3 				"/>
				<path d="M220.2,342.2h-110c-0.2,0-0.4-0.1-0.6-0.2l-27.2-23c-0.3-0.2-0.4-0.6-0.3-1c0.1-0.4,0.5-0.6,0.8-0.6h164.4
					c0.4,0,0.7,0.2,0.8,0.6c0.1,0.4,0,0.8-0.3,1l-27.2,23C220.6,342.1,220.4,342.2,220.2,342.2z M110.6,340.4h109.3l25.1-21.2H85.5
					L110.6,340.4z"/>
			</g>
			<g>
				<path d="M110.2,341.3l-1.8-1.5l90.5-4.3c6.5-0.3,12.4-3.7,15.9-9.2l5.1-7.9h27.6l-27.2,23H110.2z"/>
			</g>
		</g>
		<g>
			<g>
				<path class="st2" d="M436.2,159.7c-0.6,0-1.1-0.4-1.3-1c-0.6-2-1.1-4-1.3-6.1c-0.1-0.8,0.5-1.5,1.2-1.5c0.8-0.1,1.5,0.5,1.5,1.2
					c0.2,1.9,0.6,3.7,1.2,5.5c0.2,0.7-0.2,1.5-0.9,1.8C436.5,159.7,436.3,159.7,436.2,159.7z"/>
			</g>
			<g>
				<path class="st2" d="M435,148.4c-0.1,0-0.2,0-0.3,0c-0.8-0.2-1.2-0.9-1-1.7c0.7-2.9,2.5-5.4,5-7.2c3.7-2.5,7.7-4.9,11.8-6.9
					c0.7-0.3,1.5,0,1.9,0.6s0,1.5-0.6,1.9c-4,1.9-7.9,4.2-11.5,6.7c-2,1.4-3.4,3.3-3.9,5.5C436.2,147.9,435.6,148.4,435,148.4z"/>
			</g>
		</g>
		<g>
			<polygon class="st2" points="316.5,362.2 301.6,384.7 292.1,384.7 			"/>
		</g>
		<g>
			<path class="st5" d="M310.4,145.1h16.3l-4,1c-4.2,1.1-4.6,3.2-4.5,6l0.4,19.4l-4.4-20.3C313.5,148.8,311.3,145.4,310.4,145.1
				L310.4,145.1z"/>
			<path class="st5" d="M318.5,171.8c-0.1,0-0.2-0.1-0.2-0.2l-4.4-20.3c-0.5-2.4-2.7-5.8-3.5-5.9c-0.1,0-0.2-0.1-0.2-0.3
				c0-0.1,0.1-0.2,0.2-0.2h16.3c0.1,0,0.2,0.1,0.2,0.2c0,0.1-0.1,0.2-0.2,0.3l-4,1c-4.2,1.1-4.4,3.2-4.4,5.8l0.4,19.4
				C318.7,171.7,318.7,171.8,318.5,171.8C318.5,171.8,318.5,171.8,318.5,171.8z M311.2,145.4c1.2,1.1,2.7,3.9,3.1,5.8l3.9,17.8
				l-0.3-16.8c-0.1-2.6,0.2-5,4.7-6.3l2-0.5H311.2z"/>
		</g>
		<g>
			<polygon points="325.1,356.5 370.7,387.9 345.2,387.9 			"/>
		</g>
		<g>
			<g>
				<circle class="st2" cx="320" cy="89.6" r="6.8"/>
				<path d="M320,97.3c-4.3,0-7.7-3.5-7.7-7.7s3.5-7.7,7.7-7.7c4.3,0,7.7,3.5,7.7,7.7S324.3,97.3,320,97.3z M320,83.6
					c-3.3,0-5.9,2.7-5.9,5.9s2.7,5.9,5.9,5.9s5.9-2.7,5.9-5.9S323.3,83.6,320,83.6z"/>
			</g>
			<g>
				<path class="st5" d="M326,92.8c-1.2,2.2-3.4,3.6-6,3.6c-3.8,0-6.8-3.1-6.8-6.8c0-1.4,0.4-2.7,1.1-3.7l0,0
					C315.4,92.2,317.9,94.1,326,92.8L326,92.8z"/>
			</g>
		</g>
		<g>
			<path d="M345.2,137.4c-0.5,0-0.9-0.3-1-0.8c-0.1-0.5,0.3-1.1,0.8-1.1l91.4-15c0.5-0.1,1.1,0.3,1.1,0.8c0.1,0.5-0.3,1.1-0.8,1.1
				l-91.4,15C345.3,137.4,345.2,137.4,345.2,137.4z"/>
		</g>
		<g>
			<path d="M165.2,166.9c-0.5,0-0.9-0.3-1-0.8c-0.1-0.5,0.3-1.1,0.8-1.1l125.3-20.6c0.5-0.1,1.1,0.3,1.1,0.8s-0.3,1.1-0.8,1.1
				l-125.3,20.6C165.3,166.9,165.3,166.9,165.2,166.9z"/>
		</g>
		<g>
			<path d="M514.9,306.4H412c-0.6,0-1-0.4-1-1s0.4-1,1-1h102.9c0.6,0,1,0.4,1,1S515.5,306.4,514.9,306.4z"/>
		</g>
		<g>
			<path d="M556,320.6H394.9c-0.6,0-1-0.4-1-1s0.4-1,1-1H556c0.6,0,1,0.4,1,1S556.6,320.6,556,320.6z"/>
		</g>
		<g>
			<path d="M508.2,334.8h-64.8c-0.6,0-1-0.4-1-1s0.4-1,1-1h64.8c0.6,0,1,0.4,1,1S508.7,334.8,508.2,334.8z"/>
		</g>
		<g>
			<path d="M242,194.6h-79.6c-0.6,0-1-0.4-1-1s0.4-1,1-1H242c0.6,0,1,0.4,1,1S242.6,194.6,242,194.6z"/>
		</g>
		<g>
			<path d="M155.5,194.6H69.2c-0.6,0-1-0.4-1-1s0.4-1,1-1h86.3c0.6,0,1,0.4,1,1S156.1,194.6,155.5,194.6z"/>
		</g>
		<g>
			<path d="M147.4,208.8H38.4c-0.6,0-1-0.4-1-1s0.4-1,1-1h108.9c0.6,0,1,0.4,1,1S147.9,208.8,147.4,208.8z"/>
		</g>
		<g>
			<path d="M139.2,223H83c-0.6,0-1-0.4-1-1s0.4-1,1-1h56.2c0.6,0,1,0.4,1,1S139.8,223,139.2,223z"/>
		</g>
		<g>
			<path d="M165.2,223h-19.1c-0.6,0-1-0.4-1-1s0.4-1,1-1h19.1c0.6,0,1,0.4,1,1S165.8,223,165.2,223z"/>
		</g>
		<g>
			<path d="M198.4,208.8h-44.1c-0.6,0-1-0.4-1-1s0.4-1,1-1h44.1c0.6,0,1,0.4,1,1S198.9,208.8,198.4,208.8z"/>
		</g>
		<g>
			<path class="st0" d="M238.4,215c-3.2,13-11.4,21.2-18.8,20.3c-6-1,5.8-5.8,4-19.5c-2.8-21.2-12.1-39.4,3.2-37.6
				C237.9,179.6,242.4,198.8,238.4,215z"/>
			<path class="st0" d="M454.8,377.4c-11.8,8.3-35.7,4.5-37.2,2.7c-3.3-3.8,10.6-3,23.1-9.4c11.3-5.8,16.4-13.2,19.7-11.2
				C463.6,361.4,465.2,370.1,454.8,377.4z"/>
		</g>
	</g>
</g>
<g id="_x33_">
</g>
<g id="_x32_">
</g>
<g id="_x31_">
</g>
</svg>
