<?xml version="1.0" encoding="utf-8"?>
<!-- Generator: Adobe Illustrator 26.5.0, SVG Export Plug-In . SVG Version: 6.00 Build 0)  -->
<svg version="1.1" xmlns="http://www.w3.org/2000/svg" xmlns:xlink="http://www.w3.org/1999/xlink" x="0px" y="0px"
	 viewBox="0 0 640 480" style="enable-background:new 0 0 640 480;" xml:space="preserve">
<style type="text/css">
	.st0{fill:#7AE5C1;}
	.st1{filter:url(#Adobe_OpacityMaskFilter);}
	.st2{fill:#FFFFFF;}
	.st3{mask:url(#SVGID_1_);}
	.st4{fill:#21D099;}
	.st5{fill:#403E56;}
	.st6{fill:none;stroke:#000000;stroke-width:1.8;stroke-linecap:round;stroke-linejoin:round;stroke-miterlimit:10;}
	.st7{fill:none;stroke:#FFFFFF;stroke-width:3;stroke-linecap:round;stroke-linejoin:round;stroke-miterlimit:10;}
	.st8{filter:url(#Adobe_OpacityMaskFilter_00000034068339521052360650000015140755533490635701_);}
	.st9{mask:url(#SVGID_00000127755378441447413970000015201526021772791710_);}
	.st10{filter:url(#Adobe_OpacityMaskFilter_00000096747567475381446070000002827221233402872468_);}
	.st11{fill:#FFFFFF;stroke:#000000;stroke-width:0.75;stroke-miterlimit:10;}
	.st12{mask:url(#SVGID_00000006698750015877308600000006977509527054655922_);}
	.st13{filter:url(#Adobe_OpacityMaskFilter_00000145032173693719921350000002726655068044731274_);}
	.st14{mask:url(#SVGID_00000038402932004717298540000017743069731748537745_);}
	.st15{fill:#FFFFFF;stroke:#000000;stroke-width:1.8;stroke-linecap:round;stroke-linejoin:round;stroke-miterlimit:10;}
</style>
<g id="_x34_">
</g>
<g id="_x33_">
	<g>
		<g>
			<g>
				<path class="st4" d="M517.6,112c0,9.7-29.6,17.5-66.1,17.5H192.7c-23.5,0-42.5,5.3-42.5,11.9c0,6.6,19,11.9,42.5,11.9h64.8
					l-36.3,17.3h-28.5c-46.9,0-84.9-11.1-84.9-24.8c0-13.7,38-24.8,84.9-24.8h258.8c23.5,0,42.6-6,42.6-13.3S475,94.5,451.5,94.5
					C488,94.5,517.6,102.3,517.6,112z"/>
			</g>
		</g>
		<g>
			<g>
				<path d="M150.2,142.4c-0.5,0-0.9-0.4-0.9-0.9c0-8,22.1-12.8,43.4-12.8h258.8c39,0,65.2-8.6,65.2-16.6c0-0.5,0.4-0.9,0.9-0.9
					s0.9,0.4,0.9,0.9c0,10.3-29.4,18.4-67,18.4H192.7c-24.9,0-41.6,5.7-41.6,11C151.1,142,150.7,142.4,150.2,142.4z"/>
			</g>
		</g>
		<g>
			<g>
				<path d="M451.5,95.4H346.2c-0.5,0-0.9-0.4-0.9-0.9s0.4-0.9,0.9-0.9h105.3c0.5,0,0.9,0.4,0.9,0.9S452,95.4,451.5,95.4z"/>
			</g>
		</g>
		<g>
			<g>
				<path d="M306.1,95.4H137.9c-0.5,0-0.9-0.4-0.9-0.9s0.4-0.9,0.9-0.9h168.3c0.5,0,0.9,0.4,0.9,0.9S306.6,95.4,306.1,95.4z"/>
			</g>
		</g>
		<g>
			<g>
				<g>
					<path d="M223.1,171.6h-30.5c-48.1,0-85.8-11.3-85.8-25.7c0-0.5,0.4-0.9,0.9-0.9s0.9,0.4,0.9,0.9c0,13,38.5,23.9,84,23.9h30.5
						c0.5,0,0.9,0.4,0.9,0.9S223.6,171.6,223.1,171.6z"/>
				</g>
			</g>
			<g>
				<g>
					<path d="M494,108.7c-0.5,0-0.9-0.4-0.9-0.9c0-6-16.7-12.4-41.7-12.4c-0.5,0-0.9-0.4-0.9-0.9s0.4-0.9,0.9-0.9
						c24.4,0,43.5,6.2,43.5,14.2C494.9,108.3,494.5,108.7,494,108.7z"/>
				</g>
			</g>
		</g>
		<g>
			<g>
				<path d="M407.2,179.2c-28.5,1.4-57.8,3.7-88,3.7c-28.5,0-57.8-2.2-88-3.7c0-1.2,0-1,0-2.2h175.9V179.2z"/>
			</g>
			<g>
				<path d="M319.3,183.8c-21.2,0-42.4-1.2-64.9-2.5c-7.5-0.4-15.3-0.9-23.1-1.2c-0.5,0-0.9-0.4-0.9-0.9V177c0-0.5,0.4-0.9,0.9-0.9
					h175.9c0.5,0,0.9,0.4,0.9,0.9v2.2c0,0.5-0.4,0.9-0.9,0.9c-7.4,0.4-15,0.8-22.3,1.2C363.6,182.5,341.6,183.8,319.3,183.8z
					 M232.2,178.3c7.5,0.4,15,0.8,22.3,1.2c22.5,1.3,43.7,2.5,64.8,2.5c22.3,0,44.3-1.3,65.6-2.5c7.1-0.4,14.4-0.8,21.5-1.2v-0.5
					H232.2V178.3z M407.2,179.2L407.2,179.2L407.2,179.2z"/>
			</g>
		</g>
		<g>
			<g>
				<g>
					<path class="st2" d="M319.3,177h88l-0.9-4.5c-0.8-4.3-4.8-7.4-9.5-7.6c-45.1-2.4-47.7-24.9-77.6-24.9
						c-29.9,0-32.4,22.5-77.6,24.9c-4.7,0.3-8.7,3.4-9.5,7.6l-0.9,4.5H319.3z"/>
				</g>
				<g>
					<path d="M407.2,177.9H231.3c-0.3,0-0.5-0.1-0.7-0.3c-0.2-0.2-0.2-0.5-0.2-0.7l0.9-4.5c0.9-4.7,5.2-8.1,10.3-8.4
						c24.1-1.3,36-8.4,46.5-14.6c9.2-5.5,17.2-10.3,31.2-10.3s22,4.8,31.2,10.3c10.5,6.3,22.3,13.4,46.5,14.6
						c5.2,0.3,9.4,3.7,10.3,8.4l0.9,4.5c0.1,0.3,0,0.5-0.2,0.7C407.7,177.8,407.5,177.9,407.2,177.9z M232.4,176.1h173.7l-0.7-3.4
						c-0.8-3.8-4.3-6.7-8.7-6.9c-24.6-1.3-36.6-8.5-47.3-14.9c-9-5.4-16.7-10-30.2-10s-21.3,4.6-30.2,10
						c-10.6,6.4-22.7,13.6-47.3,14.9c-4.3,0.2-7.9,3.1-8.7,6.9L232.4,176.1z"/>
				</g>
			</g>
		</g>
		<g>
			<g>
				<path d="M337.6,115c-4.3-40.1-9.1-44.7-17.3-44.7c-8.2,0-13,4.7-17.3,44.7c-4.2,38.5-12.9,61.5-20.1,79.1h37.4h37.4
					C350.5,176.5,341.8,153.5,337.6,115z"/>
			</g>
		</g>
		<g>
			<g>
				<path class="st0" d="M433.3,341.9c-19.9-8.1-29.6-30-38.8-86.4l12.2,6.9c3.1,1.7,6.7-1,5.9-4.4l-7.9-30.6l-56.2-35.3h-28.1
					h-28.1l-56.2,35.3L228,258c-0.9,3.4,2.8,6.2,5.9,4.4l12.2-6.9c-9.2,56.5-18.9,78.3-38.8,86.4c-19.9,8.1-32.7,17.8-33.2,24.4
					h146.2h146.2C465.9,359.7,453.2,350.1,433.3,341.9z"/>
			</g>
			<g>
				<path d="M466.4,367.2H174.1c-0.3,0-0.5-0.1-0.7-0.3c-0.2-0.2-0.3-0.4-0.2-0.7c0.6-7.1,13.8-17,33.7-25.2
					c19.2-7.9,28.9-29.1,38-83.9l-10.6,6c-1.7,1-3.8,0.8-5.4-0.4c-1.6-1.2-2.3-3.2-1.8-5.1l7.9-30.6c0.1-0.2,0.2-0.4,0.4-0.5
					l56.2-35.3c0.1-0.1,0.3-0.1,0.5-0.1h56.3c0.2,0,0.3,0,0.5,0.1l56.2,35.3c0.2,0.1,0.3,0.3,0.4,0.5l7.9,30.6
					c0.5,1.9-0.2,3.9-1.8,5.1c-1.6,1.2-3.7,1.4-5.4,0.4l-10.6-6c9.1,54.8,18.7,76,38,83.9l0,0c19.9,8.1,33.2,18,33.7,25.2
					c0,0.2-0.1,0.5-0.2,0.7C466.9,367.1,466.7,367.2,466.4,367.2z M175.2,365.4h290.2c-1.6-6.3-14.4-15.3-32.5-22.7
					c-20.2-8.2-30.1-30.2-39.4-87.1c-0.1-0.3,0.1-0.7,0.4-0.9c0.3-0.2,0.7-0.2,1,0l12.2,6.9c1.3,0.8,2.6,0.4,3.4-0.2
					c0.8-0.6,1.5-1.8,1.1-3.2l-7.8-30.2l-55.7-34.9h-55.8L236.7,228l-7.8,30.2c-0.4,1.4,0.3,2.6,1.1,3.2c0.8,0.6,2.1,1,3.4,0.2
					l12.2-6.9c0.3-0.2,0.7-0.2,1,0c0.3,0.2,0.4,0.5,0.4,0.9c-9.3,56.9-19.2,78.9-39.4,87.1C189.6,350.2,176.8,359.1,175.2,365.4z"/>
			</g>
		</g>
		<g>
			<g>
				<path d="M319.3,202.8c-35.1,7.2-70.6,40.6-57.4,60.7l57.4-12.8l57.4,12.8C389.9,243.4,354.3,210,319.3,202.8z"/>
			</g>
		</g>
		<g>
			<g>
				<g>
					<path class="st5" d="M279.6,179.5c-7.9,1.5-12.7,2.7-13.1,10.9c-0.4,8.8,1.5,17.5,9.5,19.2c6.2,1.3,8.7,0.4,8.7,0.4
						L279.6,179.5z"/>
				</g>
				<g>
					<path d="M282,211.2c-1.5,0-3.5-0.2-6.2-0.7c-7.2-1.5-10.7-8.5-10.2-20.1c0.4-9.2,6.3-10.3,13.8-11.7c0.2,0,0.5,0,0.7,0.1
						c0.2,0.1,0.3,0.4,0.4,0.6l5.1,30.5c0.1,0.4-0.2,0.9-0.6,1C284.9,210.9,284,211.2,282,211.2z M278.8,180.6
						c-7.5,1.5-11.2,2.7-11.5,9.8c-0.3,7.4,0.9,16.6,8.8,18.3c4,0.9,6.4,0.8,7.5,0.6L278.8,180.6z"/>
				</g>
			</g>
			<g>
				<g>
					<path class="st5" d="M360.4,179.5c7.9,1.5,12.7,2.7,13.1,10.9c0.4,8.8-1.5,17.5-9.5,19.2c-6.2,1.3-8.7,0.4-8.7,0.4L360.4,179.5
						z"/>
				</g>
				<g>
					<path d="M358,211.2c-2,0-2.9-0.3-3-0.3c-0.4-0.1-0.7-0.6-0.6-1l5.1-30.5c0-0.2,0.2-0.5,0.4-0.6c0.2-0.1,0.4-0.2,0.7-0.1
						c7.5,1.4,13.4,2.5,13.8,11.7c0.5,11.6-3,18.6-10.2,20.1C361.5,211,359.5,211.2,358,211.2z M356.3,209.3
						c1.1,0.1,3.5,0.2,7.5-0.6c7.8-1.7,9.1-10.9,8.8-18.3c-0.3-7.1-4-8.4-11.5-9.8L356.3,209.3z"/>
				</g>
			</g>
		</g>
		<g>
			<g>
				<path class="st0" d="M320.3,218.8c-10.1,0-19.4-1.2-27.9-3c-5.5-1.1-10.5-5.5-12-10.4c-1.2-4.1-2.1-8.8-2.3-14
					c-0.1-3.5,0.2-6.8,0.6-9.9c0.8-5,5.1-9.6,10.5-11.2c8.9-2.6,19.3-4.8,31.1-4.8c11.8,0,22.2,2.2,31.1,4.8
					c5.4,1.6,9.7,6.2,10.5,11.2c0.5,3.1,0.7,6.4,0.6,9.9c-0.2,5.2-1.1,9.9-2.3,14c-1.5,4.9-6.5,9.3-12,10.4
					C339.7,217.6,330.3,218.8,320.3,218.8z"/>
			</g>
		</g>
		<g>
			<g>
				<path d="M320.3,219.7c0,0-0.1,0-0.1,0c-8.9,0-18.1-1-28.1-3c-5.8-1.2-11.2-5.9-12.7-11c-1.4-4.8-2.2-9.5-2.3-14.3
					c-0.1-3.3,0.1-6.7,0.6-10.1c0.8-5.3,5.4-10.2,11.1-11.9c11.3-3.3,21.3-4.8,31.3-4.8c0,0,0.1,0,0.1,0c10,0,19.9,1.5,31.3,4.8
					c5.7,1.7,10.3,6.6,11.2,11.9c0.5,3.4,0.7,6.8,0.6,10.1c-0.1,4.7-0.9,9.4-2.3,14.3c-1.5,5.2-6.9,9.8-12.7,11
					C338.5,218.7,329.3,219.7,320.3,219.7z M320.3,217.9C320.3,217.9,320.3,217.9,320.3,217.9c8.9,0,17.9-1,27.8-3
					c5.2-1.1,10-5.2,11.3-9.8c1.4-4.7,2.1-9.2,2.2-13.8c0.1-3.2-0.1-6.5-0.6-9.8c-0.7-4.6-4.8-8.9-9.9-10.4
					c-11.2-3.2-21-4.7-30.8-4.7c0,0,0,0,0,0c-9.8,0-19.6,1.5-30.8,4.7c-5.1,1.5-9.1,5.8-9.9,10.4c-0.5,3.3-0.7,6.6-0.6,9.8
					c0.1,4.6,0.9,9.1,2.2,13.8c1.4,4.6,6.1,8.7,11.3,9.8C302.3,217,311.4,217.9,320.3,217.9C320.2,217.9,320.3,217.9,320.3,217.9z"
					/>
			</g>
		</g>
		<g>
			<g>
				<ellipse class="st2" cx="299.7" cy="195.2" rx="7.6" ry="7.5"/>
			</g>
			<g>
				<path d="M299.7,203.6c-4.6,0-8.4-3.7-8.4-8.3s3.8-8.3,8.4-8.3c4.6,0,8.4,3.7,8.4,8.3S304.3,203.6,299.7,203.6z M299.7,188.5
					c-3.7,0-6.8,3-6.8,6.7s3,6.7,6.8,6.7c3.7,0,6.8-3,6.8-6.7S303.5,188.5,299.7,188.5z"/>
			</g>
		</g>
		<g>
			<g>
				<ellipse class="st2" cx="340.8" cy="195.2" rx="7.6" ry="7.5"/>
			</g>
			<g>
				<path d="M340.8,203.6c-4.6,0-8.4-3.7-8.4-8.3s3.8-8.3,8.4-8.3s8.4,3.7,8.4,8.3S345.5,203.6,340.8,203.6z M340.8,188.5
					c-3.7,0-6.8,3-6.8,6.7s3,6.7,6.8,6.7s6.8-3,6.8-6.7S344.6,188.5,340.8,188.5z"/>
			</g>
		</g>
		<g>
			<g>
				<ellipse class="st5" cx="319.3" cy="148" rx="8.1" ry="8"/>
			</g>
			<g>
				<path class="st2" d="M319.3,157c-5,0-9-4-9-8.9s4-8.9,9-8.9c5,0,9,4,9,8.9S324.2,157,319.3,157z M319.3,140.9
					c-4,0-7.2,3.2-7.2,7.1s3.2,7.1,7.2,7.1s7.2-3.2,7.2-7.1S323.2,140.9,319.3,140.9z"/>
			</g>
		</g>
		<g>
			<g>
				<path class="st2" d="M288.3,179.9c-0.3,0-0.7-0.1-0.9-0.4c-0.6-0.5-0.6-1.4-0.1-2c1.8-2,4.4-3.3,8.1-4.2
					c9.5-2.3,19.4-3.2,28.6-2.7c0.8,0,1.4,0.7,1.3,1.5c0,0.8-0.7,1.4-1.5,1.3c-8.7-0.5-18.6,0.4-27.7,2.6c-3.1,0.8-5.3,1.9-6.7,3.4
					C289.1,179.8,288.7,179.9,288.3,179.9z"/>
			</g>
		</g>
		<g>
			<g>
				<path class="st2" d="M285.1,192.7C285.1,192.7,285,192.7,285.1,192.7c-0.9,0-1.4-0.7-1.4-1.5l0-0.5c0.1-2.4,0.3-4.6,0.6-6.6
					c0.1-0.8,0.9-1.3,1.6-1.1c0.8,0.1,1.3,0.9,1.1,1.6c-0.3,1.8-0.5,3.9-0.6,6.3l0,0.5C286.4,192.1,285.8,192.7,285.1,192.7z"/>
			</g>
		</g>
		<g>
			<g>
				<path class="st0" d="M338.7,250.8c-12.3,2.8-25.1,2.8-37.3,0c0-3.9,0-7.9,0-11.8c0-6.7,5.9-14,13.3-14.7c3.6-0.2,7.2-0.2,10.8,0
					c7.4,0.7,13.3,8,13.3,14.7C338.7,242.9,338.7,246.9,338.7,250.8z"/>
			</g>
		</g>
		<g>
			<g>
				<path class="st0" d="M261.9,263.4c2.3-2.9,22.4-28.2,57.4-28.2s55.1,25.3,57.4,28.2"/>
			</g>
			<g>
				<path d="M376.6,264.3c-0.3,0-0.5-0.1-0.7-0.4c-3.6-4.7-23.1-27.8-56.7-27.8c-33.6,0-53.1,23.2-56.7,27.8
					c-0.3,0.4-0.9,0.5-1.3,0.2c-0.4-0.3-0.5-0.9-0.2-1.3c3.7-4.8,23.7-28.6,58.1-28.6c34.4,0,54.4,23.8,58.1,28.6
					c0.3,0.4,0.2,1-0.2,1.3C377,264.3,376.8,264.3,376.6,264.3z"/>
			</g>
		</g>
		<g>
			<g>
				<path d="M430.6,358.4l-20.3-1.7c-20,22.7-46.7,30.8-91.1,30.8c-44.4,0-71.1-8.1-91.1-30.8l-20.3,1.7l-81.3,6.9
					c-0.8,10.2,10.3,18.7,21.5,19.3c25.6,1.3,50.7,2.3,75.7,3.1c2.2,0.1,4.4,0.7,6.1,2l0,0c6.5,4.4,13.6,10.1,21.7,13.1
					c17.8,6.7,39.5,13,67.7,13s49.9-6.3,67.7-13c8-3,15.2-8.7,21.7-13.1c0,0,0,0,0,0c1.7-1.2,3.8-1.9,6.1-2
					c25.1-0.7,50.2-1.7,75.8-3.1c11.2-0.6,22.3-9.1,21.5-19.3L430.6,358.4z"/>
			</g>
			<g>
				<path d="M319.3,416.7c-29.6,0-51.9-7-68-13c-6.7-2.5-12.8-6.9-18.2-10.7c-1.2-0.9-2.5-1.7-3.7-2.6c-1.7-1.1-3.6-1.8-5.7-1.8
					c-25-0.7-49.8-1.7-75.7-3.1c-6.8-0.4-13.7-3.6-18-8.5c-3.1-3.6-4.6-7.6-4.3-11.8c0-0.4,0.4-0.8,0.8-0.8l101.6-8.7
					c0.3,0,0.6,0.1,0.8,0.3c19.3,22,44.6,30.5,90.4,30.5c45.8,0,71.1-8.6,90.4-30.5c0.2-0.2,0.5-0.3,0.8-0.3l20.3,1.7c0,0,0,0,0,0
					l81.3,6.9c0.4,0,0.8,0.4,0.8,0.8c0.3,4.2-1.2,8.2-4.3,11.8c-4.3,4.9-11.2,8.1-18,8.5c-26,1.3-50.8,2.3-75.8,3.1
					c-2,0.1-4,0.7-5.6,1.8c-1.2,0.8-2.5,1.7-3.7,2.6c-5.4,3.8-11.5,8.2-18.2,10.7C371.1,409.7,348.9,416.7,319.3,416.7z
					 M127.4,366.2c0,3.4,1.3,6.7,3.9,9.7c4,4.5,10.4,7.5,16.8,7.9c25.9,1.3,50.7,2.3,75.7,3.1c2.4,0.1,4.7,0.8,6.6,2.1
					c1.2,0.8,2.5,1.7,3.7,2.6c5.3,3.8,11.4,8,17.8,10.5c15.9,6,38,12.9,67.3,12.9c29.3,0,51.4-6.9,67.4-12.9
					c6.4-2.4,12.4-6.7,17.8-10.5c1.3-0.9,2.5-1.8,3.7-2.6c1.9-1.3,4.2-2.1,6.6-2.1c25-0.7,49.8-1.7,75.8-3.1
					c6.4-0.3,12.8-3.3,16.8-7.9c2.6-3,4-6.3,3.9-9.7l-100.4-8.6c-19.6,22.1-45.3,30.8-91.5,30.8c-46.1,0-71.8-8.6-91.5-30.8
					L127.4,366.2z"/>
			</g>
		</g>
		<g>
			<g>
				<path class="st2" d="M363,275.3c-13.4-1.1-27.7-21.8-43.7-20.8c-16-1-30.3,19.6-43.7,20.8c-9.1,40.2-22.3,58-49.4,81.4
					c27.1,24.9,53.2,32.7,93.1,32.7c39.9,0,66-7.8,93.1-32.7C385.3,333.3,372.1,315.5,363,275.3z"/>
			</g>
			<g>
				<path d="M319.3,390.3c-42.2,0-67.6-8.9-93.7-32.9c-0.2-0.2-0.3-0.4-0.3-0.7c0-0.3,0.1-0.5,0.3-0.7
					c26.4-22.8,39.8-39.9,49.1-80.9c0.1-0.4,0.4-0.7,0.8-0.7c5.8-0.5,11.9-4.9,18.4-9.5c8-5.8,16.3-11.8,25.4-11.2
					c9.1-0.5,17.4,5.4,25.4,11.2c6.4,4.7,12.5,9,18.4,9.5c0.4,0,0.7,0.3,0.8,0.7c9.3,41,22.7,58.1,49.1,80.9
					c0.2,0.2,0.3,0.4,0.3,0.7c0,0.3-0.1,0.5-0.3,0.7C386.8,381.3,361.5,390.3,319.3,390.3z M227.5,356.7
					c25.5,23.1,50.4,31.8,91.7,31.8s66.3-8.6,91.7-31.8c-25.6-22.2-39.5-40.2-48.7-80.6c-6.1-0.8-12.2-5.2-18.6-9.8
					c-7.8-5.6-15.8-11.4-24.3-10.9c0,0-0.1,0-0.1,0c-8.5-0.5-16.5,5.3-24.3,10.9c-6.4,4.6-12.5,9-18.6,9.8
					C267,316.5,253.1,334.5,227.5,356.7z"/>
			</g>
		</g>
		<g>
			<g>
				<g>
					<polygon points="332.9,297.5 293.6,333.6 281.5,333.6 285.8,315.6 308.9,315.6 310.8,291.1 289.4,291.1 310.9,275.3 
						330.5,275.3 332.2,291.1 					"/>
				</g>
				<g>
					<path d="M293.6,334.5h-12.1c-0.3,0-0.5-0.1-0.7-0.3c-0.2-0.2-0.2-0.5-0.2-0.8l4.3-18c0.1-0.4,0.5-0.7,0.9-0.7h22.3l1.7-22.7
						h-20.4c-0.4,0-0.7-0.3-0.9-0.6c-0.1-0.4,0-0.8,0.3-1l21.5-15.7c0.2-0.1,0.3-0.2,0.5-0.2h19.6c0.5,0,0.8,0.3,0.9,0.8l2.5,22.2
						c0,0.3-0.1,0.6-0.3,0.8l-39.3,36C294,334.4,293.8,334.5,293.6,334.5z M282.7,332.7h10.6l38.7-35.5l-2.3-21h-18.5l-19,13.9h18.6
						c0.3,0,0.5,0.1,0.7,0.3s0.3,0.4,0.2,0.7l-1.8,24.5c0,0.5-0.4,0.8-0.9,0.8h-22.4L282.7,332.7z"/>
				</g>
			</g>
			<g>
				<g>
					<polygon class="st5" points="360.5,333.6 293.6,333.6 332.9,297.5 334.9,315.6 355.8,315.6 					"/>
				</g>
				<g>
					<path d="M360.5,334.5h-66.9c-0.4,0-0.7-0.2-0.8-0.6s0-0.7,0.2-1l39.3-36c0.2-0.2,0.6-0.3,0.9-0.2c0.3,0.1,0.5,0.4,0.6,0.7
						l1.9,17.2h20.1c0.4,0,0.8,0.3,0.9,0.7l4.7,18c0.1,0.3,0,0.6-0.2,0.8C361,334.3,360.7,334.5,360.5,334.5z M295.9,332.7h63.4
						l-4.2-16.2h-20.2c-0.5,0-0.8-0.3-0.9-0.8l-1.8-16.3L295.9,332.7z"/>
				</g>
			</g>
		</g>
		<g>
			<g>
				<g>
					<g>
						<path d="M468.7,301.3c-6.1,1.7-14.5,3.3-24.5,3.4c-9.1,0.1-16.9-1.1-22.9-2.5c0-21.6,0-43.2,0-64.8c5.9-1.6,14.3-3.2,24.4-2.9
							c9.6,0.2,17.5,2.1,23,3.9C468.7,259.4,468.7,280.4,468.7,301.3z"/>
					</g>
					<g>
						<path d="M443.2,305.7c-7.4,0-14.9-0.8-22.1-2.5c-0.4-0.1-0.7-0.5-0.7-0.9v-64.8c0-0.4,0.3-0.8,0.7-0.9
							c8.1-2.2,16.4-3.2,24.6-3c7.9,0.2,15.8,1.5,23.3,3.9c0.4,0.1,0.6,0.5,0.6,0.9v62.9c0,0.4-0.3,0.8-0.7,0.9
							c-8,2.2-16.3,3.4-24.7,3.4C443.9,305.7,443.6,305.7,443.2,305.7z M422.2,301.6c7.2,1.6,14.6,2.4,22,2.3
							c8-0.1,15.9-1.2,23.6-3.2V239c-7.2-2.2-14.6-3.4-22.2-3.6c-7.9-0.2-15.8,0.7-23.5,2.7V301.6z M468.7,301.3L468.7,301.3
							L468.7,301.3z"/>
					</g>
				</g>
				<g>
					<g>
						<path class="st2" d="M468.7,238.1v6.2c-2.4,2.3-5.7-1.6-8.5-0.1c-1.7,0.9-3.4,2.1-5.1,3.1c-1.9,1.1-4.4,0.9-6.4,0.2
							c-2-0.7-2.6-1.4-4.4-2.3c-2-0.9-5.3-1.9-9.2-0.5c-1.3,0.5-2.6,1.2-3.9,1.7c-2.5,0.9-3.7,0.4-6-0.5c-1.5-0.7-2.7-1.6-3.9-2.5
							v-6.2c5.9-1.5,14.3-3,24.4-2.7C455.3,234.7,463.2,236.5,468.7,238.1z"/>
					</g>
				</g>
				<g>
					<g>
						<path d="M443.2,305.7c-7.4,0-14.9-0.8-22.1-2.5c-0.4-0.1-0.7-0.5-0.7-0.9v-64.8c0-0.4,0.3-0.8,0.7-0.9
							c8.1-2.2,16.4-3.2,24.6-3c7.9,0.2,15.8,1.5,23.3,3.9c0.4,0.1,0.6,0.5,0.6,0.9v62.9c0,0.4-0.3,0.8-0.7,0.9
							c-8,2.2-16.3,3.4-24.7,3.4C443.9,305.7,443.6,305.7,443.2,305.7z M422.2,301.6c7.2,1.6,14.6,2.4,22,2.3
							c8-0.1,15.9-1.2,23.6-3.2V239c-7.2-2.2-14.6-3.4-22.2-3.6c-7.9-0.2-15.8,0.7-23.5,2.7V301.6z M468.7,301.3L468.7,301.3
							L468.7,301.3z"/>
					</g>
				</g>
				<g>
					<g>
						<g>
							<path class="st2" d="M434.7,299.7c-0.6,0-1-0.4-1-1v-44.8c0-0.6,0.4-1,1-1s1,0.4,1,1v44.8
								C435.7,299.3,435.3,299.7,434.7,299.7z"/>
						</g>
					</g>
					<g>
						<g>
							<path class="st2" d="M446,299.7c-0.6,0-1-0.4-1-1v-44.8c0-0.6,0.4-1,1-1s1,0.4,1,1v44.8C447,299.3,446.5,299.7,446,299.7z"/>
						</g>
					</g>
					<g>
						<g>
							<path class="st2" d="M457.2,299.7c-0.6,0-1-0.4-1-1v-44.8c0-0.6,0.4-1,1-1s1,0.4,1,1v44.8
								C458.2,299.3,457.8,299.7,457.2,299.7z"/>
						</g>
					</g>
				</g>
			</g>
			<g>
				<g>
					<g>
						<path d="M171.3,301.3c6.1,1.7,14.5,3.3,24.5,3.4c9.1,0.1,16.9-1.1,22.9-2.5c0-21.6,0-43.2,0-64.8c-5.9-1.6-14.3-3.2-24.4-2.9
							c-9.6,0.2-17.5,2.1-23,3.9C171.3,259.4,171.3,280.4,171.3,301.3z"/>
					</g>
					<g>
						<path d="M196.8,305.7c-0.3,0-0.7,0-1,0c-8.4-0.1-16.7-1.2-24.7-3.4c-0.4-0.1-0.7-0.5-0.7-0.9v-62.9c0-0.4,0.3-0.7,0.6-0.9
							c7.5-2.4,15.3-3.7,23.3-3.9c8.3-0.2,16.6,0.8,24.6,3c0.4,0.1,0.7,0.5,0.7,0.9v64.8c0,0.4-0.3,0.8-0.7,0.9
							C211.6,304.8,204.2,305.7,196.8,305.7z M172.2,300.6c7.7,2,15.6,3.1,23.6,3.2c7.4,0.1,14.8-0.7,22-2.3v-63.4
							c-7.7-2-15.6-2.9-23.5-2.7c-7.5,0.2-15,1.4-22.2,3.6V300.6z"/>
					</g>
				</g>
				<g>
					<g>
						<path class="st2" d="M171.3,238.1v6.2c2.4,2.3,5.7-1.6,8.5-0.1c1.7,0.9,3.4,2.1,5.1,3.1c1.9,1.1,4.4,0.9,6.4,0.2
							c2-0.7,2.6-1.4,4.4-2.3c2-0.9,5.3-1.9,9.2-0.5c1.3,0.5,2.6,1.2,3.9,1.7c2.5,0.9,3.7,0.4,6-0.5c1.5-0.7,2.7-1.6,3.9-2.5v-6.2
							c-5.9-1.5-14.3-3-24.4-2.7C184.7,234.7,176.8,236.5,171.3,238.1z"/>
					</g>
				</g>
				<g>
					<g>
						<path d="M196.8,305.7c-0.3,0-0.7,0-1,0c-8.4-0.1-16.7-1.2-24.7-3.4c-0.4-0.1-0.7-0.5-0.7-0.9v-62.9c0-0.4,0.3-0.7,0.6-0.9
							c7.5-2.4,15.3-3.7,23.3-3.9c8.3-0.2,16.6,0.8,24.6,3c0.4,0.1,0.7,0.5,0.7,0.9v64.8c0,0.4-0.3,0.8-0.7,0.9
							C211.6,304.8,204.2,305.7,196.8,305.7z M172.2,300.6c7.7,2,15.6,3.1,23.6,3.2c7.4,0.1,14.8-0.7,22-2.3v-63.4
							c-7.7-2-15.6-2.9-23.5-2.7c-7.5,0.2-15,1.4-22.2,3.6V300.6z"/>
					</g>
				</g>
				<g>
					<g>
						<g>
							<path class="st2" d="M205.3,299.7c-0.6,0-1-0.4-1-1V254c0-0.6,0.4-1,1-1s1,0.4,1,1v44.7C206.3,299.3,205.8,299.7,205.3,299.7
								z"/>
						</g>
					</g>
					<g>
						<g>
							<path class="st2" d="M194,299.7c-0.6,0-1-0.4-1-1V254c0-0.6,0.4-1,1-1s1,0.4,1,1v44.7C195,299.3,194.6,299.7,194,299.7z"/>
						</g>
					</g>
					<g>
						<g>
							<path class="st2" d="M182.8,299.7c-0.6,0-1-0.4-1-1V254c0-0.6,0.4-1,1-1s1,0.4,1,1v44.7C183.8,299.3,183.3,299.7,182.8,299.7
								z"/>
						</g>
					</g>
				</g>
			</g>
		</g>
		<g>
			<g>
				<g>
					<g>
						<path d="M563.7,378.9c-10,2.7-23.7,5.2-40.2,5.4c-14.9,0.1-27.7-1.7-37.6-3.9c0-34.2,0-68.4,0-102.5c9.7-2.5,23.4-5,40-4.6
							c15.8,0.4,28.7,3.3,37.8,6.1C563.7,312.5,563.7,345.7,563.7,378.9z"/>
					</g>
					<g>
						<path d="M522,385.2c-12.1,0-24.3-1.3-36.2-3.9c-0.4-0.1-0.7-0.5-0.7-0.9V277.9c0-0.4,0.3-0.8,0.7-0.9
							c13.2-3.4,26.7-5,40.2-4.7c13,0.3,25.7,2.4,38,6.2c0.4,0.1,0.6,0.5,0.6,0.9v99.6c0,0.4-0.3,0.8-0.7,0.9
							c-13.1,3.5-26.7,5.3-40.4,5.4C523,385.2,522.5,385.2,522,385.2z M486.9,379.7c12.1,2.6,24.4,3.9,36.7,3.7
							c13.3-0.1,26.5-1.9,39.3-5.2V280c-11.9-3.6-24.3-5.6-36.9-5.9c-13.1-0.3-26.3,1.2-39.1,4.4V379.7z M563.7,378.9L563.7,378.9
							L563.7,378.9z"/>
					</g>
				</g>
				<g>
					<g>
						<path class="st2" d="M563.7,278.9v9.8c-3.9,3.6-9.3-2.5-13.9-0.2c-2.8,1.4-5.7,3.4-8.4,4.9c-3,1.7-7.2,1.4-10.5,0.3
							c-3.2-1.1-4.2-2.2-7.3-3.6c-3.3-1.5-8.7-3-15-0.7c-2.2,0.8-4.2,1.9-6.5,2.7c-4,1.4-6.1,0.7-9.8-0.8c-2.4-1-4.5-2.5-6.4-4v-9.7
							c9.7-2.3,23.4-4.7,40-4.3C541.8,273.6,554.7,276.3,563.7,278.9z"/>
					</g>
				</g>
				<g>
					<g>
						<path d="M522,385.2c-12.1,0-24.3-1.3-36.2-3.9c-0.4-0.1-0.7-0.5-0.7-0.9V277.9c0-0.4,0.3-0.8,0.7-0.9
							c13.2-3.4,26.7-5,40.2-4.7c13,0.3,25.7,2.4,38,6.2c0.4,0.1,0.6,0.5,0.6,0.9v99.6c0,0.4-0.3,0.8-0.7,0.9
							c-13.1,3.5-26.7,5.3-40.4,5.4C523,385.2,522.5,385.2,522,385.2z M486.9,379.7c12.1,2.6,24.4,3.9,36.7,3.7
							c13.3-0.1,26.5-1.9,39.3-5.2V280c-11.9-3.6-24.3-5.6-36.9-5.9c-13.1-0.3-26.3,1.2-39.1,4.4V379.7z M563.7,378.9L563.7,378.9
							L563.7,378.9z"/>
					</g>
				</g>
				<g>
					<g>
						<g>
							<path class="st2" d="M508,375.8c-0.6,0-1-0.4-1-1v-70.8c0-0.6,0.4-1,1-1s1,0.4,1,1v70.8C509,375.3,508.6,375.8,508,375.8z"/>
						</g>
					</g>
					<g>
						<g>
							<path class="st2" d="M526.4,375.8c-0.6,0-1-0.4-1-1v-70.8c0-0.6,0.4-1,1-1s1,0.4,1,1v70.8C527.4,375.3,527,375.8,526.4,375.8
								z"/>
						</g>
					</g>
					<g>
						<g>
							<path class="st2" d="M544.9,375.8c-0.6,0-1-0.4-1-1v-70.8c0-0.6,0.4-1,1-1s1,0.4,1,1v70.8
								C545.9,375.3,545.4,375.8,544.9,375.8z"/>
						</g>
					</g>
				</g>
			</g>
			<g>
				<g>
					<g>
						<path d="M76.3,378.9c10,2.7,23.7,5.2,40.2,5.4c14.9,0.1,27.7-1.7,37.6-3.9c0-34.2,0-68.4,0-102.5c-9.7-2.5-23.4-5-40-4.6
							c-15.8,0.4-28.7,3.3-37.8,6.1C76.3,312.5,76.3,345.7,76.3,378.9z"/>
					</g>
					<g>
						<path d="M118,385.2c-0.5,0-1.1,0-1.6,0c-13.7-0.1-27.3-2-40.4-5.4c-0.4-0.1-0.7-0.5-0.7-0.9v-99.6c0-0.4,0.3-0.7,0.6-0.9
							c12.3-3.8,25-5.8,38-6.2c13.5-0.3,27.1,1.2,40.2,4.7c0.4,0.1,0.7,0.5,0.7,0.9v102.5c0,0.4-0.3,0.8-0.7,0.9
							C142.3,383.9,130.1,385.2,118,385.2z M77.2,378.2c12.8,3.3,26,5.1,39.3,5.2c12.2,0.1,24.6-1.1,36.7-3.7V278.6
							c-12.8-3.3-25.9-4.8-39.1-4.4c-12.6,0.3-25,2.3-36.9,5.9V378.2z"/>
					</g>
				</g>
				<g>
					<g>
						<path class="st2" d="M76.3,278.9v9.8c3.9,3.6,9.3-2.5,13.9-0.2c2.8,1.4,5.7,3.4,8.4,4.9c3,1.7,7.2,1.4,10.5,0.3
							c3.2-1.1,4.2-2.2,7.3-3.6c3.3-1.5,8.7-3,15-0.7c2.2,0.8,4.2,1.9,6.5,2.7c4,1.4,6.1,0.7,9.8-0.8c2.4-1,4.5-2.5,6.4-4v-9.7
							c-9.7-2.3-23.4-4.7-40-4.3C98.2,273.6,85.3,276.3,76.3,278.9z"/>
					</g>
				</g>
				<g>
					<g>
						<path d="M118,385.2c-0.5,0-1.1,0-1.6,0c-13.7-0.1-27.3-2-40.4-5.4c-0.4-0.1-0.7-0.5-0.7-0.9v-99.6c0-0.4,0.3-0.7,0.6-0.9
							c12.3-3.8,25-5.8,38-6.2c13.5-0.3,27.1,1.2,40.2,4.7c0.4,0.1,0.7,0.5,0.7,0.9v102.5c0,0.4-0.3,0.8-0.7,0.9
							C142.3,383.9,130.1,385.2,118,385.2z M77.2,378.2c12.8,3.3,26,5.1,39.3,5.2c12.2,0.1,24.6-1.1,36.7-3.7V278.6
							c-12.8-3.3-25.9-4.8-39.1-4.4c-12.6,0.3-25,2.3-36.9,5.9V378.2z"/>
					</g>
				</g>
				<g>
					<g>
						<g>
							<path class="st2" d="M132,375.8c-0.6,0-1-0.4-1-1v-70.7c0-0.6,0.4-1,1-1s1,0.4,1,1v70.7C133,375.3,132.5,375.8,132,375.8z"/>
						</g>
					</g>
					<g>
						<g>
							<path class="st2" d="M113.6,375.8c-0.6,0-1-0.4-1-1v-70.7c0-0.6,0.4-1,1-1s1,0.4,1,1v70.7
								C114.6,375.3,114.1,375.8,113.6,375.8z"/>
						</g>
					</g>
					<g>
						<g>
							<path class="st2" d="M95.1,375.8c-0.6,0-1-0.4-1-1v-70.7c0-0.6,0.4-1,1-1s1,0.4,1,1v70.7C96.1,375.3,95.7,375.8,95.1,375.8z"
								/>
						</g>
					</g>
				</g>
			</g>
		</g>
		<g>
			<g>
				<g>
					<path d="M132,225.8c-0.4,0-0.8-0.3-0.9-0.7c-0.1-0.5,0.2-1,0.6-1.1l120-32c0.5-0.1,1,0.2,1.1,0.6c0.1,0.5-0.2,1-0.6,1.1
						l-120,32C132.1,225.8,132.1,225.8,132,225.8z"/>
				</g>
			</g>
		</g>
		<g>
			<g>
				<path d="M497.6,223c-0.1,0-0.2,0-0.2,0l-109.5-29.1c-0.5-0.1-0.8-0.6-0.6-1.1c0.1-0.5,0.6-0.8,1.1-0.6l109.5,29.1
					c0.5,0.1,0.8,0.6,0.6,1.1C498.3,222.7,498,223,497.6,223z"/>
			</g>
		</g>
		<g>
			<g>
				<path d="M91.6,276.6c-0.3,0-0.7-0.2-0.8-0.5c-0.2-0.5,0-1,0.4-1.2l56.5-26.4c0.5-0.2,1,0,1.2,0.4c0.2,0.5,0,1-0.4,1.2L92,276.5
					C91.9,276.6,91.8,276.6,91.6,276.6z"/>
			</g>
		</g>
		<g>
			<g>
				<path d="M175.1,237.6c-0.3,0-0.7-0.2-0.8-0.5c-0.2-0.5,0-1,0.4-1.2l75.6-35.3c0.5-0.2,1,0,1.2,0.4c0.2,0.5,0,1-0.4,1.2
					l-75.6,35.3C175.4,237.6,175.2,237.6,175.1,237.6z"/>
			</g>
		</g>
		<g>
			<g>
				<path d="M544.9,275c-0.1,0-0.3,0-0.4-0.1l-55.7-26c-0.5-0.2-0.6-0.7-0.4-1.2c0.2-0.5,0.7-0.6,1.2-0.4l55.7,26
					c0.5,0.2,0.6,0.7,0.4,1.2C545.5,274.8,545.2,275,544.9,275z"/>
			</g>
		</g>
		<g>
			<g>
				<path d="M468.7,239.4c-0.1,0-0.3,0-0.4-0.1l-78.4-36.6c-0.5-0.2-0.6-0.7-0.4-1.2c0.2-0.4,0.7-0.6,1.2-0.4l78.4,36.6
					c0.5,0.2,0.6,0.7,0.4,1.2C469.3,239.2,469,239.4,468.7,239.4z"/>
			</g>
		</g>
		<g>
			<g>
				<g>
					<path class="st5" d="M249.3,234.2l-3.2,21.3l-12.2,6.9c-3.1,1.7-6.7-1-5.9-4.4l0.3-1.2L249.3,234.2z"/>
				</g>
			</g>
			<g>
				<g>
					<path class="st5" d="M406.7,262.5l-12.2-6.9l-3.2-21.3l21,22.6l0.3,1.2C413.4,261.4,409.7,264.2,406.7,262.5z"/>
				</g>
			</g>
		</g>
	</g>
</g>
<g id="_x32_">
</g>
<g id="_x31_">
</g>
</svg>
