<?xml version="1.0" encoding="utf-8"?>
<!-- Generator: Adobe Illustrator 26.5.0, SVG Export Plug-In . SVG Version: 6.00 Build 0)  -->
<svg version="1.1" xmlns="http://www.w3.org/2000/svg" xmlns:xlink="http://www.w3.org/1999/xlink" x="0px" y="0px"
	 viewBox="0 0 640 480" style="enable-background:new 0 0 640 480;" xml:space="preserve">
<style type="text/css">
	.st0{fill:#7AE5C1;}
	.st1{filter:url(#Adobe_OpacityMaskFilter);}
	.st2{fill:#FFFFFF;}
	.st3{mask:url(#SVGID_1_);}
	.st4{fill:#21D099;}
	.st5{fill:#403E56;}
	.st6{fill:none;stroke:#000000;stroke-width:1.8;stroke-linecap:round;stroke-linejoin:round;stroke-miterlimit:10;}
	.st7{fill:none;stroke:#FFFFFF;stroke-width:3;stroke-linecap:round;stroke-linejoin:round;stroke-miterlimit:10;}
	.st8{filter:url(#Adobe_OpacityMaskFilter_00000175301319877583297510000006268439435524516247_);}
	.st9{mask:url(#SVGID_00000104697297754917007140000006158058092127310489_);}
	.st10{filter:url(#Adobe_OpacityMaskFilter_00000000930078694151878040000016465000445826814369_);}
	.st11{fill:#FFFFFF;stroke:#000000;stroke-width:0.75;stroke-miterlimit:10;}
	.st12{mask:url(#SVGID_00000165206862090600676080000000796671948561962380_);}
	.st13{filter:url(#Adobe_OpacityMaskFilter_00000118382586557083199670000007816891496149145787_);}
	.st14{mask:url(#SVGID_00000052065420171068822180000010651841996184941479_);}
	.st15{fill:#FFFFFF;stroke:#000000;stroke-width:1.8;stroke-linecap:round;stroke-linejoin:round;stroke-miterlimit:10;}
</style>
<g id="_x34_">
</g>
<g id="_x33_">
</g>
<g id="_x32_">
	<g>
		<g>
			<path class="st0" d="M495.2,384.2c-37.9,11.4-82.6,8.4-106.1-8.4c-11.3-8-32.6-24.2-30.9-42.1c0.2-2.1,0.8-4.2,1.9-5.9
				c2.8-4.2,9.6-3.5,14.2-3.4c15.5,0.3,26.2-3.4,35.8-18.4c12.5-19.5,19.3-38.9,32.4-58.2c1.9-2.8,4-5.6,6.7-7.3
				c2.7-1.7,6.3-2.1,8.8-0.1c2.8,2.2,3.6,6.4,3.9,10.3c0.8,10.2-2.3,15.1-5.5,24.7c22.1-19.5,33.3-60.9,48.5-100.9
				c4.8-12.7,16.7-32.6,29.4-30.6c21.6,3.4,24.8,40.1,24.7,58.4c-0.2,25.5-4.9,49.1-14.1,74.8c-7.7,21.4-19.8,37.7-14.1,39
				c5.6,1.3,27.2-18.6,32.6-18.5C576.4,297.8,564.7,363.2,495.2,384.2z"/>
		</g>
		<g>
			<path class="st0" d="M268.1,306.3c-10.7-1.4-20.6-7.2-29.5-13.9c-12.5-9.3-27.5-29.9-42.2-34.2c-23.2-6.8-4.7,23.4-12.8,32.1
				c-3.8,4.1-8.6,1.3-11.8-1.8c-12.2-11.8-18.7-27.4-25.6-45.8c-8-21.1-11.7-41.6-20.9-62.1c-2.8-6.3-7.3-14.4-12.8-19.9
				c-8-8.1-21.7-14.1-30.6-5.1c-5.2,5.2-7.9,12.7-9.8,20.1c-12.9,48.8-0.4,97.5,32.4,133.8c1.6,1.7,3.2,3.4,4.8,5.1
				c-8.4-6.5-18.6-10.2-28.9-10.3c-3.3-0.1-7,0.5-8.8,3.6c-1.5,2.5-1,5.8-0.4,8.7c14.8,67.6,95.2,86.2,145.5,57.1
				C240,360.1,259.4,334,268.1,306.3z"/>
		</g>
		<g>
			<g>
				<path class="st2" d="M233.6,349.5l-41.3,27.8c56.2-4.3,118.3-11.8,213.4,16.6c-29.8-40.9-27-32.2,13.9-82.5
					c-72.8,5.6-142.2-5.6-186.9-27.3C232.7,284.1,258,334.7,233.6,349.5z"/>
				<path d="M405.7,394.8c-0.1,0-0.2,0-0.3,0c-88.7-26.5-148.8-21.7-201.9-17.4c-3.8,0.3-7.5,0.6-11.2,0.9c-0.4,0-0.8-0.2-0.9-0.6
					c-0.1-0.4,0-0.8,0.3-1l41.3-27.8c0,0,0,0,0,0c23.5-14.2-0.9-63.7-1.2-64.2c-0.2-0.3-0.1-0.8,0.2-1s0.7-0.3,1-0.2
					c46.4,22.5,116.1,32.7,186.5,27.2c0.4,0,0.7,0.2,0.9,0.5c0.2,0.3,0.1,0.7-0.1,1c-5.6,6.8-10.4,12.5-14.6,17.5
					c-12.4,14.7-18.7,22.1-19,29.2c-0.4,7.2,5.1,14.6,16,29.5c1.2,1.6,2.4,3.3,3.7,5.1c0.2,0.3,0.2,0.7,0,1
					C406.3,394.7,406,394.8,405.7,394.8z M268.8,372.2c37.6,0,80.8,4.3,134.6,20.1c-0.7-1-1.5-2-2.2-3c-22.3-30.4-22.2-31,3.1-60.9
					c3.9-4.6,8.3-9.8,13.3-15.9c-68.8,5-136.8-4.8-183-26.5c4.7,10.3,21.5,50.8-0.6,64.2l-38.4,25.9c2.6-0.2,5.2-0.4,7.8-0.6
					C223.8,373.9,245.2,372.2,268.8,372.2z"/>
			</g>
			<g>
				<path class="st2" d="M384.3,394c-77.5-28.7-182.9-3.3-182.9-3.3l20.7-15.7"/>
				<path d="M384.3,394.9c-0.1,0-0.2,0-0.3-0.1c-76.3-28.3-181.3-3.5-182.3-3.2c-0.4,0.1-0.8-0.1-1-0.5c-0.2-0.4-0.1-0.8,0.3-1.1
					l20.7-15.7c0.4-0.3,1-0.2,1.3,0.2c0.3,0.4,0.2,1-0.2,1.3l-17.4,13.2c20.1-4.2,111-21.2,179.4,4.2c0.5,0.2,0.7,0.7,0.5,1.2
					C385,394.7,384.7,394.9,384.3,394.9z"/>
			</g>
			<g>
				<path class="st2" d="M352.9,395.8c-50-13.4-110.4-2.5-143.8,10.7l22.6-21.3"/>
				<path d="M209.1,407.4c-0.3,0-0.6-0.2-0.8-0.4c-0.2-0.4-0.2-0.8,0.1-1.1l22.6-21.3c0.4-0.3,0.9-0.3,1.3,0c0.3,0.4,0.3,0.9,0,1.3
					L213,404c36.3-13.2,94-21.5,140.1-9.1c0.5,0.1,0.8,0.6,0.6,1.1c-0.1,0.5-0.6,0.8-1.1,0.6c-47.6-12.8-107.6-3.4-143.2,10.6
					C209.3,407.4,209.2,407.4,209.1,407.4z"/>
			</g>
		</g>
		<g>
			<path class="st0" d="M200.2,183.5c-2.6,8.8-4.3,19.8-6.7,19.8c-3.5,0-2.3-9.5-3.8-14.7c-1-3.4-7.3,1.5-13.6,4.3
				c-5.6,2.5-8.1,1.4-6.2-1.7c1.8-3.1,12.7-12.1,16.2-15.1c3.5-3.1,16.6-3.4,21-3c6.4,0.6,3.3,7.9,0.6,14.9c-2.7,7-4.1,5.6-4.2-3.6
				C203.5,179.8,200.2,183.5,200.2,183.5z"/>
			<path d="M193.6,204.2c-3.1,0-3.4-4.3-3.8-8.8c-0.2-2.3-0.4-4.7-0.9-6.5c-0.1-0.4-0.3-0.4-0.3-0.5c-1.1-0.4-4.2,1.3-7,2.8
				c-1.6,0.9-3.3,1.8-5.1,2.6c-3.7,1.7-6.4,1.9-7.6,0.7c-0.4-0.5-1-1.6,0.2-3.6c1.5-2.5,8.2-8.4,14.4-13.6c0.8-0.7,1.5-1.3,2-1.7
				c3.9-3.3,17.2-3.7,21.7-3.2c1.8,0.2,3.1,0.9,3.9,2.1c1.8,2.9-0.1,7.9-2.2,13.2l-0.3,0.9c-1.5,3.8-2.5,5.2-3.8,5
				c-1.3-0.2-2.1-1.8-2.2-8.9c0-1.3-0.3-1.5-0.3-1.5c-0.2,0-0.8,0.4-1.3,1c-0.7,2.5-1.4,5.1-2,7.6
				C196.9,200.1,195.8,204.2,193.6,204.2C193.6,204.2,193.6,204.2,193.6,204.2z M188.2,186.6c0.4,0,0.7,0.1,1.1,0.2
				c0.5,0.2,1.1,0.6,1.4,1.6c0.6,2,0.8,4.5,1,6.9c0.3,3.2,0.6,7.2,2,7.2c1-0.4,2.6-6.7,3.7-11.2c0.7-2.6,1.3-5.3,2.1-7.9
				c0-0.1,0.1-0.2,0.2-0.3c0.4-0.5,2-2.1,3.4-1.6c1.4,0.5,1.4,2.5,1.4,3.2c0.1,4.7,0.5,6.4,0.7,6.9c0.3-0.4,0.9-1.3,1.8-3.7l0.3-0.9
				c1.7-4.4,3.6-9.5,2.3-11.6c-0.4-0.7-1.3-1.1-2.5-1.2c-4.4-0.4-17.1,0-20.3,2.8c-0.5,0.5-1.2,1-2,1.7c-4.4,3.7-12.6,10.7-14,13.2
				c-0.5,0.8-0.5,1.3-0.4,1.5c0.2,0.3,1.7,0.6,5.5-1.1c1.7-0.8,3.3-1.7,5-2.5C183.8,187.9,186.3,186.6,188.2,186.6z"/>
		</g>
		<g>
			<path class="st5" d="M223.1,140.7l1.6,0.2c2.8,0.4,4.8,2.8,4.9,5.8l0.1,6c0.1,3.4-2.1,6.5-5.3,7.4l-1.8,0.5"/>
			<path d="M222.7,161.5c-0.4,0-0.7-0.3-0.9-0.6c-0.1-0.5,0.1-1,0.6-1.1l1.8-0.5c2.8-0.8,4.7-3.5,4.6-6.6l-0.1-6
				c0-2.5-1.8-4.6-4.1-4.9l-1.6-0.2c-0.5-0.1-0.8-0.5-0.8-1c0.1-0.5,0.5-0.8,1-0.8l1.6,0.2c3.2,0.5,5.6,3.3,5.7,6.6l0.1,6
				c0.1,3.9-2.4,7.3-5.9,8.3l-1.8,0.5C222.9,161.5,222.8,161.5,222.7,161.5z"/>
		</g>
		<g>
			<path class="st0" d="M182.6,168.5c-3.7-0.7-6.6-3.6-7.5-7.5c-1-4.2-1.6-5.5-1.9-10.9l0,0c-0.8-10.7,3.5-15.6,9.3-16.9
				c4.3-1,9.2-1.8,14.8-2c6.1-0.3,11.5,0.2,16.2,0.9c5.4,0.9,9.5,5.4,10.1,11.1c0.2,2.2,0.4,4.6,0.3,7.2c0,2.7-0.3,5.2-0.6,7.4
				c-0.8,5.3-4.6,9.5-9.6,10.5c-5.2,1.1-11.5,1.8-18.4,1.6C190.6,169.8,186.3,169.3,182.6,168.5z"/>
			<path d="M197.8,170.9c-0.8,0-1.6,0-2.4,0c-4.3-0.1-8.7-0.6-12.9-1.5l0,0c-4-0.8-7.2-4-8.2-8.1c-0.2-0.7-0.3-1.3-0.5-1.9
				c-0.7-2.9-1.2-4.6-1.4-9.2c-0.9-12.6,4.9-16.7,10-17.8c4.9-1.1,9.9-1.8,15-2c5.5-0.2,11,0.1,16.4,0.9c5.7,0.9,10.2,5.8,10.9,11.9
				c0.3,2.4,0.4,4.9,0.4,7.3c0,2.5-0.2,5.1-0.6,7.5c-0.8,5.7-5,10.2-10.3,11.3C208.6,170.4,203.2,170.9,197.8,170.9z M182.8,167.6
				c4.2,0.8,8.4,1.3,12.6,1.5c6,0.2,12.2-0.3,18.2-1.6c4.6-0.9,8.1-4.9,8.9-9.8c0.4-2.4,0.6-4.9,0.6-7.3c0-2.3-0.1-4.7-0.3-7.1
				c-0.6-5.3-4.4-9.6-9.4-10.3c-5.2-0.8-10.6-1.2-16-0.9c-5,0.2-9.9,0.9-14.7,2c-6.3,1.5-9.3,7-8.6,16c0.2,4.5,0.6,6,1.4,8.9
				c0.1,0.6,0.3,1.2,0.5,1.9C176.8,164.3,179.5,167,182.8,167.6L182.8,167.6z"/>
		</g>
		<g>
			<ellipse class="st2" cx="211.6" cy="152.3" rx="4.4" ry="6.2"/>
			<path d="M211.6,159.4c-2.9,0-5.3-3.2-5.3-7.1s2.4-7.1,5.3-7.1s5.3,3.2,5.3,7.1S214.5,159.4,211.6,159.4z M211.6,146.9
				c-1.9,0-3.5,2.4-3.5,5.3s1.6,5.3,3.5,5.3s3.5-2.4,3.5-5.3S213.5,146.9,211.6,146.9z"/>
		</g>
		<g>
			<ellipse class="st2" cx="189.8" cy="152.3" rx="4.4" ry="6.2"/>
			<path d="M189.8,159.4c-2.9,0-5.3-3.2-5.3-7.1s2.4-7.1,5.3-7.1s5.3,3.2,5.3,7.1S192.7,159.4,189.8,159.4z M189.8,146.9
				c-1.9,0-3.5,2.4-3.5,5.3s1.6,5.3,3.5,5.3s3.5-2.4,3.5-5.3S191.7,146.9,189.8,146.9z"/>
		</g>
		<g>
			<ellipse class="st5" cx="195.6" cy="118.1" rx="5.3" ry="5.5"/>
			<path d="M195.6,124.5c-3.4,0-6.2-2.9-6.2-6.4c0-3.5,2.8-6.4,6.2-6.4s6.2,2.9,6.2,6.4C201.8,121.6,199,124.5,195.6,124.5z
				 M195.6,113.4c-2.4,0-4.4,2.1-4.4,4.6c0,2.6,2,4.6,4.4,4.6s4.4-2.1,4.4-4.6C200,115.5,198.1,113.4,195.6,113.4z"/>
		</g>
		<g>
			<path class="st5" d="M174,141.2c2.1,1.1,4,19.2,2.8,21.1c-0.9,1.4-4.6,1.4-7.3,0.1s-5-15.8-3.1-18
				C169.3,141.2,174,141.2,174,141.2z"/>
			<path d="M173.7,164.3c-1.5,0-3.2-0.4-4.6-1c-1.9-0.9-3-5.4-3.6-8c-0.2-0.9-1.8-9.2,0.2-11.4c3.2-3.5,8.1-3.6,8.3-3.6
				c0.2,0,0.3,0,0.4,0.1c0.5,0.3,1.1,0.9,1.8,3.5c1.3,5.2,2.5,16.9,1.3,18.8C176.9,163.8,175.4,164.3,173.7,164.3z M173.7,142.1
				c-1.1,0.1-4.4,0.5-6.6,2.9c-0.7,0.7-0.7,4.9,0.2,9.8c0.9,4.5,2,6.5,2.6,6.8c2.5,1.2,5.7,1,6.2,0.2
				C177.1,159.9,175.2,144.2,173.7,142.1z"/>
		</g>
		<g>
			<g>
				<polygon class="st4" points="274.3,267.7 194.2,184.4 194.2,177.9 293.7,209.8 				"/>
				<path d="M274.3,268.6c-0.2,0-0.5-0.1-0.6-0.3l-80.1-83.3c-0.2-0.2-0.3-0.4-0.3-0.6v-6.5c0-0.3,0.1-0.6,0.4-0.7
					c0.2-0.2,0.5-0.2,0.8-0.1L294,209c0.2,0.1,0.4,0.2,0.5,0.5c0.1,0.2,0.1,0.5,0,0.7L275.1,268c-0.1,0.3-0.3,0.5-0.7,0.6
					C274.4,268.6,274.3,268.6,274.3,268.6z M195.1,184.1l78.8,81.9l18.7-55.6l-97.5-31.3V184.1z"/>
			</g>
			<g>
				<polygon points="194.2,182.4 279.9,251 274.3,267.7 194.2,184.4 				"/>
				<path d="M274.3,268.6c-0.2,0-0.5-0.1-0.6-0.3l-80.1-83.3c-0.2-0.2-0.3-0.4-0.3-0.6v-2c0-0.3,0.2-0.7,0.5-0.8
					c0.3-0.1,0.7-0.1,1,0.1l85.7,68.6c0.3,0.2,0.4,0.6,0.3,1l-5.6,16.7c-0.1,0.3-0.3,0.5-0.7,0.6
					C274.4,268.6,274.3,268.6,274.3,268.6z M195.9,184.9l78,81.1l4.9-14.7L195.9,184.9z"/>
			</g>
			<g>
				<g>
					<path class="st4" d="M318.8,328.3l54.2,19c8.5-19.7,17.9-41.2,25.5-65.3c6.8-21.5,11.1-42.4,15.3-61.5c-37.1-13-17-6-54.2-19
						s-17-6-54.2-19c-7.7,17.9-16.3,37.2-23.4,58.7c-7.8,24-12.8,47.1-17.4,68.1L318.8,328.3z"/>
					<path d="M372.9,348.2c-0.1,0-0.2,0-0.3-0.1l-108.3-38.1c-0.4-0.2-0.7-0.6-0.6-1l0.3-1.3c4.4-20.3,9.5-43.4,17.2-67
						c6.4-19.6,14-37.1,21.3-54l2.1-4.8c0.2-0.4,0.7-0.6,1.1-0.5L414,219.6c0.4,0.2,0.7,0.6,0.6,1l-1.1,5.2
						c-3.9,18.1-8,36.8-14.2,56.4c-7.5,23.6-16.8,45.2-25,64.2l-0.5,1.2C373.6,348,373.3,348.2,372.9,348.2z M265.7,308.6
						l106.8,37.5l0.2-0.4c8.2-19,17.5-40.5,25-64c6.2-19.6,10.2-38.2,14.1-56.3l1-4.4l-106.8-37.5l-1.8,4
						c-7.3,16.9-14.9,34.3-21.3,53.8c-7.7,23.5-12.7,46.5-17.1,66.8L265.7,308.6z"/>
				</g>
				<g>
					<polygon class="st5" points="404.8,217.3 317.3,186.6 340.3,170.1 395.9,189.6 					"/>
					<path d="M404.8,218.2c-0.1,0-0.2,0-0.3-0.1L317,187.4c-0.3-0.1-0.5-0.4-0.6-0.7c0-0.3,0.1-0.7,0.4-0.9l23.1-16.5
						c0.2-0.2,0.5-0.2,0.8-0.1l55.6,19.5c0.3,0.1,0.5,0.3,0.6,0.6l8.8,27.7c0.1,0.3,0,0.7-0.2,0.9
						C405.2,218.1,405,218.2,404.8,218.2z M319.2,186.3l84.2,29.6l-8.2-25.6l-54.7-19.2L319.2,186.3z"/>
				</g>
				<g>
					<polygon points="276.5,313.4 364,344.2 340.9,360.7 285.3,341.1 					"/>
					<path d="M340.9,361.6c-0.1,0-0.2,0-0.3-0.1L285,342c-0.3-0.1-0.5-0.3-0.6-0.6l-8.8-27.7c-0.1-0.3,0-0.7,0.2-0.9
						c0.2-0.2,0.6-0.3,0.9-0.2l87.5,30.7c0.3,0.1,0.5,0.4,0.6,0.7c0,0.3-0.1,0.7-0.4,0.9l-23.1,16.5
						C341.3,361.5,341.1,361.6,340.9,361.6z M286.1,340.4l54.7,19.2l21.3-15.2l-84.2-29.6L286.1,340.4z"/>
				</g>
				<g>
					<path class="st4" d="M364.1,178.4l-67.6-23.8l-7.1-11.1c-3-4.7-1.1-10.5,4-12.4l12.1-4.4l67.6,23.8l67.6,23.8l7.1,11.1
						c3,4.7,1.1,10.5-4,12.4l-12.1,4.4L364.1,178.4z"/>
					<path d="M431.7,203.1c-0.1,0-0.2,0-0.3-0.1l-135.2-47.5c-0.2-0.1-0.4-0.2-0.5-0.4l-7.1-11.1c-1.6-2.5-2-5.5-1.1-8.2
						c0.9-2.6,2.9-4.6,5.5-5.5l12.1-4.4c0.2-0.1,0.4-0.1,0.6,0l135.2,47.5c0.2,0.1,0.4,0.2,0.5,0.4l7.1,11.1c1.6,2.5,2,5.5,1.1,8.2
						c-0.9,2.6-2.9,4.6-5.5,5.5L432,203C431.9,203,431.8,203.1,431.7,203.1z M364.4,177.6l67.3,23.6l11.8-4.3
						c2.2-0.8,3.7-2.4,4.4-4.4c0.7-2.1,0.4-4.6-0.9-6.6l-7-10.9l-134.6-47.3l-11.8,4.3c-2.2,0.8-3.7,2.4-4.4,4.4
						c-0.7,2.1-0.4,4.6,0.9,6.6l7,10.9L364.4,177.6z"/>
				</g>
				<g>
					<path class="st4" d="M300.1,377.3l-67.6-23.8l-7.1-11.1c-3-4.7-1.1-10.5,4-12.4l12.1-4.4l67.6,23.8l67.6,23.8l7.1,11.1
						c3,4.7,1.1,10.5-4,12.4l-12.1,4.4L300.1,377.3z"/>
					<path d="M367.7,402c-0.1,0-0.2,0-0.3-0.1l-135.2-47.5c-0.2-0.1-0.4-0.2-0.5-0.4l-7.1-11.1c-1.6-2.5-2-5.5-1.1-8.2
						c0.9-2.6,2.9-4.6,5.5-5.5l12.1-4.4c0.2-0.1,0.4-0.1,0.6,0l135.2,47.5c0.2,0.1,0.4,0.2,0.5,0.4l7.1,11.1c1.6,2.5,2,5.5,1.1,8.2
						c-0.9,2.6-2.9,4.6-5.5,5.5l-12.1,4.4C367.9,402,367.8,402,367.7,402z M300.4,376.5l67.3,23.6l11.8-4.3c2.2-0.8,3.7-2.4,4.4-4.4
						c0.7-2.1,0.4-4.6-0.9-6.6l-7-10.9l-134.6-47.3l-11.8,4.3c-2.2,0.8-3.7,2.4-4.4,4.4c-0.7,2.1-0.4,4.6,0.9,6.6l7,10.9
						L300.4,376.5z"/>
				</g>
				<g>
					<path d="M448.8,192.7c-0.7,2.3-2.5,4.2-5,5.1l-12.1,4.4l-135.2-47.5l-7.1-11.1c-1.5-2.3-1.8-5-1.1-7.3L448.8,192.7z"/>
					<path d="M431.7,203.1c-0.1,0-0.2,0-0.3-0.1l-135.2-47.5c-0.2-0.1-0.4-0.2-0.5-0.4l-7.1-11.1c-1.6-2.5-2-5.4-1.2-8
						c0.1-0.2,0.2-0.4,0.5-0.5c0.2-0.1,0.5-0.1,0.7,0l160.5,56.4c0.5,0.2,0.7,0.7,0.6,1.1c-0.8,2.6-2.9,4.7-5.6,5.7L432,203
						C431.9,203,431.8,203.1,431.7,203.1z M297.1,153.9l134.6,47.3l11.8-4.3c1.9-0.7,3.4-2,4.2-3.7l-158.7-55.8
						c-0.3,1.9,0.1,3.9,1.2,5.6L297.1,153.9z"/>
				</g>
				<g>
					<path d="M384.8,391.6c-0.7,2.3-2.5,4.2-5,5.1l-12.1,4.4l-135.2-47.5l-7.1-11.1c-1.5-2.3-1.8-5-1.1-7.3L384.8,391.6z"/>
					<path d="M367.7,402c-0.1,0-0.2,0-0.3-0.1l-135.2-47.5c-0.2-0.1-0.4-0.2-0.5-0.4l-7.1-11.1c-1.6-2.5-2-5.4-1.2-8
						c0.1-0.2,0.2-0.4,0.5-0.5c0.2-0.1,0.5-0.1,0.7,0l160.5,56.4c0.5,0.2,0.7,0.7,0.6,1.1c-0.8,2.6-2.9,4.7-5.6,5.7l-12.1,4.4
						C367.9,402,367.8,402,367.7,402z M233.1,352.8l134.6,47.3l11.8-4.3c1.9-0.7,3.4-2,4.2-3.7l-158.7-55.8
						c-0.3,1.9,0.1,3.9,1.2,5.6L233.1,352.8z"/>
				</g>
			</g>
			<g>
				<path class="st2" d="M301.9,323.3c-7.1-2.6-11.8-5.4-18.9-8c-1.1-4.3,1.2-10.4,3.3-14.2s5.8-7,7-11.3c1.8-6.1-0.1-11,0.5-17.4
					c1.7-16.1,16.7-25.3,21.9-40.5c2.1-6.1-0.1-15,1-21.3s10.3-14.5,14.7-19l16.8,6.9C328.4,236,315.4,274.2,301.9,323.3z"/>
			</g>
			<g>
				<path d="M372.9,348.2c-0.1,0-0.2,0-0.3-0.1l-108.3-38.1c-0.4-0.2-0.7-0.6-0.6-1l0.3-1.3c4.4-20.3,9.5-43.4,17.2-67
					c6.4-19.6,14-37.1,21.3-54l2.1-4.8c0.2-0.4,0.7-0.6,1.1-0.5L414,219.6c0.4,0.2,0.7,0.6,0.6,1l-1.1,5.2
					c-3.9,18.1-8,36.8-14.2,56.4c-7.5,23.6-16.8,45.2-25,64.2l-0.5,1.2C373.6,348,373.3,348.2,372.9,348.2z M265.7,308.6l106.8,37.5
					l0.2-0.4c8.2-19,17.5-40.5,25-64c6.2-19.6,10.2-38.2,14.1-56.3l1-4.4l-106.8-37.5l-1.8,4c-7.3,16.9-14.9,34.3-21.3,53.8
					c-7.7,23.5-12.7,46.5-17.1,66.8L265.7,308.6z"/>
			</g>
		</g>
		<g>
			<path class="st0" d="M187.4,175.8c3.4,7.8,8.4,18.4,11.2,17.3c2.6-1,0-8.6-0.5-15.5"/>
			<path d="M198.1,194c-2.7,0-6-5.3-11.6-17.9c-0.2-0.5,0-1,0.5-1.2c0.5-0.2,1,0,1.2,0.5c7.4,16.8,9.6,16.9,10,16.8
				c1.1-0.4,0.4-4.6-0.2-7.9c-0.3-2.1-0.7-4.4-0.9-6.7c0-0.5,0.3-0.9,0.8-1c0.5,0,0.9,0.3,1,0.8c0.2,2.2,0.5,4.4,0.9,6.5
				c0.8,5,1.5,8.9-0.9,9.9C198.7,194,198.4,194,198.1,194z"/>
		</g>
		<g>
			<path d="M393.5,131.9c-0.5,0-1-0.4-1-0.9l-2.9-37.4c-2.2,3.5-4.2,6.7-6,9.5c-10,16-15,24-21.3,24.5c-5.7,0.5-11.5-5.2-22.8-18
				l7,16.4c0.2,0.5,0,1.1-0.5,1.3c-0.5,0.2-1.1,0-1.3-0.5l-9.5-22.1c-0.2-0.5,0-1,0.4-1.2c0.4-0.3,1-0.2,1.3,0.2
				c13.3,15.2,20,22.4,25.3,22c5.3-0.4,10.4-8.7,19.8-23.6c2.2-3.6,4.8-7.6,7.6-12.1c0.2-0.4,0.7-0.5,1.1-0.4
				c0.4,0.1,0.7,0.5,0.8,0.9l3.2,40.3C394.5,131.4,394.1,131.8,393.5,131.9C393.5,131.9,393.5,131.9,393.5,131.9z"/>
		</g>
		<g>
			<path d="M445.1,158.7C445,158.7,445,158.7,445.1,158.7c-23.2-2.3-32.5-5.2-34.2-10.6c-1.6-4.9,3.5-11.3,13.3-20.2l-21,10.5
				c-0.5,0.2-1.1,0-1.3-0.4s0-1.1,0.4-1.3l27.8-13.9c0.5-0.2,1-0.1,1.3,0.3c0.3,0.4,0.2,1-0.2,1.3c-12.1,10.5-19.8,18.4-18.3,23.1
				c1.4,4.4,10.8,7.1,32.4,9.2c0.5,0.1,1,0.5,0.9,1.1C446,158.3,445.6,158.7,445.1,158.7z"/>
		</g>
		<g>
			<path class="st2" d="M160.7,355.7c-0.7,0-1.4-0.5-1.5-1.3c-0.1-0.8,0.4-1.6,1.3-1.7c2.5-0.4,4.9-0.7,7.2-1
				c15.9-2.3,27.4-4,28.3-5.7c-0.2-1.4-7-5.3-14.1-9.4c-9.9-5.7-24.9-14.4-43-27.4c-0.6-0.4-0.8-1.2-0.5-1.9c0.3-0.7,1.1-1,1.8-0.8
				c40.1,11.6,61.3,14.3,66.7,8.6c3.1-3.3,0.8-10-1.7-17.1c-1.2-3.4-2.4-7-3.2-10.5c-0.1-0.7,0.2-1.3,0.8-1.7
				c0.6-0.3,1.3-0.2,1.8,0.3l18.7,20.9c0.6,0.6,0.5,1.6-0.1,2.1c-0.6,0.6-1.6,0.5-2.1-0.1l-14.4-16.1c0.4,1.4,0.9,2.7,1.4,4
				c2.8,8,5.4,15.6,1,20.2c-4.3,4.5-15.1,7.3-61.3-5.4c14.8,10.2,27.1,17.3,35.6,22.3c11.4,6.6,16.2,9.3,15.6,12.6
				c-0.7,3.7-7.7,4.7-30.8,8.1c-2.2,0.3-4.6,0.7-7.1,1C160.8,355.7,160.7,355.7,160.7,355.7z"/>
		</g>
		<g>
			<path class="st2" d="M471.1,380.1c-0.1,0-0.2,0-0.3,0c-22.5-5.3-32.1-8.4-33-13.6c-0.9-5.3,7.3-10.7,23.6-21.4
				c8.9-5.9,19.7-12.9,32.3-22.1c-44,13-52.6,13.4-55.4,9.5c-2.4-3.5,1.7-9.2,8.6-18.7c1.3-1.7,2.6-3.6,4-5.5l-25.2,17.1
				c-0.7,0.5-1.6,0.3-2.1-0.4c-0.5-0.7-0.3-1.6,0.4-2.1l31.8-21.6c0.6-0.4,1.4-0.3,1.9,0.2c0.5,0.5,0.6,1.3,0.2,1.9
				c-3,4.5-6,8.6-8.6,12.2c-4.8,6.6-9.8,13.5-8.6,15.2c2.9,4.1,40.2-7.1,60.2-13.1c0.7-0.2,1.4,0.1,1.8,0.8c0.3,0.6,0.1,1.4-0.4,1.9
				c-15.7,11.8-28.8,20.4-39.3,27.3c-13.3,8.7-22.9,15-22.3,18.4c0.7,3.8,14.9,7.5,30.8,11.2c0.8,0.2,1.3,1,1.1,1.8
				C472.4,379.6,471.8,380.1,471.1,380.1z"/>
		</g>
		<g>
			<path class="st2" d="M283.3,217.3l-69.8-28.1c-0.4-0.1-0.8,0-0.9,0.4l0,0c-0.1,0.4,0,0.8,0.3,0.9l67.1,35.6L283.3,217.3z"/>
		</g>
		<g>
			<g>
				<path class="st0" d="M171.2,241.7c0.8,8.3,1.3,14.1-2.5,13.9s-8-6.2-9.7-14.5c-2-9.7,0.2-18.7,5.2-18.4
					C169.2,222.9,170.2,232.1,171.2,241.7z"/>
			</g>
			<g>
				<path class="st0" d="M574.1,270.5c-1.7,5.9-5.2,9.9-7.9,9c-2.6-0.9-2.9-6.4-1.2-12.2c1.7-5.9,4.7-9.8,7.3-9
					C575,259.2,575.8,264.7,574.1,270.5z"/>
			</g>
			<g>
				<path class="st0" d="M234.3,272.6c-0.6-4.2,1.7-8,5.1-8.6c3.4-0.5,6.1,2.7,6.6,6.9c0.6,4.2-1.1,7.8-4.5,8.3
					C238.1,279.7,234.9,276.8,234.3,272.6z"/>
			</g>
		</g>
	</g>
</g>
<g id="_x31_">
</g>
</svg>
