<svg xmlns="http://www.w3.org/2000/svg" width="28.041" height="28.012" viewBox="0 0 28.041 28.012">
  <g id="Group_9123" data-name="Group 9123" transform="translate(-2623.823 -544.471)">
    <path id="Path_5116" data-name="Path 5116" d="M2651.47,550.436a3.359,3.359,0,0,1-1.059,2.077q-2.729,2.735-5.463,5.465-7.47,7.472-14.936,14.949a1.844,1.844,0,0,1-1.16.593c-1.465.168-2.924.392-4.385.589-.46.062-.695-.162-.634-.617q.324-2.427.667-4.851a.775.775,0,0,1,.157-.312,2.153,2.153,0,0,1,.245-.263l20.56-20.566a3.529,3.529,0,0,1,3.836-.773A3.706,3.706,0,0,1,2651.47,550.436Zm-5.88-1.588-19.415,19.418,1.258,1.265,15.081-15.084a.663.663,0,0,1,.935,0l.01.009a.663.663,0,0,1,0,.94l-15.081,15.084,1.29,1.295,19.421-19.425Zm-20.733,24.244,4.019-.553-3.469-3.468Q2625.141,571.014,2624.857,573.092Zm25.234-21.72a2.54,2.54,0,0,0-.5-3.363,2.466,2.466,0,0,0-3.005-.144Z" transform="translate(0 -1.845)"/>
    <path id="Path_5117" data-name="Path 5117" d="M2636.748,552.246l-1.467,1.464a.534.534,0,0,1-.758,0l-.008-.008a.534.534,0,0,1,.015-.765l.552-.519-1.008-1.01-.986,1.013a.562.562,0,0,1-.809,0l-.008-.008a.561.561,0,0,1,.009-.787l1.022-1.016-.8-.779-.505.519a.571.571,0,0,1-.826-.007l-.008-.009a.571.571,0,0,1,.037-.818l.541-.482-.841-.836-.538.552a.563.563,0,0,1-.807,0l-.008-.008a.563.563,0,0,1,.026-.807l.533-.485-1.378-1.382-2.885,2.886,6.906,6.908a.254.254,0,0,1,0,.362l-.545.53a.251.251,0,0,1-.354,0l-.011-.011q-3.609-3.617-7.223-7.229c-.448-.448-.449-.733-.008-1.175q1.771-1.773,3.544-3.544c.417-.416.722-.418,1.132-.008l7.284,7.285C2636.63,552.12,2636.685,552.181,2636.748,552.246Z" transform="translate(-0.425)"/>
    <path id="Path_5118" data-name="Path 5118" d="M2829.384,754.3l.009-.009a1.22,1.22,0,0,1,1.728,0l6.613,6.615,2.9-2.909-6.708-6.709-1.022,1.032a.538.538,0,0,1-.773-.01l-.008-.008a.536.536,0,0,1,.011-.747l1.936-1.937c.045.042.113.1.177.165l7.7,7.7c.441.441.351.836-.285,1.282a12.659,12.659,0,0,0-3.135,3.138c-.421.6-.831.721-1.233.321q-3.939-3.933-7.872-7.872A.285.285,0,0,1,2829.384,754.3Z" transform="translate(-190.354 -189.965)"/>
    <path id="Path_5119" data-name="Path 5119" d="M2919.791,838.52a1.423,1.423,0,1,1-1.417-1.431A1.435,1.435,0,0,1,2919.791,838.52Zm-.608,0a.84.84,0,0,0-.807-.822.821.821,0,0,0-.817.8.8.8,0,0,0,.813.829A.823.823,0,0,0,2919.182,838.515Z" transform="translate(-271.437 -270.971)"/>
  </g>
</svg>
