<svg xmlns="http://www.w3.org/2000/svg" width="35.179" height="35.015" viewBox="0 0 35.179 35.015">
  <g id="Verification" transform="translate(0.25 0.317)">
    <path id="Path_5043" data-name="Path 5043" d="M44.078,7.156A1.078,1.078,0,1,0,43,6.078,1.078,1.078,0,0,0,44.078,7.156Zm0-1.617a.539.539,0,1,1-.539.539A.539.539,0,0,1,44.078,5.539Z" transform="translate(-31.411 -3.702)" stroke="#000" stroke-width="0.5"/>
    <path id="Path_5044" data-name="Path 5044" d="M25.334,16.434V3.994a1.078,1.078,0,0,0-1.078-1.078H18.326V2.107a.27.27,0,0,0-.27-.27H15.036a2.426,2.426,0,0,0-4.738,0H7.277a.27.27,0,0,0-.27.27v.809H1.078A1.078,1.078,0,0,0,0,3.994V33.37a1.078,1.078,0,0,0,1.078,1.078H24.256a1.078,1.078,0,0,0,1.078-1.078V28.206a6.468,6.468,0,1,0,0-11.772ZM24.256,3.455a.539.539,0,0,1,.539.539V16.72a6.468,6.468,0,0,0-1.887,1.639V5.072a.27.27,0,0,0-.27-.27H18.326V3.455ZM7.277,6.689h10.78a.27.27,0,0,0,.27-.27V5.341h4.043v13.85a6.468,6.468,0,0,0,0,6.258v6.3H2.965V5.341H7.007V6.419A.27.27,0,0,0,7.277,6.689Zm.27-4.312H10.53a.27.27,0,0,0,.27-.24,1.887,1.887,0,0,1,3.73,0,.27.27,0,0,0,.27.24h2.989V6.15H7.546ZM24.795,33.37a.539.539,0,0,1-.539.539H1.078a.539.539,0,0,1-.539-.539V3.994a.539.539,0,0,1,.539-.539H7.007V4.8H2.7a.27.27,0,0,0-.27.27V32.022a.27.27,0,0,0,.27.27H22.639a.27.27,0,0,0,.27-.27v-5.74a6.468,6.468,0,0,0,1.887,1.639Zm3.234-5.121a5.929,5.929,0,1,1,5.929-5.929,5.929,5.929,0,0,1-5.929,5.929Z" transform="translate(0)" stroke="#000" stroke-width="0.5"/>
    <path id="Path_5045" data-name="Path 5045" d="M97.53,74.06l-4.118,4.118L91.45,76.216a.274.274,0,0,0-.388.388c2.326,2.326,2.188,2.232,2.35,2.232s-.216.329,4.506-4.393a.273.273,0,1,0-.388-.383Z" transform="translate(-66.462 -54.09)" stroke="#000" stroke-width="0.5"/>
    <path id="Path_5046" data-name="Path 5046" d="M17,34.27v3.5a.27.27,0,0,0,.27.27H32.9a.27.27,0,0,0,.27-.27v-3.5A.27.27,0,0,0,32.9,34H17.27A.27.27,0,0,0,17,34.27Zm.539.27H32.631V37.5H17.539Z" transform="translate(-12.418 -24.886)" stroke="#000" stroke-width="0.5"/>
    <path id="Path_5047" data-name="Path 5047" d="M37.284,58H23.27a.27.27,0,0,0,0,.539H37.284a.27.27,0,0,0,0-.539Z" transform="translate(-16.801 -42.418)" stroke="#000" stroke-width="0.5"/>
    <path id="Path_5048" data-name="Path 5048" d="M32.9,66H17.27a.27.27,0,1,0,0,.539H32.9a.27.27,0,0,0,0-.539Z" transform="translate(-12.418 -48.262)" stroke="#000" stroke-width="0.5"/>
    <path id="Path_5049" data-name="Path 5049" d="M32.9,74H17.27a.27.27,0,1,0,0,.539H32.9a.27.27,0,1,0,0-.539Z" transform="translate(-12.418 -54.106)" stroke="#000" stroke-width="0.5"/>
    <path id="Path_5050" data-name="Path 5050" d="M17.27,82.539h8.085a.27.27,0,1,0,0-.539H17.27a.27.27,0,1,0,0,.539Z" transform="translate(-12.418 -59.95)" stroke="#000" stroke-width="0.5"/>
    <path id="Path_5051" data-name="Path 5051" d="M37.284,90H23.27a.27.27,0,1,0,0,.539H37.284a.27.27,0,1,0,0-.539Z" transform="translate(-16.801 -65.793)" stroke="#000" stroke-width="0.5"/>
    <path id="Path_5052" data-name="Path 5052" d="M32.9,98H17.27a.27.27,0,1,0,0,.539H32.9a.27.27,0,1,0,0-.539Z" transform="translate(-12.418 -71.637)" stroke="#000" stroke-width="0.5"/>
    <path id="Path_5053" data-name="Path 5053" d="M29.667,106H17.27a.27.27,0,1,0,0,.539h12.4a.27.27,0,0,0,0-.539Z" transform="translate(-12.418 -77.481)" stroke="#000" stroke-width="0.5"/>
  </g>
</svg>
