<svg xmlns="http://www.w3.org/2000/svg" width="29.813" height="24.375" viewBox="0 0 29.813 24.375">
  <g id="Group_9121" data-name="Group 9121" transform="translate(-2109.385 -528.928)">
    <path id="Path_5114" data-name="Path 5114" d="M2124.308,528.929q5.664,0,11.328,0a3.388,3.388,0,0,1,3.556,3.546q.007,7.805,0,15.611c0,.708.029,1.42-.032,2.124a3.341,3.341,0,0,1-3.411,3.09c-2.9.007-5.8,0-8.694,0q-7.076,0-14.151,0a3.335,3.335,0,0,1-3.421-2.712,11.608,11.608,0,0,1-.1-2.055q-.007-5.616.007-11.232c0-1.6,0-3.194,0-4.791a3.394,3.394,0,0,1,3.585-3.58Q2118.644,528.926,2124.308,528.929Zm-13.527,5.426v13.509h27.025V534.355Zm.008-1.383h6.04V530.3a1.657,1.657,0,0,0-.175-.021c-1.29,0-2.58-.013-3.869.009a2.29,2.29,0,0,0-.883.211A2.152,2.152,0,0,0,2110.788,532.972Zm-.03,16.275c0,.183,0,.34,0,.5a2.042,2.042,0,0,0,2.214,2.209q1.744,0,3.488,0h.365v-2.706Zm27.07-16.27c0-.161-.008-.288,0-.413a2.1,2.1,0,0,0-2.3-2.3c-1.14.041-2.283.008-3.425.009h-.352v2.7Zm-6.065,16.276v2.7h.31c1.173,0,2.347,0,3.52,0a2.121,2.121,0,0,0,2.194-2.7ZM2123.6,530.3h-5.374v2.667h5.374Zm6.779.014H2125v2.654h5.377Zm-6.779,18.945h-5.373v2.664h5.373Zm1.4-.012v2.681h5.368V549.25Z" transform="translate(0 0)"/>
    <path id="Path_5115" data-name="Path 5115" d="M2279.905,650.836c0-1.3,0-2.6,0-3.9a.756.756,0,0,1,.336-.736.747.747,0,0,1,.831.077q3.259,1.961,6.521,3.917c.426.256.561.627.341.975a1.051,1.051,0,0,1-.344.315q-3.285,1.979-6.576,3.947a.682.682,0,0,1-1.1-.627C2279.9,653.48,2279.905,652.158,2279.905,650.836Zm1.366,2.86,4.769-2.859-4.769-2.855Z" transform="translate(-159.674 -109.723)"/>
  </g>
</svg>
