<svg xmlns="http://www.w3.org/2000/svg" width="120" height="120" viewBox="0 0 120 120">
  <g id="Group_9211" data-name="Group 9211" transform="translate(-544 -652)">
    <circle id="Ellipse_4" data-name="Ellipse 4" cx="60" cy="60" r="60" transform="translate(544 652)" fill="#f5f5f5"/>
    <g id="Group-326" transform="translate(302.505 -275.263)">
      <g id="Group_9201" data-name="Group 9201" transform="translate(267.495 969.263)">
        <path id="Path_5139" data-name="Path 5139" d="M-5506.809-770.69l.8,4.842-2.772,5.033s-3.06-4.589-5.736-4.556-7.744,3.982-6.787,15.9a18.471,18.471,0,0,1-.607-14.24c2.84-8.1,7.873-6.315,7.873-6.315s3.6,1.439,4.651,4.656A37.528,37.528,0,0,1-5506.809-770.69Z" transform="translate(5574.5 770.69)"/>
        <path id="Path_5140" data-name="Path 5140" d="M-5511.046-660.933s-2.851,6.192-8.508,6.861-9.34-7.38-9.34-7.38,2.28,9.759,8.825,10.836,9.954-6.641,9.954-6.641Z" transform="translate(5578.977 687.274)"/>
        <path id="Path_5141" data-name="Path 5141" d="M-5740.75-770.07h4.828l6.544,22.026,4.291-14.9-2.122-7.123h4.879l6.4,22.026,6.435-22.026h17.833v2.528l-6.593,11.152s6.649,2.6,6.811,8.751v4.556s-1.167,8.83-7.955,9.656h-2.963a9.958,9.958,0,0,1-7.4-7.457c.067.062,3.8-1.625,3.8-1.625s1.783,4.4,4.173,4.4h1.659s3.794-1.243,3.729-4.971c-.062.035,0-4.556,0-4.556s-1.7-4.733-5.388-4.733c-.077-.035-2.82,0-2.82,0v-2.389l6.354-10.707h-7.707l-9.513,32.042h-.456l-6.844-22.963-6.6,22.963h-.71Z" transform="translate(5740.75 770.216)"/>
      </g>
    </g>
  </g>
</svg>
